G75*
%MOIN*%
%OFA0B0*%
%FSLAX24Y24*%
%IPPOS*%
%LPD*%
%AMOC8*
5,1,8,0,0,1.08239X$1,22.5*
%
%ADD10C,0.0060*%
%ADD11C,0.0010*%
%ADD12C,0.0059*%
D10*
X013025Y006258D02*
X013819Y006258D01*
X013836Y006260D01*
X013853Y006264D01*
X013869Y006271D01*
X013883Y006281D01*
X013896Y006294D01*
X013906Y006308D01*
X013913Y006324D01*
X013917Y006341D01*
X013919Y006358D01*
X013919Y006604D01*
X013917Y006621D01*
X013913Y006638D01*
X013906Y006654D01*
X013896Y006668D01*
X013883Y006681D01*
X013869Y006691D01*
X013853Y006698D01*
X013836Y006702D01*
X013819Y006704D01*
X013025Y006704D01*
X013008Y006702D01*
X012991Y006698D01*
X012975Y006691D01*
X012961Y006681D01*
X012948Y006668D01*
X012938Y006654D01*
X012931Y006638D01*
X012927Y006621D01*
X012925Y006604D01*
X012925Y006358D01*
X012927Y006341D01*
X012931Y006324D01*
X012938Y006308D01*
X012948Y006294D01*
X012961Y006281D01*
X012975Y006271D01*
X012991Y006264D01*
X013008Y006260D01*
X013025Y006258D01*
X008900Y007618D02*
X008900Y007864D01*
X008898Y007881D01*
X008894Y007898D01*
X008887Y007914D01*
X008877Y007928D01*
X008864Y007941D01*
X008850Y007951D01*
X008834Y007958D01*
X008817Y007962D01*
X008800Y007964D01*
X008005Y007964D01*
X007988Y007962D01*
X007971Y007958D01*
X007955Y007951D01*
X007941Y007941D01*
X007928Y007928D01*
X007918Y007914D01*
X007911Y007898D01*
X007907Y007881D01*
X007905Y007864D01*
X007905Y007618D01*
X007907Y007601D01*
X007911Y007584D01*
X007918Y007568D01*
X007928Y007554D01*
X007941Y007541D01*
X007955Y007531D01*
X007971Y007524D01*
X007988Y007520D01*
X008005Y007518D01*
X008800Y007518D01*
X008817Y007520D01*
X008834Y007524D01*
X008850Y007531D01*
X008864Y007541D01*
X008877Y007554D01*
X008887Y007568D01*
X008894Y007584D01*
X008898Y007601D01*
X008900Y007618D01*
X019371Y007734D02*
X019371Y007984D01*
X019373Y008001D01*
X019377Y008018D01*
X019384Y008034D01*
X019394Y008048D01*
X019407Y008061D01*
X019421Y008071D01*
X019437Y008078D01*
X019454Y008082D01*
X019471Y008084D01*
X019971Y008084D01*
X019971Y008106D02*
X019471Y008106D01*
X019454Y008108D01*
X019437Y008112D01*
X019421Y008119D01*
X019407Y008129D01*
X019394Y008142D01*
X019384Y008156D01*
X019377Y008172D01*
X019373Y008189D01*
X019371Y008206D01*
X019371Y008456D01*
X019373Y008473D01*
X019377Y008490D01*
X019384Y008506D01*
X019394Y008520D01*
X019407Y008533D01*
X019421Y008543D01*
X019437Y008550D01*
X019454Y008554D01*
X019471Y008556D01*
X019971Y008556D01*
X019988Y008554D01*
X020005Y008550D01*
X020021Y008543D01*
X020035Y008533D01*
X020048Y008520D01*
X020058Y008506D01*
X020065Y008490D01*
X020069Y008473D01*
X020071Y008456D01*
X020071Y008206D01*
X020069Y008189D01*
X020065Y008172D01*
X020058Y008156D01*
X020048Y008142D01*
X020035Y008129D01*
X020021Y008119D01*
X020005Y008112D01*
X019988Y008108D01*
X019971Y008106D01*
X019971Y008084D02*
X019988Y008082D01*
X020005Y008078D01*
X020021Y008071D01*
X020035Y008061D01*
X020048Y008048D01*
X020058Y008034D01*
X020065Y008018D01*
X020069Y008001D01*
X020071Y007984D01*
X020071Y007734D01*
X020069Y007717D01*
X020065Y007700D01*
X020058Y007684D01*
X020048Y007670D01*
X020035Y007657D01*
X020021Y007647D01*
X020005Y007640D01*
X019988Y007636D01*
X019971Y007634D01*
X019471Y007634D01*
X019454Y007636D01*
X019437Y007640D01*
X019421Y007647D01*
X019407Y007657D01*
X019394Y007670D01*
X019384Y007684D01*
X019377Y007700D01*
X019373Y007717D01*
X019371Y007734D01*
X024568Y007512D02*
X024568Y007262D01*
X024570Y007245D01*
X024574Y007228D01*
X024581Y007212D01*
X024591Y007198D01*
X024604Y007185D01*
X024618Y007175D01*
X024634Y007168D01*
X024651Y007164D01*
X024668Y007162D01*
X025168Y007162D01*
X025185Y007164D01*
X025202Y007168D01*
X025218Y007175D01*
X025232Y007185D01*
X025245Y007198D01*
X025255Y007212D01*
X025262Y007228D01*
X025266Y007245D01*
X025268Y007262D01*
X025268Y007512D01*
X025266Y007529D01*
X025262Y007546D01*
X025255Y007562D01*
X025245Y007576D01*
X025232Y007589D01*
X025218Y007599D01*
X025202Y007606D01*
X025185Y007610D01*
X025168Y007612D01*
X024668Y007612D01*
X024651Y007610D01*
X024634Y007606D01*
X024618Y007599D01*
X024604Y007589D01*
X024591Y007576D01*
X024581Y007562D01*
X024574Y007546D01*
X024570Y007529D01*
X024568Y007512D01*
X024460Y005525D02*
X023960Y005525D01*
X023943Y005523D01*
X023926Y005519D01*
X023910Y005512D01*
X023896Y005502D01*
X023883Y005489D01*
X023873Y005475D01*
X023866Y005459D01*
X023862Y005442D01*
X023860Y005425D01*
X023860Y005175D01*
X023862Y005158D01*
X023866Y005141D01*
X023873Y005125D01*
X023883Y005111D01*
X023896Y005098D01*
X023910Y005088D01*
X023926Y005081D01*
X023943Y005077D01*
X023960Y005075D01*
X024460Y005075D01*
X024477Y005077D01*
X024494Y005081D01*
X024510Y005088D01*
X024524Y005098D01*
X024537Y005111D01*
X024547Y005125D01*
X024554Y005141D01*
X024558Y005158D01*
X024560Y005175D01*
X024560Y005425D01*
X024558Y005442D01*
X024554Y005459D01*
X024547Y005475D01*
X024537Y005489D01*
X024524Y005502D01*
X024510Y005512D01*
X024494Y005519D01*
X024477Y005523D01*
X024460Y005525D01*
X022040Y004795D02*
X022040Y004545D01*
X022038Y004528D01*
X022034Y004511D01*
X022027Y004495D01*
X022017Y004481D01*
X022004Y004468D01*
X021990Y004458D01*
X021974Y004451D01*
X021957Y004447D01*
X021940Y004445D01*
X021440Y004445D01*
X021440Y004423D02*
X021940Y004423D01*
X021957Y004421D01*
X021974Y004417D01*
X021990Y004410D01*
X022004Y004400D01*
X022017Y004387D01*
X022027Y004373D01*
X022034Y004357D01*
X022038Y004340D01*
X022040Y004323D01*
X022040Y004073D01*
X022038Y004056D01*
X022034Y004039D01*
X022027Y004023D01*
X022017Y004009D01*
X022004Y003996D01*
X021990Y003986D01*
X021974Y003979D01*
X021957Y003975D01*
X021940Y003973D01*
X021440Y003973D01*
X021423Y003975D01*
X021406Y003979D01*
X021390Y003986D01*
X021376Y003996D01*
X021363Y004009D01*
X021353Y004023D01*
X021346Y004039D01*
X021342Y004056D01*
X021340Y004073D01*
X021340Y004323D01*
X021342Y004340D01*
X021346Y004357D01*
X021353Y004373D01*
X021363Y004387D01*
X021376Y004400D01*
X021390Y004410D01*
X021406Y004417D01*
X021423Y004421D01*
X021440Y004423D01*
X021440Y004445D02*
X021423Y004447D01*
X021406Y004451D01*
X021390Y004458D01*
X021376Y004468D01*
X021363Y004481D01*
X021353Y004495D01*
X021346Y004511D01*
X021342Y004528D01*
X021340Y004545D01*
X021340Y004795D01*
X021342Y004812D01*
X021346Y004829D01*
X021353Y004845D01*
X021363Y004859D01*
X021376Y004872D01*
X021390Y004882D01*
X021406Y004889D01*
X021423Y004893D01*
X021440Y004895D01*
X021940Y004895D01*
X021957Y004893D01*
X021974Y004889D01*
X021990Y004882D01*
X022004Y004872D01*
X022017Y004859D01*
X022027Y004845D01*
X022034Y004829D01*
X022038Y004812D01*
X022040Y004795D01*
D11*
X025323Y007203D02*
X025335Y007192D01*
X025323Y007203D02*
X025323Y007227D01*
X025335Y007238D01*
X025347Y007238D01*
X025358Y007227D01*
X025358Y007203D01*
X025370Y007192D01*
X025382Y007192D01*
X025393Y007203D01*
X025393Y007227D01*
X025382Y007238D01*
X025393Y007289D02*
X025393Y007312D01*
X025393Y007300D02*
X025335Y007300D01*
X025323Y007289D01*
X025323Y007277D01*
X025335Y007265D01*
X025335Y007339D02*
X025323Y007351D01*
X025323Y007374D01*
X025335Y007386D01*
X025347Y007386D01*
X025358Y007374D01*
X025358Y007339D01*
X025335Y007339D01*
X025358Y007339D02*
X025382Y007362D01*
X025393Y007386D01*
X023918Y008848D02*
X023929Y008860D01*
X023918Y008848D02*
X023895Y008848D01*
X023883Y008860D01*
X023883Y008871D01*
X023895Y008883D01*
X023918Y008883D01*
X023929Y008894D01*
X023929Y008906D01*
X023918Y008917D01*
X023895Y008917D01*
X023883Y008906D01*
X023834Y008917D02*
X023811Y008917D01*
X023822Y008917D02*
X023822Y008860D01*
X023834Y008848D01*
X023845Y008848D01*
X023857Y008860D01*
X023784Y008860D02*
X023773Y008848D01*
X023750Y008848D01*
X023738Y008860D01*
X023738Y008883D01*
X023750Y008894D01*
X023761Y008894D01*
X023784Y008883D01*
X023784Y008917D01*
X023738Y008917D01*
X021685Y008906D02*
X021685Y008894D01*
X021674Y008883D01*
X021651Y008883D01*
X021639Y008871D01*
X021639Y008860D01*
X021651Y008848D01*
X021674Y008848D01*
X021685Y008860D01*
X021685Y008906D02*
X021674Y008917D01*
X021651Y008917D01*
X021639Y008906D01*
X021590Y008917D02*
X021567Y008917D01*
X021578Y008917D02*
X021578Y008860D01*
X021590Y008848D01*
X021601Y008848D01*
X021612Y008860D01*
X021540Y008848D02*
X021494Y008894D01*
X021494Y008906D01*
X021506Y008917D01*
X021528Y008917D01*
X021540Y008906D01*
X021540Y008848D02*
X021494Y008848D01*
X021494Y009006D02*
X021540Y009006D01*
X021517Y009006D02*
X021517Y009075D01*
X021540Y009052D01*
X021567Y009075D02*
X021590Y009075D01*
X021578Y009075D02*
X021578Y009017D01*
X021590Y009006D01*
X021601Y009006D01*
X021612Y009017D01*
X021639Y009017D02*
X021651Y009006D01*
X021674Y009006D01*
X021685Y009017D01*
X021674Y009040D02*
X021651Y009040D01*
X021639Y009029D01*
X021639Y009017D01*
X021674Y009040D02*
X021685Y009052D01*
X021685Y009063D01*
X021674Y009075D01*
X021651Y009075D01*
X021639Y009063D01*
X019716Y009805D02*
X019705Y009793D01*
X019682Y009793D01*
X019671Y009805D01*
X019671Y009816D01*
X019682Y009828D01*
X019705Y009828D01*
X019716Y009839D01*
X019716Y009851D01*
X019705Y009862D01*
X019682Y009862D01*
X019671Y009851D01*
X019621Y009862D02*
X019598Y009862D01*
X019610Y009862D02*
X019610Y009805D01*
X019621Y009793D01*
X019632Y009793D01*
X019644Y009805D01*
X019571Y009828D02*
X019526Y009828D01*
X019537Y009862D02*
X019571Y009828D01*
X019537Y009793D02*
X019537Y009862D01*
X019537Y009951D02*
X019560Y009951D01*
X019571Y009962D01*
X019549Y009985D02*
X019537Y009985D01*
X019526Y009974D01*
X019526Y009962D01*
X019537Y009951D01*
X019537Y009985D02*
X019526Y009997D01*
X019526Y010008D01*
X019537Y010019D01*
X019560Y010019D01*
X019571Y010008D01*
X019598Y010019D02*
X019621Y010019D01*
X019610Y010019D02*
X019610Y009962D01*
X019621Y009951D01*
X019632Y009951D01*
X019644Y009962D01*
X019671Y009962D02*
X019682Y009951D01*
X019705Y009951D01*
X019716Y009962D01*
X019705Y009985D02*
X019682Y009985D01*
X019671Y009974D01*
X019671Y009962D01*
X019705Y009985D02*
X019716Y009997D01*
X019716Y010008D01*
X019705Y010019D01*
X019682Y010019D01*
X019671Y010008D01*
X013417Y009221D02*
X013417Y009209D01*
X013406Y009198D01*
X013383Y009198D01*
X013371Y009186D01*
X013371Y009175D01*
X013383Y009163D01*
X013406Y009163D01*
X013417Y009175D01*
X013417Y009221D02*
X013406Y009232D01*
X013383Y009232D01*
X013371Y009221D01*
X013322Y009232D02*
X013299Y009232D01*
X013310Y009232D02*
X013310Y009175D01*
X013322Y009163D01*
X013333Y009163D01*
X013345Y009175D01*
X013272Y009175D02*
X013272Y009186D01*
X013261Y009198D01*
X013238Y009198D01*
X013226Y009186D01*
X013226Y009175D01*
X013238Y009163D01*
X013261Y009163D01*
X013272Y009175D01*
X013261Y009198D02*
X013272Y009209D01*
X013272Y009221D01*
X013261Y009232D01*
X013238Y009232D01*
X013226Y009221D01*
X013226Y009209D01*
X013238Y009198D01*
X011094Y009332D02*
X011083Y009321D01*
X011060Y009321D01*
X011049Y009332D01*
X011022Y009321D02*
X010976Y009367D01*
X010976Y009378D01*
X010988Y009390D01*
X011010Y009390D01*
X011022Y009378D01*
X011049Y009378D02*
X011060Y009390D01*
X011083Y009390D01*
X011094Y009378D01*
X011094Y009332D01*
X011022Y009321D02*
X010976Y009321D01*
X010949Y009355D02*
X010904Y009355D01*
X010915Y009321D02*
X010915Y009390D01*
X010949Y009355D01*
X008417Y009063D02*
X008417Y009052D01*
X008406Y009040D01*
X008383Y009040D01*
X008371Y009029D01*
X008371Y009017D01*
X008383Y009006D01*
X008406Y009006D01*
X008417Y009017D01*
X008417Y009063D02*
X008406Y009075D01*
X008383Y009075D01*
X008371Y009063D01*
X008322Y009075D02*
X008299Y009075D01*
X008310Y009075D02*
X008310Y009017D01*
X008322Y009006D01*
X008333Y009006D01*
X008345Y009017D01*
X008272Y009017D02*
X008272Y009006D01*
X008272Y009017D02*
X008226Y009063D01*
X008226Y009075D01*
X008272Y009075D01*
D12*
X022340Y007131D02*
X022340Y005753D01*
X022341Y005736D01*
X022346Y005719D01*
X022353Y005704D01*
X022363Y005690D01*
X022375Y005678D01*
X022389Y005668D01*
X022404Y005661D01*
X022421Y005656D01*
X022438Y005655D01*
X022438Y005654D02*
X025194Y005654D01*
X025194Y005655D02*
X025211Y005656D01*
X025228Y005661D01*
X025243Y005668D01*
X025257Y005678D01*
X025269Y005690D01*
X025279Y005704D01*
X025286Y005719D01*
X025291Y005736D01*
X025292Y005753D01*
X025292Y007131D01*
X025291Y007148D01*
X025286Y007165D01*
X025279Y007180D01*
X025269Y007194D01*
X025257Y007206D01*
X025243Y007216D01*
X025228Y007223D01*
X025211Y007228D01*
X025194Y007229D01*
X022438Y007229D01*
X022421Y007228D01*
X022404Y007223D01*
X022389Y007216D01*
X022375Y007206D01*
X022363Y007194D01*
X022353Y007180D01*
X022346Y007165D01*
X022341Y007148D01*
X022340Y007131D01*
M02*
