%
M48
M72
T01C0.0118
T02C0.0120
T03C0.0236
T04C0.0315
T05C0.0400
%
T01
X7753Y4119
X7399Y4355
X7753Y4591
X9131Y4631
X9603Y4946
X10312Y4709
X10588Y4434
X12084Y4434
X12753Y4631
X13225Y4631
X12477Y5064
X12123Y5024
X13422Y5339
X13383Y5772
X12792Y5772
X13422Y6127
X14052Y5772
X15155Y6048
X15824Y5812
X15194Y5457
X16926Y5576
X17556Y5576
X18186Y5576
X18186Y6206
X17556Y6206
X16926Y6206
X15863Y6560
X15706Y6835
X15194Y6678
X14761Y6678
X16926Y6835
X17556Y6835
X18186Y6835
X19308Y6402
X19958Y6166
X20076Y6481
X20588Y6560
X20194Y6993
X20863Y7229
X21611Y7269
X22123Y7229
X22241Y6875
X22438Y7505
X22005Y7583
X21532Y7583
X22989Y7505
X23501Y7505
X24092Y7505
X24446Y7347
X22044Y6206
X21493Y6324
X21414Y5536
X21847Y5536
X22714Y5300
X22556Y4946
X22241Y4946
X23698Y5300
X24564Y4946
X24958Y4946
X25036Y5457
X20548Y4985
X20588Y4670
X19603Y4670
X19052Y4670
X18777Y4828
X19052Y4985
X20036Y5418
X17714Y4513
X17399Y4552
X18068Y4473
X18422Y4473
X17202Y4237
X16296Y4709
X15863Y4709
X14997Y4788
X15469Y4237
X15942Y4237
X19407Y3174
X20194Y2190
X19446Y1363
X19210Y1048
X18698Y1206
X18029Y1127
X17438Y969
X19446Y812
X7595Y5261
X7202Y5339
X6178Y4867
X5273Y4552
X6178Y4355
X8186Y5930
X7753Y6048
X7241Y6087
X8737Y5891
X9249Y5851
X10155Y5497
X11296Y6009
X10942Y6402
X10273Y6402
X10666Y6835
X11651Y6973
X12123Y7111
X11080Y7682
X10962Y7977
X11414Y8292
X12556Y8292
X9485Y8410
X9131Y8410
X8540Y8095
X8225Y8095
X7359Y8292
X7674Y7780
X7753Y7465
X7044Y7505
X6178Y7702
X6178Y8213
X7084Y6954
X8855Y6481
X12556Y6284
X16454Y7957
X16769Y7957
X17084Y7938
X17399Y7938
X17871Y7938
X18225Y7938
X19151Y7623
X18875Y7465
X19347Y7347
X19761Y7347
X20430Y8371
X21021Y8371
X18855Y8410
X17202Y8371
X16277Y8233
X15981Y8095
T02
X9781Y7446
X9269Y7446
X9269Y6934
X9781Y6934
T03
X15660Y3686
X16160Y3686
X16660Y3686
X17160Y3686
X17660Y3686
X18160Y3686
X18660Y3686
X19160Y3686
X19660Y3686
X20160Y3686
T04
X6178Y5379
X5233Y5576
X5233Y6269
X5233Y6954
X6178Y7190
T05
X15922Y2690
X16922Y2690
X17922Y2690
X18922Y2690
X19922Y2690
X20922Y2690
X20922Y1690
X19922Y1690
X18922Y1690
X17922Y1690
X16922Y1690
X15922Y1690
M30
