G75*
%MOIN*%
%OFA0B0*%
%FSLAX24Y24*%
%IPPOS*%
%LPD*%
%AMOC8*
5,1,8,0,0,1.08239X$1,22.5*
%
%ADD10C,0.0060*%
%ADD11C,0.0025*%
%ADD12C,0.0010*%
%ADD13C,0.0020*%
%ADD14R,0.0213X0.0291*%
%ADD15C,0.0059*%
D10*
X013032Y006258D02*
X013827Y006258D01*
X013844Y006260D01*
X013861Y006264D01*
X013877Y006271D01*
X013891Y006281D01*
X013904Y006294D01*
X013914Y006308D01*
X013921Y006324D01*
X013925Y006341D01*
X013927Y006358D01*
X013927Y006604D01*
X013925Y006621D01*
X013921Y006638D01*
X013914Y006654D01*
X013904Y006668D01*
X013891Y006681D01*
X013877Y006691D01*
X013861Y006698D01*
X013844Y006702D01*
X013827Y006704D01*
X013032Y006704D01*
X013015Y006702D01*
X012998Y006698D01*
X012982Y006691D01*
X012968Y006681D01*
X012955Y006668D01*
X012945Y006654D01*
X012938Y006638D01*
X012934Y006621D01*
X012932Y006604D01*
X012932Y006358D01*
X012934Y006341D01*
X012938Y006324D01*
X012945Y006308D01*
X012955Y006294D01*
X012968Y006281D01*
X012982Y006271D01*
X012998Y006264D01*
X013015Y006260D01*
X013032Y006258D01*
X013084Y006481D02*
X012962Y006481D01*
X013429Y006339D02*
X013429Y006278D01*
X013775Y006481D02*
X013896Y006481D01*
X013429Y006624D02*
X013429Y006684D01*
X019378Y007734D02*
X019378Y007984D01*
X019380Y008001D01*
X019384Y008018D01*
X019391Y008034D01*
X019401Y008048D01*
X019414Y008061D01*
X019428Y008071D01*
X019444Y008078D01*
X019461Y008082D01*
X019478Y008084D01*
X019978Y008084D01*
X019978Y008106D02*
X019478Y008106D01*
X019461Y008108D01*
X019444Y008112D01*
X019428Y008119D01*
X019414Y008129D01*
X019401Y008142D01*
X019391Y008156D01*
X019384Y008172D01*
X019380Y008189D01*
X019378Y008206D01*
X019378Y008456D01*
X019380Y008473D01*
X019384Y008490D01*
X019391Y008506D01*
X019401Y008520D01*
X019414Y008533D01*
X019428Y008543D01*
X019444Y008550D01*
X019461Y008554D01*
X019478Y008556D01*
X019978Y008556D01*
X019995Y008554D01*
X020012Y008550D01*
X020028Y008543D01*
X020042Y008533D01*
X020055Y008520D01*
X020065Y008506D01*
X020072Y008490D01*
X020076Y008473D01*
X020078Y008456D01*
X020078Y008206D01*
X020076Y008189D01*
X020072Y008172D01*
X020065Y008156D01*
X020055Y008142D01*
X020042Y008129D01*
X020028Y008119D01*
X020012Y008112D01*
X019995Y008108D01*
X019978Y008106D01*
X019978Y008084D02*
X019995Y008082D01*
X020012Y008078D01*
X020028Y008071D01*
X020042Y008061D01*
X020055Y008048D01*
X020065Y008034D01*
X020072Y008018D01*
X020076Y008001D01*
X020078Y007984D01*
X020078Y007734D01*
X020076Y007717D01*
X020072Y007700D01*
X020065Y007684D01*
X020055Y007670D01*
X020042Y007657D01*
X020028Y007647D01*
X020012Y007640D01*
X019995Y007636D01*
X019978Y007634D01*
X019478Y007634D01*
X019461Y007636D01*
X019444Y007640D01*
X019428Y007647D01*
X019414Y007657D01*
X019401Y007670D01*
X019391Y007684D01*
X019384Y007700D01*
X019380Y007717D01*
X019378Y007734D01*
X019428Y007859D02*
X019478Y007859D01*
X019978Y007859D02*
X020028Y007859D01*
X020028Y008331D02*
X019978Y008331D01*
X019478Y008331D02*
X019428Y008331D01*
X024575Y007512D02*
X024575Y007262D01*
X024577Y007245D01*
X024581Y007228D01*
X024588Y007212D01*
X024598Y007198D01*
X024611Y007185D01*
X024625Y007175D01*
X024641Y007168D01*
X024658Y007164D01*
X024675Y007162D01*
X025175Y007162D01*
X025192Y007164D01*
X025209Y007168D01*
X025225Y007175D01*
X025239Y007185D01*
X025252Y007198D01*
X025262Y007212D01*
X025269Y007228D01*
X025273Y007245D01*
X025275Y007262D01*
X025275Y007512D01*
X025273Y007529D01*
X025269Y007546D01*
X025262Y007562D01*
X025252Y007576D01*
X025239Y007589D01*
X025225Y007599D01*
X025209Y007606D01*
X025192Y007610D01*
X025175Y007612D01*
X024675Y007612D01*
X024658Y007610D01*
X024641Y007606D01*
X024625Y007599D01*
X024611Y007589D01*
X024598Y007576D01*
X024588Y007562D01*
X024581Y007546D01*
X024577Y007529D01*
X024575Y007512D01*
X024625Y007387D02*
X024675Y007387D01*
X025175Y007387D02*
X025225Y007387D01*
X024467Y005525D02*
X023967Y005525D01*
X023950Y005523D01*
X023933Y005519D01*
X023917Y005512D01*
X023903Y005502D01*
X023890Y005489D01*
X023880Y005475D01*
X023873Y005459D01*
X023869Y005442D01*
X023867Y005425D01*
X023867Y005175D01*
X023869Y005158D01*
X023873Y005141D01*
X023880Y005125D01*
X023890Y005111D01*
X023903Y005098D01*
X023917Y005088D01*
X023933Y005081D01*
X023950Y005077D01*
X023967Y005075D01*
X024467Y005075D01*
X024484Y005077D01*
X024501Y005081D01*
X024517Y005088D01*
X024531Y005098D01*
X024544Y005111D01*
X024554Y005125D01*
X024561Y005141D01*
X024565Y005158D01*
X024567Y005175D01*
X024567Y005425D01*
X024565Y005442D01*
X024561Y005459D01*
X024554Y005475D01*
X024544Y005489D01*
X024531Y005502D01*
X024517Y005512D01*
X024501Y005519D01*
X024484Y005523D01*
X024467Y005525D01*
X024467Y005300D02*
X024517Y005300D01*
X023967Y005300D02*
X023917Y005300D01*
X022047Y004795D02*
X022047Y004545D01*
X022045Y004528D01*
X022041Y004511D01*
X022034Y004495D01*
X022024Y004481D01*
X022011Y004468D01*
X021997Y004458D01*
X021981Y004451D01*
X021964Y004447D01*
X021947Y004445D01*
X021447Y004445D01*
X021447Y004423D02*
X021947Y004423D01*
X021964Y004421D01*
X021981Y004417D01*
X021997Y004410D01*
X022011Y004400D01*
X022024Y004387D01*
X022034Y004373D01*
X022041Y004357D01*
X022045Y004340D01*
X022047Y004323D01*
X022047Y004073D01*
X022045Y004056D01*
X022041Y004039D01*
X022034Y004023D01*
X022024Y004009D01*
X022011Y003996D01*
X021997Y003986D01*
X021981Y003979D01*
X021964Y003975D01*
X021947Y003973D01*
X021447Y003973D01*
X021430Y003975D01*
X021413Y003979D01*
X021397Y003986D01*
X021383Y003996D01*
X021370Y004009D01*
X021360Y004023D01*
X021353Y004039D01*
X021349Y004056D01*
X021347Y004073D01*
X021347Y004323D01*
X021349Y004340D01*
X021353Y004357D01*
X021360Y004373D01*
X021370Y004387D01*
X021383Y004400D01*
X021397Y004410D01*
X021413Y004417D01*
X021430Y004421D01*
X021447Y004423D01*
X021447Y004445D02*
X021430Y004447D01*
X021413Y004451D01*
X021397Y004458D01*
X021383Y004468D01*
X021370Y004481D01*
X021360Y004495D01*
X021353Y004511D01*
X021349Y004528D01*
X021347Y004545D01*
X021347Y004795D01*
X021349Y004812D01*
X021353Y004829D01*
X021360Y004845D01*
X021370Y004859D01*
X021383Y004872D01*
X021397Y004882D01*
X021413Y004889D01*
X021430Y004893D01*
X021447Y004895D01*
X021947Y004895D01*
X021964Y004893D01*
X021981Y004889D01*
X021997Y004882D01*
X022011Y004872D01*
X022024Y004859D01*
X022034Y004845D01*
X022041Y004829D01*
X022045Y004812D01*
X022047Y004795D01*
X021997Y004670D02*
X021947Y004670D01*
X021447Y004670D02*
X021397Y004670D01*
X021397Y004198D02*
X021447Y004198D01*
X021947Y004198D02*
X021997Y004198D01*
D11*
X021764Y004036D02*
X021753Y004198D01*
X021753Y004198D01*
X021764Y004360D01*
X021764Y004361D01*
X021789Y004357D01*
X021812Y004350D01*
X021834Y004339D01*
X021854Y004325D01*
X021872Y004309D01*
X021887Y004290D01*
X021899Y004269D01*
X021908Y004246D01*
X021913Y004222D01*
X021915Y004198D01*
X021913Y004174D01*
X021908Y004150D01*
X021899Y004127D01*
X021887Y004106D01*
X021872Y004087D01*
X021854Y004071D01*
X021834Y004057D01*
X021812Y004046D01*
X021789Y004039D01*
X021764Y004035D01*
X021764Y004059D01*
X021787Y004062D01*
X021809Y004070D01*
X021829Y004081D01*
X021847Y004095D01*
X021863Y004112D01*
X021875Y004132D01*
X021884Y004153D01*
X021890Y004175D01*
X021892Y004198D01*
X021890Y004221D01*
X021884Y004243D01*
X021875Y004264D01*
X021863Y004284D01*
X021847Y004301D01*
X021829Y004315D01*
X021809Y004326D01*
X021787Y004334D01*
X021764Y004337D01*
X021764Y004314D01*
X021784Y004310D01*
X021803Y004303D01*
X021820Y004293D01*
X021836Y004280D01*
X021848Y004264D01*
X021858Y004247D01*
X021865Y004228D01*
X021869Y004208D01*
X021869Y004188D01*
X021865Y004168D01*
X021858Y004149D01*
X021848Y004132D01*
X021836Y004116D01*
X021820Y004103D01*
X021803Y004093D01*
X021784Y004086D01*
X021764Y004082D01*
X021764Y004105D01*
X021782Y004109D01*
X021798Y004116D01*
X021813Y004127D01*
X021826Y004140D01*
X021835Y004155D01*
X021842Y004171D01*
X021846Y004189D01*
X021846Y004207D01*
X021842Y004225D01*
X021835Y004241D01*
X021826Y004256D01*
X021813Y004269D01*
X021798Y004280D01*
X021782Y004287D01*
X021764Y004291D01*
X021764Y004268D01*
X021780Y004263D01*
X021794Y004255D01*
X021806Y004244D01*
X021815Y004230D01*
X021821Y004214D01*
X021823Y004198D01*
X021821Y004182D01*
X021815Y004166D01*
X021806Y004152D01*
X021794Y004141D01*
X021780Y004133D01*
X021764Y004128D01*
X021764Y004152D01*
X021776Y004156D01*
X021786Y004164D01*
X021794Y004174D01*
X021798Y004186D01*
X021800Y004198D01*
X021798Y004210D01*
X021794Y004222D01*
X021786Y004232D01*
X021776Y004240D01*
X021764Y004244D01*
X021764Y004220D01*
X021771Y004214D01*
X021775Y004207D01*
X021777Y004198D01*
X021775Y004189D01*
X021771Y004182D01*
X021764Y004176D01*
X021752Y004196D01*
X021753Y004196D01*
X021754Y004197D01*
X021754Y004199D01*
X021753Y004200D01*
X021752Y004200D01*
X021630Y004360D02*
X021641Y004198D01*
X021641Y004198D01*
X021630Y004036D01*
X021630Y004035D01*
X021605Y004039D01*
X021582Y004046D01*
X021560Y004057D01*
X021540Y004071D01*
X021522Y004087D01*
X021507Y004106D01*
X021495Y004127D01*
X021486Y004150D01*
X021481Y004174D01*
X021479Y004198D01*
X021481Y004222D01*
X021486Y004246D01*
X021495Y004269D01*
X021507Y004290D01*
X021522Y004309D01*
X021540Y004325D01*
X021560Y004339D01*
X021582Y004350D01*
X021605Y004357D01*
X021630Y004361D01*
X021630Y004337D01*
X021607Y004334D01*
X021585Y004326D01*
X021565Y004315D01*
X021547Y004301D01*
X021531Y004284D01*
X021519Y004264D01*
X021510Y004243D01*
X021504Y004221D01*
X021502Y004198D01*
X021504Y004175D01*
X021510Y004153D01*
X021519Y004132D01*
X021531Y004112D01*
X021547Y004095D01*
X021565Y004081D01*
X021585Y004070D01*
X021607Y004062D01*
X021630Y004059D01*
X021630Y004082D01*
X021610Y004086D01*
X021591Y004093D01*
X021574Y004103D01*
X021558Y004116D01*
X021546Y004132D01*
X021536Y004149D01*
X021529Y004168D01*
X021525Y004188D01*
X021525Y004208D01*
X021529Y004228D01*
X021536Y004247D01*
X021546Y004264D01*
X021558Y004280D01*
X021574Y004293D01*
X021591Y004303D01*
X021610Y004310D01*
X021630Y004314D01*
X021630Y004291D01*
X021612Y004287D01*
X021596Y004280D01*
X021581Y004269D01*
X021568Y004256D01*
X021559Y004241D01*
X021552Y004225D01*
X021548Y004207D01*
X021548Y004189D01*
X021552Y004171D01*
X021559Y004155D01*
X021568Y004140D01*
X021581Y004127D01*
X021596Y004116D01*
X021612Y004109D01*
X021630Y004105D01*
X021630Y004128D01*
X021614Y004133D01*
X021600Y004141D01*
X021588Y004152D01*
X021579Y004166D01*
X021573Y004182D01*
X021571Y004198D01*
X021573Y004214D01*
X021579Y004230D01*
X021588Y004244D01*
X021600Y004255D01*
X021614Y004263D01*
X021630Y004268D01*
X021630Y004244D01*
X021618Y004240D01*
X021608Y004232D01*
X021600Y004222D01*
X021596Y004210D01*
X021594Y004198D01*
X021596Y004186D01*
X021600Y004174D01*
X021608Y004164D01*
X021618Y004156D01*
X021630Y004152D01*
X021630Y004176D01*
X021623Y004182D01*
X021619Y004189D01*
X021617Y004198D01*
X021619Y004207D01*
X021623Y004214D01*
X021630Y004220D01*
X021642Y004200D01*
X021641Y004200D01*
X021640Y004199D01*
X021640Y004197D01*
X021641Y004196D01*
X021642Y004196D01*
X021630Y004832D02*
X021641Y004670D01*
X021641Y004670D01*
X021630Y004508D01*
X021630Y004507D01*
X021605Y004511D01*
X021582Y004518D01*
X021560Y004529D01*
X021540Y004543D01*
X021522Y004559D01*
X021507Y004578D01*
X021495Y004599D01*
X021486Y004622D01*
X021481Y004646D01*
X021479Y004670D01*
X021481Y004694D01*
X021486Y004718D01*
X021495Y004741D01*
X021507Y004762D01*
X021522Y004781D01*
X021540Y004797D01*
X021560Y004811D01*
X021582Y004822D01*
X021605Y004829D01*
X021630Y004833D01*
X021630Y004809D01*
X021607Y004806D01*
X021585Y004798D01*
X021565Y004787D01*
X021547Y004773D01*
X021531Y004756D01*
X021519Y004736D01*
X021510Y004715D01*
X021504Y004693D01*
X021502Y004670D01*
X021504Y004647D01*
X021510Y004625D01*
X021519Y004604D01*
X021531Y004584D01*
X021547Y004567D01*
X021565Y004553D01*
X021585Y004542D01*
X021607Y004534D01*
X021630Y004531D01*
X021630Y004554D01*
X021610Y004558D01*
X021591Y004565D01*
X021574Y004575D01*
X021558Y004588D01*
X021546Y004604D01*
X021536Y004621D01*
X021529Y004640D01*
X021525Y004660D01*
X021525Y004680D01*
X021529Y004700D01*
X021536Y004719D01*
X021546Y004736D01*
X021558Y004752D01*
X021574Y004765D01*
X021591Y004775D01*
X021610Y004782D01*
X021630Y004786D01*
X021630Y004763D01*
X021612Y004759D01*
X021596Y004752D01*
X021581Y004741D01*
X021568Y004728D01*
X021559Y004713D01*
X021552Y004697D01*
X021548Y004679D01*
X021548Y004661D01*
X021552Y004643D01*
X021559Y004627D01*
X021568Y004612D01*
X021581Y004599D01*
X021596Y004588D01*
X021612Y004581D01*
X021630Y004577D01*
X021630Y004600D01*
X021614Y004605D01*
X021600Y004613D01*
X021588Y004624D01*
X021579Y004638D01*
X021573Y004654D01*
X021571Y004670D01*
X021573Y004686D01*
X021579Y004702D01*
X021588Y004716D01*
X021600Y004727D01*
X021614Y004735D01*
X021630Y004740D01*
X021630Y004716D01*
X021618Y004712D01*
X021608Y004704D01*
X021600Y004694D01*
X021596Y004682D01*
X021594Y004670D01*
X021596Y004658D01*
X021600Y004646D01*
X021608Y004636D01*
X021618Y004628D01*
X021630Y004624D01*
X021630Y004648D01*
X021623Y004654D01*
X021619Y004661D01*
X021617Y004670D01*
X021619Y004679D01*
X021623Y004686D01*
X021630Y004692D01*
X021642Y004672D01*
X021641Y004672D01*
X021640Y004671D01*
X021640Y004669D01*
X021641Y004668D01*
X021642Y004668D01*
X021764Y004508D02*
X021753Y004670D01*
X021753Y004670D01*
X021764Y004832D01*
X021764Y004833D01*
X021789Y004829D01*
X021812Y004822D01*
X021834Y004811D01*
X021854Y004797D01*
X021872Y004781D01*
X021887Y004762D01*
X021899Y004741D01*
X021908Y004718D01*
X021913Y004694D01*
X021915Y004670D01*
X021913Y004646D01*
X021908Y004622D01*
X021899Y004599D01*
X021887Y004578D01*
X021872Y004559D01*
X021854Y004543D01*
X021834Y004529D01*
X021812Y004518D01*
X021789Y004511D01*
X021764Y004507D01*
X021764Y004531D01*
X021787Y004534D01*
X021809Y004542D01*
X021829Y004553D01*
X021847Y004567D01*
X021863Y004584D01*
X021875Y004604D01*
X021884Y004625D01*
X021890Y004647D01*
X021892Y004670D01*
X021890Y004693D01*
X021884Y004715D01*
X021875Y004736D01*
X021863Y004756D01*
X021847Y004773D01*
X021829Y004787D01*
X021809Y004798D01*
X021787Y004806D01*
X021764Y004809D01*
X021764Y004786D01*
X021784Y004782D01*
X021803Y004775D01*
X021820Y004765D01*
X021836Y004752D01*
X021848Y004736D01*
X021858Y004719D01*
X021865Y004700D01*
X021869Y004680D01*
X021869Y004660D01*
X021865Y004640D01*
X021858Y004621D01*
X021848Y004604D01*
X021836Y004588D01*
X021820Y004575D01*
X021803Y004565D01*
X021784Y004558D01*
X021764Y004554D01*
X021764Y004577D01*
X021782Y004581D01*
X021798Y004588D01*
X021813Y004599D01*
X021826Y004612D01*
X021835Y004627D01*
X021842Y004643D01*
X021846Y004661D01*
X021846Y004679D01*
X021842Y004697D01*
X021835Y004713D01*
X021826Y004728D01*
X021813Y004741D01*
X021798Y004752D01*
X021782Y004759D01*
X021764Y004763D01*
X021764Y004740D01*
X021780Y004735D01*
X021794Y004727D01*
X021806Y004716D01*
X021815Y004702D01*
X021821Y004686D01*
X021823Y004670D01*
X021821Y004654D01*
X021815Y004638D01*
X021806Y004624D01*
X021794Y004613D01*
X021780Y004605D01*
X021764Y004600D01*
X021764Y004624D01*
X021776Y004628D01*
X021786Y004636D01*
X021794Y004646D01*
X021798Y004658D01*
X021800Y004670D01*
X021798Y004682D01*
X021794Y004694D01*
X021786Y004704D01*
X021776Y004712D01*
X021764Y004716D01*
X021764Y004692D01*
X021771Y004686D01*
X021775Y004679D01*
X021777Y004670D01*
X021775Y004661D01*
X021771Y004654D01*
X021764Y004648D01*
X021752Y004668D01*
X021753Y004668D01*
X021754Y004669D01*
X021754Y004671D01*
X021753Y004672D01*
X021752Y004672D01*
X024150Y005462D02*
X024161Y005300D01*
X024161Y005300D01*
X024150Y005138D01*
X024150Y005137D01*
X024125Y005141D01*
X024102Y005148D01*
X024080Y005159D01*
X024060Y005173D01*
X024042Y005189D01*
X024027Y005208D01*
X024015Y005229D01*
X024006Y005252D01*
X024001Y005276D01*
X023999Y005300D01*
X024001Y005324D01*
X024006Y005348D01*
X024015Y005371D01*
X024027Y005392D01*
X024042Y005411D01*
X024060Y005427D01*
X024080Y005441D01*
X024102Y005452D01*
X024125Y005459D01*
X024150Y005463D01*
X024150Y005439D01*
X024127Y005436D01*
X024105Y005428D01*
X024085Y005417D01*
X024067Y005403D01*
X024051Y005386D01*
X024039Y005366D01*
X024030Y005345D01*
X024024Y005323D01*
X024022Y005300D01*
X024024Y005277D01*
X024030Y005255D01*
X024039Y005234D01*
X024051Y005214D01*
X024067Y005197D01*
X024085Y005183D01*
X024105Y005172D01*
X024127Y005164D01*
X024150Y005161D01*
X024150Y005184D01*
X024130Y005188D01*
X024111Y005195D01*
X024094Y005205D01*
X024078Y005218D01*
X024066Y005234D01*
X024056Y005251D01*
X024049Y005270D01*
X024045Y005290D01*
X024045Y005310D01*
X024049Y005330D01*
X024056Y005349D01*
X024066Y005366D01*
X024078Y005382D01*
X024094Y005395D01*
X024111Y005405D01*
X024130Y005412D01*
X024150Y005416D01*
X024150Y005393D01*
X024132Y005389D01*
X024116Y005382D01*
X024101Y005371D01*
X024088Y005358D01*
X024079Y005343D01*
X024072Y005327D01*
X024068Y005309D01*
X024068Y005291D01*
X024072Y005273D01*
X024079Y005257D01*
X024088Y005242D01*
X024101Y005229D01*
X024116Y005218D01*
X024132Y005211D01*
X024150Y005207D01*
X024150Y005230D01*
X024134Y005235D01*
X024120Y005243D01*
X024108Y005254D01*
X024099Y005268D01*
X024093Y005284D01*
X024091Y005300D01*
X024093Y005316D01*
X024099Y005332D01*
X024108Y005346D01*
X024120Y005357D01*
X024134Y005365D01*
X024150Y005370D01*
X024150Y005346D01*
X024138Y005342D01*
X024128Y005334D01*
X024120Y005324D01*
X024116Y005312D01*
X024114Y005300D01*
X024116Y005288D01*
X024120Y005276D01*
X024128Y005266D01*
X024138Y005258D01*
X024150Y005254D01*
X024150Y005278D01*
X024143Y005284D01*
X024139Y005291D01*
X024137Y005300D01*
X024139Y005309D01*
X024143Y005316D01*
X024150Y005322D01*
X024162Y005302D01*
X024161Y005302D01*
X024160Y005301D01*
X024160Y005299D01*
X024161Y005298D01*
X024162Y005298D01*
X024284Y005138D02*
X024273Y005300D01*
X024273Y005300D01*
X024284Y005462D01*
X024284Y005463D01*
X024309Y005459D01*
X024332Y005452D01*
X024354Y005441D01*
X024374Y005427D01*
X024392Y005411D01*
X024407Y005392D01*
X024419Y005371D01*
X024428Y005348D01*
X024433Y005324D01*
X024435Y005300D01*
X024433Y005276D01*
X024428Y005252D01*
X024419Y005229D01*
X024407Y005208D01*
X024392Y005189D01*
X024374Y005173D01*
X024354Y005159D01*
X024332Y005148D01*
X024309Y005141D01*
X024284Y005137D01*
X024284Y005161D01*
X024307Y005164D01*
X024329Y005172D01*
X024349Y005183D01*
X024367Y005197D01*
X024383Y005214D01*
X024395Y005234D01*
X024404Y005255D01*
X024410Y005277D01*
X024412Y005300D01*
X024410Y005323D01*
X024404Y005345D01*
X024395Y005366D01*
X024383Y005386D01*
X024367Y005403D01*
X024349Y005417D01*
X024329Y005428D01*
X024307Y005436D01*
X024284Y005439D01*
X024284Y005416D01*
X024304Y005412D01*
X024323Y005405D01*
X024340Y005395D01*
X024356Y005382D01*
X024368Y005366D01*
X024378Y005349D01*
X024385Y005330D01*
X024389Y005310D01*
X024389Y005290D01*
X024385Y005270D01*
X024378Y005251D01*
X024368Y005234D01*
X024356Y005218D01*
X024340Y005205D01*
X024323Y005195D01*
X024304Y005188D01*
X024284Y005184D01*
X024284Y005207D01*
X024302Y005211D01*
X024318Y005218D01*
X024333Y005229D01*
X024346Y005242D01*
X024355Y005257D01*
X024362Y005273D01*
X024366Y005291D01*
X024366Y005309D01*
X024362Y005327D01*
X024355Y005343D01*
X024346Y005358D01*
X024333Y005371D01*
X024318Y005382D01*
X024302Y005389D01*
X024284Y005393D01*
X024284Y005370D01*
X024300Y005365D01*
X024314Y005357D01*
X024326Y005346D01*
X024335Y005332D01*
X024341Y005316D01*
X024343Y005300D01*
X024341Y005284D01*
X024335Y005268D01*
X024326Y005254D01*
X024314Y005243D01*
X024300Y005235D01*
X024284Y005230D01*
X024284Y005254D01*
X024296Y005258D01*
X024306Y005266D01*
X024314Y005276D01*
X024318Y005288D01*
X024320Y005300D01*
X024318Y005312D01*
X024314Y005324D01*
X024306Y005334D01*
X024296Y005342D01*
X024284Y005346D01*
X024284Y005322D01*
X024291Y005316D01*
X024295Y005309D01*
X024297Y005300D01*
X024295Y005291D01*
X024291Y005284D01*
X024284Y005278D01*
X024272Y005298D01*
X024273Y005298D01*
X024274Y005299D01*
X024274Y005301D01*
X024273Y005302D01*
X024272Y005302D01*
X024858Y007549D02*
X024869Y007387D01*
X024869Y007387D01*
X024858Y007225D01*
X024858Y007224D01*
X024833Y007228D01*
X024810Y007235D01*
X024788Y007246D01*
X024768Y007260D01*
X024750Y007276D01*
X024735Y007295D01*
X024723Y007316D01*
X024714Y007339D01*
X024709Y007363D01*
X024707Y007387D01*
X024709Y007411D01*
X024714Y007435D01*
X024723Y007458D01*
X024735Y007479D01*
X024750Y007498D01*
X024768Y007514D01*
X024788Y007528D01*
X024810Y007539D01*
X024833Y007546D01*
X024858Y007550D01*
X024858Y007526D01*
X024835Y007523D01*
X024813Y007515D01*
X024793Y007504D01*
X024775Y007490D01*
X024759Y007473D01*
X024747Y007453D01*
X024738Y007432D01*
X024732Y007410D01*
X024730Y007387D01*
X024732Y007364D01*
X024738Y007342D01*
X024747Y007321D01*
X024759Y007301D01*
X024775Y007284D01*
X024793Y007270D01*
X024813Y007259D01*
X024835Y007251D01*
X024858Y007248D01*
X024858Y007271D01*
X024838Y007275D01*
X024819Y007282D01*
X024802Y007292D01*
X024786Y007305D01*
X024774Y007321D01*
X024764Y007338D01*
X024757Y007357D01*
X024753Y007377D01*
X024753Y007397D01*
X024757Y007417D01*
X024764Y007436D01*
X024774Y007453D01*
X024786Y007469D01*
X024802Y007482D01*
X024819Y007492D01*
X024838Y007499D01*
X024858Y007503D01*
X024858Y007480D01*
X024840Y007476D01*
X024824Y007469D01*
X024809Y007458D01*
X024796Y007445D01*
X024787Y007430D01*
X024780Y007414D01*
X024776Y007396D01*
X024776Y007378D01*
X024780Y007360D01*
X024787Y007344D01*
X024796Y007329D01*
X024809Y007316D01*
X024824Y007305D01*
X024840Y007298D01*
X024858Y007294D01*
X024858Y007317D01*
X024842Y007322D01*
X024828Y007330D01*
X024816Y007341D01*
X024807Y007355D01*
X024801Y007371D01*
X024799Y007387D01*
X024801Y007403D01*
X024807Y007419D01*
X024816Y007433D01*
X024828Y007444D01*
X024842Y007452D01*
X024858Y007457D01*
X024858Y007433D01*
X024846Y007429D01*
X024836Y007421D01*
X024828Y007411D01*
X024824Y007399D01*
X024822Y007387D01*
X024824Y007375D01*
X024828Y007363D01*
X024836Y007353D01*
X024846Y007345D01*
X024858Y007341D01*
X024858Y007365D01*
X024851Y007371D01*
X024847Y007378D01*
X024845Y007387D01*
X024847Y007396D01*
X024851Y007403D01*
X024858Y007409D01*
X024870Y007389D01*
X024869Y007389D01*
X024868Y007388D01*
X024868Y007386D01*
X024869Y007385D01*
X024870Y007385D01*
X024992Y007225D02*
X024981Y007387D01*
X024981Y007387D01*
X024992Y007549D01*
X024992Y007550D01*
X025017Y007546D01*
X025040Y007539D01*
X025062Y007528D01*
X025082Y007514D01*
X025100Y007498D01*
X025115Y007479D01*
X025127Y007458D01*
X025136Y007435D01*
X025141Y007411D01*
X025143Y007387D01*
X025141Y007363D01*
X025136Y007339D01*
X025127Y007316D01*
X025115Y007295D01*
X025100Y007276D01*
X025082Y007260D01*
X025062Y007246D01*
X025040Y007235D01*
X025017Y007228D01*
X024992Y007224D01*
X024992Y007248D01*
X025015Y007251D01*
X025037Y007259D01*
X025057Y007270D01*
X025075Y007284D01*
X025091Y007301D01*
X025103Y007321D01*
X025112Y007342D01*
X025118Y007364D01*
X025120Y007387D01*
X025118Y007410D01*
X025112Y007432D01*
X025103Y007453D01*
X025091Y007473D01*
X025075Y007490D01*
X025057Y007504D01*
X025037Y007515D01*
X025015Y007523D01*
X024992Y007526D01*
X024992Y007503D01*
X025012Y007499D01*
X025031Y007492D01*
X025048Y007482D01*
X025064Y007469D01*
X025076Y007453D01*
X025086Y007436D01*
X025093Y007417D01*
X025097Y007397D01*
X025097Y007377D01*
X025093Y007357D01*
X025086Y007338D01*
X025076Y007321D01*
X025064Y007305D01*
X025048Y007292D01*
X025031Y007282D01*
X025012Y007275D01*
X024992Y007271D01*
X024992Y007294D01*
X025010Y007298D01*
X025026Y007305D01*
X025041Y007316D01*
X025054Y007329D01*
X025063Y007344D01*
X025070Y007360D01*
X025074Y007378D01*
X025074Y007396D01*
X025070Y007414D01*
X025063Y007430D01*
X025054Y007445D01*
X025041Y007458D01*
X025026Y007469D01*
X025010Y007476D01*
X024992Y007480D01*
X024992Y007457D01*
X025008Y007452D01*
X025022Y007444D01*
X025034Y007433D01*
X025043Y007419D01*
X025049Y007403D01*
X025051Y007387D01*
X025049Y007371D01*
X025043Y007355D01*
X025034Y007341D01*
X025022Y007330D01*
X025008Y007322D01*
X024992Y007317D01*
X024992Y007341D01*
X025004Y007345D01*
X025014Y007353D01*
X025022Y007363D01*
X025026Y007375D01*
X025028Y007387D01*
X025026Y007399D01*
X025022Y007411D01*
X025014Y007421D01*
X025004Y007429D01*
X024992Y007433D01*
X024992Y007409D01*
X024999Y007403D01*
X025003Y007396D01*
X025005Y007387D01*
X025003Y007378D01*
X024999Y007371D01*
X024992Y007365D01*
X024980Y007385D01*
X024981Y007385D01*
X024982Y007386D01*
X024982Y007388D01*
X024981Y007389D01*
X024980Y007389D01*
X019795Y007697D02*
X019784Y007859D01*
X019784Y007859D01*
X019795Y008021D01*
X019795Y008022D01*
X019820Y008018D01*
X019843Y008011D01*
X019865Y008000D01*
X019885Y007986D01*
X019903Y007970D01*
X019918Y007951D01*
X019930Y007930D01*
X019939Y007907D01*
X019944Y007883D01*
X019946Y007859D01*
X019944Y007835D01*
X019939Y007811D01*
X019930Y007788D01*
X019918Y007767D01*
X019903Y007748D01*
X019885Y007732D01*
X019865Y007718D01*
X019843Y007707D01*
X019820Y007700D01*
X019795Y007696D01*
X019795Y007720D01*
X019818Y007723D01*
X019840Y007731D01*
X019860Y007742D01*
X019878Y007756D01*
X019894Y007773D01*
X019906Y007793D01*
X019915Y007814D01*
X019921Y007836D01*
X019923Y007859D01*
X019921Y007882D01*
X019915Y007904D01*
X019906Y007925D01*
X019894Y007945D01*
X019878Y007962D01*
X019860Y007976D01*
X019840Y007987D01*
X019818Y007995D01*
X019795Y007998D01*
X019795Y007975D01*
X019815Y007971D01*
X019834Y007964D01*
X019851Y007954D01*
X019867Y007941D01*
X019879Y007925D01*
X019889Y007908D01*
X019896Y007889D01*
X019900Y007869D01*
X019900Y007849D01*
X019896Y007829D01*
X019889Y007810D01*
X019879Y007793D01*
X019867Y007777D01*
X019851Y007764D01*
X019834Y007754D01*
X019815Y007747D01*
X019795Y007743D01*
X019795Y007766D01*
X019813Y007770D01*
X019829Y007777D01*
X019844Y007788D01*
X019857Y007801D01*
X019866Y007816D01*
X019873Y007832D01*
X019877Y007850D01*
X019877Y007868D01*
X019873Y007886D01*
X019866Y007902D01*
X019857Y007917D01*
X019844Y007930D01*
X019829Y007941D01*
X019813Y007948D01*
X019795Y007952D01*
X019795Y007929D01*
X019811Y007924D01*
X019825Y007916D01*
X019837Y007905D01*
X019846Y007891D01*
X019852Y007875D01*
X019854Y007859D01*
X019852Y007843D01*
X019846Y007827D01*
X019837Y007813D01*
X019825Y007802D01*
X019811Y007794D01*
X019795Y007789D01*
X019795Y007813D01*
X019807Y007817D01*
X019817Y007825D01*
X019825Y007835D01*
X019829Y007847D01*
X019831Y007859D01*
X019829Y007871D01*
X019825Y007883D01*
X019817Y007893D01*
X019807Y007901D01*
X019795Y007905D01*
X019795Y007881D01*
X019802Y007875D01*
X019806Y007868D01*
X019808Y007859D01*
X019806Y007850D01*
X019802Y007843D01*
X019795Y007837D01*
X019783Y007857D01*
X019784Y007857D01*
X019785Y007858D01*
X019785Y007860D01*
X019784Y007861D01*
X019783Y007861D01*
X019661Y008021D02*
X019672Y007859D01*
X019672Y007859D01*
X019661Y007697D01*
X019661Y007696D01*
X019636Y007700D01*
X019613Y007707D01*
X019591Y007718D01*
X019571Y007732D01*
X019553Y007748D01*
X019538Y007767D01*
X019526Y007788D01*
X019517Y007811D01*
X019512Y007835D01*
X019510Y007859D01*
X019512Y007883D01*
X019517Y007907D01*
X019526Y007930D01*
X019538Y007951D01*
X019553Y007970D01*
X019571Y007986D01*
X019591Y008000D01*
X019613Y008011D01*
X019636Y008018D01*
X019661Y008022D01*
X019661Y007998D01*
X019638Y007995D01*
X019616Y007987D01*
X019596Y007976D01*
X019578Y007962D01*
X019562Y007945D01*
X019550Y007925D01*
X019541Y007904D01*
X019535Y007882D01*
X019533Y007859D01*
X019535Y007836D01*
X019541Y007814D01*
X019550Y007793D01*
X019562Y007773D01*
X019578Y007756D01*
X019596Y007742D01*
X019616Y007731D01*
X019638Y007723D01*
X019661Y007720D01*
X019661Y007743D01*
X019641Y007747D01*
X019622Y007754D01*
X019605Y007764D01*
X019589Y007777D01*
X019577Y007793D01*
X019567Y007810D01*
X019560Y007829D01*
X019556Y007849D01*
X019556Y007869D01*
X019560Y007889D01*
X019567Y007908D01*
X019577Y007925D01*
X019589Y007941D01*
X019605Y007954D01*
X019622Y007964D01*
X019641Y007971D01*
X019661Y007975D01*
X019661Y007952D01*
X019643Y007948D01*
X019627Y007941D01*
X019612Y007930D01*
X019599Y007917D01*
X019590Y007902D01*
X019583Y007886D01*
X019579Y007868D01*
X019579Y007850D01*
X019583Y007832D01*
X019590Y007816D01*
X019599Y007801D01*
X019612Y007788D01*
X019627Y007777D01*
X019643Y007770D01*
X019661Y007766D01*
X019661Y007789D01*
X019645Y007794D01*
X019631Y007802D01*
X019619Y007813D01*
X019610Y007827D01*
X019604Y007843D01*
X019602Y007859D01*
X019604Y007875D01*
X019610Y007891D01*
X019619Y007905D01*
X019631Y007916D01*
X019645Y007924D01*
X019661Y007929D01*
X019661Y007905D01*
X019649Y007901D01*
X019639Y007893D01*
X019631Y007883D01*
X019627Y007871D01*
X019625Y007859D01*
X019627Y007847D01*
X019631Y007835D01*
X019639Y007825D01*
X019649Y007817D01*
X019661Y007813D01*
X019661Y007837D01*
X019654Y007843D01*
X019650Y007850D01*
X019648Y007859D01*
X019650Y007868D01*
X019654Y007875D01*
X019661Y007881D01*
X019673Y007861D01*
X019672Y007861D01*
X019671Y007860D01*
X019671Y007858D01*
X019672Y007857D01*
X019673Y007857D01*
X019661Y008493D02*
X019672Y008331D01*
X019672Y008331D01*
X019661Y008169D01*
X019661Y008168D01*
X019636Y008172D01*
X019613Y008179D01*
X019591Y008190D01*
X019571Y008204D01*
X019553Y008220D01*
X019538Y008239D01*
X019526Y008260D01*
X019517Y008283D01*
X019512Y008307D01*
X019510Y008331D01*
X019512Y008355D01*
X019517Y008379D01*
X019526Y008402D01*
X019538Y008423D01*
X019553Y008442D01*
X019571Y008458D01*
X019591Y008472D01*
X019613Y008483D01*
X019636Y008490D01*
X019661Y008494D01*
X019661Y008470D01*
X019638Y008467D01*
X019616Y008459D01*
X019596Y008448D01*
X019578Y008434D01*
X019562Y008417D01*
X019550Y008397D01*
X019541Y008376D01*
X019535Y008354D01*
X019533Y008331D01*
X019535Y008308D01*
X019541Y008286D01*
X019550Y008265D01*
X019562Y008245D01*
X019578Y008228D01*
X019596Y008214D01*
X019616Y008203D01*
X019638Y008195D01*
X019661Y008192D01*
X019661Y008215D01*
X019641Y008219D01*
X019622Y008226D01*
X019605Y008236D01*
X019589Y008249D01*
X019577Y008265D01*
X019567Y008282D01*
X019560Y008301D01*
X019556Y008321D01*
X019556Y008341D01*
X019560Y008361D01*
X019567Y008380D01*
X019577Y008397D01*
X019589Y008413D01*
X019605Y008426D01*
X019622Y008436D01*
X019641Y008443D01*
X019661Y008447D01*
X019661Y008424D01*
X019643Y008420D01*
X019627Y008413D01*
X019612Y008402D01*
X019599Y008389D01*
X019590Y008374D01*
X019583Y008358D01*
X019579Y008340D01*
X019579Y008322D01*
X019583Y008304D01*
X019590Y008288D01*
X019599Y008273D01*
X019612Y008260D01*
X019627Y008249D01*
X019643Y008242D01*
X019661Y008238D01*
X019661Y008261D01*
X019645Y008266D01*
X019631Y008274D01*
X019619Y008285D01*
X019610Y008299D01*
X019604Y008315D01*
X019602Y008331D01*
X019604Y008347D01*
X019610Y008363D01*
X019619Y008377D01*
X019631Y008388D01*
X019645Y008396D01*
X019661Y008401D01*
X019661Y008377D01*
X019649Y008373D01*
X019639Y008365D01*
X019631Y008355D01*
X019627Y008343D01*
X019625Y008331D01*
X019627Y008319D01*
X019631Y008307D01*
X019639Y008297D01*
X019649Y008289D01*
X019661Y008285D01*
X019661Y008309D01*
X019654Y008315D01*
X019650Y008322D01*
X019648Y008331D01*
X019650Y008340D01*
X019654Y008347D01*
X019661Y008353D01*
X019673Y008333D01*
X019672Y008333D01*
X019671Y008332D01*
X019671Y008330D01*
X019672Y008329D01*
X019673Y008329D01*
X019795Y008169D02*
X019784Y008331D01*
X019784Y008331D01*
X019795Y008493D01*
X019795Y008494D01*
X019820Y008490D01*
X019843Y008483D01*
X019865Y008472D01*
X019885Y008458D01*
X019903Y008442D01*
X019918Y008423D01*
X019930Y008402D01*
X019939Y008379D01*
X019944Y008355D01*
X019946Y008331D01*
X019944Y008307D01*
X019939Y008283D01*
X019930Y008260D01*
X019918Y008239D01*
X019903Y008220D01*
X019885Y008204D01*
X019865Y008190D01*
X019843Y008179D01*
X019820Y008172D01*
X019795Y008168D01*
X019795Y008192D01*
X019818Y008195D01*
X019840Y008203D01*
X019860Y008214D01*
X019878Y008228D01*
X019894Y008245D01*
X019906Y008265D01*
X019915Y008286D01*
X019921Y008308D01*
X019923Y008331D01*
X019921Y008354D01*
X019915Y008376D01*
X019906Y008397D01*
X019894Y008417D01*
X019878Y008434D01*
X019860Y008448D01*
X019840Y008459D01*
X019818Y008467D01*
X019795Y008470D01*
X019795Y008447D01*
X019815Y008443D01*
X019834Y008436D01*
X019851Y008426D01*
X019867Y008413D01*
X019879Y008397D01*
X019889Y008380D01*
X019896Y008361D01*
X019900Y008341D01*
X019900Y008321D01*
X019896Y008301D01*
X019889Y008282D01*
X019879Y008265D01*
X019867Y008249D01*
X019851Y008236D01*
X019834Y008226D01*
X019815Y008219D01*
X019795Y008215D01*
X019795Y008238D01*
X019813Y008242D01*
X019829Y008249D01*
X019844Y008260D01*
X019857Y008273D01*
X019866Y008288D01*
X019873Y008304D01*
X019877Y008322D01*
X019877Y008340D01*
X019873Y008358D01*
X019866Y008374D01*
X019857Y008389D01*
X019844Y008402D01*
X019829Y008413D01*
X019813Y008420D01*
X019795Y008424D01*
X019795Y008401D01*
X019811Y008396D01*
X019825Y008388D01*
X019837Y008377D01*
X019846Y008363D01*
X019852Y008347D01*
X019854Y008331D01*
X019852Y008315D01*
X019846Y008299D01*
X019837Y008285D01*
X019825Y008274D01*
X019811Y008266D01*
X019795Y008261D01*
X019795Y008285D01*
X019807Y008289D01*
X019817Y008297D01*
X019825Y008307D01*
X019829Y008319D01*
X019831Y008331D01*
X019829Y008343D01*
X019825Y008355D01*
X019817Y008365D01*
X019807Y008373D01*
X019795Y008377D01*
X019795Y008353D01*
X019802Y008347D01*
X019806Y008340D01*
X019808Y008331D01*
X019806Y008322D01*
X019802Y008315D01*
X019795Y008309D01*
X019783Y008329D01*
X019784Y008329D01*
X019785Y008330D01*
X019785Y008332D01*
X019784Y008333D01*
X019783Y008333D01*
D12*
X021501Y008848D02*
X021547Y008848D01*
X021501Y008894D01*
X021501Y008906D01*
X021513Y008917D01*
X021536Y008917D01*
X021547Y008906D01*
X021574Y008917D02*
X021597Y008917D01*
X021585Y008917D02*
X021585Y008860D01*
X021597Y008848D01*
X021608Y008848D01*
X021619Y008860D01*
X021646Y008860D02*
X021658Y008848D01*
X021681Y008848D01*
X021692Y008860D01*
X021681Y008883D02*
X021658Y008883D01*
X021646Y008871D01*
X021646Y008860D01*
X021681Y008883D02*
X021692Y008894D01*
X021692Y008906D01*
X021681Y008917D01*
X021658Y008917D01*
X021646Y008906D01*
X021658Y009006D02*
X021681Y009006D01*
X021692Y009017D01*
X021681Y009040D02*
X021658Y009040D01*
X021646Y009029D01*
X021646Y009017D01*
X021658Y009006D01*
X021619Y009017D02*
X021608Y009006D01*
X021597Y009006D01*
X021585Y009017D01*
X021585Y009075D01*
X021574Y009075D02*
X021597Y009075D01*
X021646Y009063D02*
X021658Y009075D01*
X021681Y009075D01*
X021692Y009063D01*
X021692Y009052D01*
X021681Y009040D01*
X021547Y009052D02*
X021524Y009075D01*
X021524Y009006D01*
X021547Y009006D02*
X021501Y009006D01*
X019723Y009805D02*
X019712Y009793D01*
X019689Y009793D01*
X019678Y009805D01*
X019678Y009816D01*
X019689Y009828D01*
X019712Y009828D01*
X019723Y009839D01*
X019723Y009851D01*
X019712Y009862D01*
X019689Y009862D01*
X019678Y009851D01*
X019628Y009862D02*
X019605Y009862D01*
X019617Y009862D02*
X019617Y009805D01*
X019628Y009793D01*
X019640Y009793D01*
X019651Y009805D01*
X019578Y009828D02*
X019533Y009828D01*
X019544Y009862D02*
X019578Y009828D01*
X019544Y009793D02*
X019544Y009862D01*
X019544Y009951D02*
X019567Y009951D01*
X019578Y009962D01*
X019556Y009985D02*
X019544Y009985D01*
X019533Y009974D01*
X019533Y009962D01*
X019544Y009951D01*
X019544Y009985D02*
X019533Y009997D01*
X019533Y010008D01*
X019544Y010019D01*
X019567Y010019D01*
X019578Y010008D01*
X019605Y010019D02*
X019628Y010019D01*
X019617Y010019D02*
X019617Y009962D01*
X019628Y009951D01*
X019640Y009951D01*
X019651Y009962D01*
X019678Y009962D02*
X019689Y009951D01*
X019712Y009951D01*
X019723Y009962D01*
X019712Y009985D02*
X019689Y009985D01*
X019678Y009974D01*
X019678Y009962D01*
X019712Y009985D02*
X019723Y009997D01*
X019723Y010008D01*
X019712Y010019D01*
X019689Y010019D01*
X019678Y010008D01*
X023745Y008917D02*
X023791Y008917D01*
X023791Y008883D01*
X023768Y008894D01*
X023757Y008894D01*
X023745Y008883D01*
X023745Y008860D01*
X023757Y008848D01*
X023780Y008848D01*
X023791Y008860D01*
X023829Y008860D02*
X023829Y008917D01*
X023818Y008917D02*
X023841Y008917D01*
X023890Y008906D02*
X023902Y008917D01*
X023925Y008917D01*
X023936Y008906D01*
X023936Y008894D01*
X023925Y008883D01*
X023902Y008883D01*
X023890Y008871D01*
X023890Y008860D01*
X023902Y008848D01*
X023925Y008848D01*
X023936Y008860D01*
X023864Y008860D02*
X023852Y008848D01*
X023841Y008848D01*
X023829Y008860D01*
X025330Y007374D02*
X025342Y007386D01*
X025354Y007386D01*
X025365Y007374D01*
X025365Y007339D01*
X025342Y007339D01*
X025330Y007351D01*
X025330Y007374D01*
X025365Y007339D02*
X025389Y007362D01*
X025400Y007386D01*
X025400Y007312D02*
X025400Y007289D01*
X025400Y007300D02*
X025342Y007300D01*
X025330Y007289D01*
X025330Y007277D01*
X025342Y007265D01*
X025342Y007238D02*
X025330Y007227D01*
X025330Y007203D01*
X025342Y007192D01*
X025365Y007203D02*
X025377Y007192D01*
X025389Y007192D01*
X025400Y007203D01*
X025400Y007227D01*
X025389Y007238D01*
X025365Y007227D02*
X025354Y007238D01*
X025342Y007238D01*
X025365Y007227D02*
X025365Y007203D01*
X013424Y009175D02*
X013413Y009163D01*
X013390Y009163D01*
X013378Y009175D01*
X013378Y009186D01*
X013390Y009198D01*
X013413Y009198D01*
X013424Y009209D01*
X013424Y009221D01*
X013413Y009232D01*
X013390Y009232D01*
X013378Y009221D01*
X013329Y009232D02*
X013306Y009232D01*
X013317Y009232D02*
X013317Y009175D01*
X013329Y009163D01*
X013340Y009163D01*
X013352Y009175D01*
X013279Y009175D02*
X013279Y009186D01*
X013268Y009198D01*
X013245Y009198D01*
X013233Y009186D01*
X013233Y009175D01*
X013245Y009163D01*
X013268Y009163D01*
X013279Y009175D01*
X013268Y009198D02*
X013279Y009209D01*
X013279Y009221D01*
X013268Y009232D01*
X013245Y009232D01*
X013233Y009221D01*
X013233Y009209D01*
X013245Y009198D01*
D13*
X013217Y006619D02*
X013225Y006481D01*
X013225Y006481D01*
X013217Y006343D01*
X013216Y006342D01*
X013194Y006346D01*
X013173Y006352D01*
X013154Y006362D01*
X013136Y006375D01*
X013121Y006390D01*
X013108Y006408D01*
X013098Y006428D01*
X013091Y006448D01*
X013087Y006470D01*
X013087Y006492D01*
X013091Y006514D01*
X013098Y006534D01*
X013108Y006554D01*
X013121Y006572D01*
X013136Y006587D01*
X013154Y006600D01*
X013173Y006610D01*
X013194Y006616D01*
X013216Y006620D01*
X013216Y006602D01*
X013195Y006598D01*
X013175Y006591D01*
X013157Y006580D01*
X013141Y006567D01*
X013127Y006551D01*
X013116Y006532D01*
X013109Y006512D01*
X013105Y006492D01*
X013105Y006470D01*
X013109Y006450D01*
X013116Y006430D01*
X013127Y006411D01*
X013141Y006395D01*
X013157Y006382D01*
X013175Y006371D01*
X013195Y006364D01*
X013216Y006360D01*
X013216Y006378D01*
X013197Y006382D01*
X013180Y006389D01*
X013164Y006399D01*
X013150Y006412D01*
X013138Y006427D01*
X013130Y006444D01*
X013125Y006462D01*
X013123Y006481D01*
X013125Y006500D01*
X013130Y006518D01*
X013138Y006535D01*
X013150Y006550D01*
X013164Y006563D01*
X013180Y006573D01*
X013197Y006580D01*
X013216Y006584D01*
X013216Y006565D01*
X013199Y006562D01*
X013183Y006554D01*
X013169Y006544D01*
X013157Y006531D01*
X013148Y006515D01*
X013143Y006499D01*
X013141Y006481D01*
X013143Y006463D01*
X013148Y006447D01*
X013157Y006431D01*
X013169Y006418D01*
X013183Y006408D01*
X013199Y006400D01*
X013216Y006397D01*
X013216Y006415D01*
X013201Y006419D01*
X013187Y006427D01*
X013175Y006437D01*
X013166Y006450D01*
X013161Y006465D01*
X013159Y006481D01*
X013161Y006497D01*
X013166Y006512D01*
X013175Y006525D01*
X013187Y006535D01*
X013201Y006543D01*
X013216Y006547D01*
X013216Y006529D01*
X013205Y006525D01*
X013194Y006518D01*
X013186Y006510D01*
X013180Y006499D01*
X013177Y006487D01*
X013177Y006475D01*
X013180Y006463D01*
X013186Y006452D01*
X013194Y006444D01*
X013205Y006437D01*
X013216Y006433D01*
X013216Y006452D01*
X013208Y006456D01*
X013201Y006463D01*
X013196Y006471D01*
X013195Y006481D01*
X013196Y006491D01*
X013201Y006499D01*
X013208Y006506D01*
X013216Y006510D01*
X013217Y006490D01*
X013214Y006486D01*
X013213Y006481D01*
X013214Y006476D01*
X013217Y006472D01*
X013641Y006343D02*
X013633Y006481D01*
X013633Y006481D01*
X013641Y006619D01*
X013642Y006620D01*
X013664Y006616D01*
X013685Y006610D01*
X013704Y006600D01*
X013722Y006587D01*
X013737Y006572D01*
X013750Y006554D01*
X013760Y006534D01*
X013767Y006514D01*
X013771Y006492D01*
X013771Y006470D01*
X013767Y006448D01*
X013760Y006428D01*
X013750Y006408D01*
X013737Y006390D01*
X013722Y006375D01*
X013704Y006362D01*
X013685Y006352D01*
X013664Y006346D01*
X013642Y006342D01*
X013642Y006360D01*
X013663Y006364D01*
X013683Y006371D01*
X013701Y006382D01*
X013717Y006395D01*
X013731Y006411D01*
X013742Y006430D01*
X013749Y006450D01*
X013753Y006470D01*
X013753Y006492D01*
X013749Y006512D01*
X013742Y006532D01*
X013731Y006551D01*
X013717Y006567D01*
X013701Y006580D01*
X013683Y006591D01*
X013663Y006598D01*
X013642Y006602D01*
X013642Y006584D01*
X013661Y006580D01*
X013678Y006573D01*
X013694Y006563D01*
X013708Y006550D01*
X013720Y006535D01*
X013728Y006518D01*
X013733Y006500D01*
X013735Y006481D01*
X013733Y006462D01*
X013728Y006444D01*
X013720Y006427D01*
X013708Y006412D01*
X013694Y006399D01*
X013678Y006389D01*
X013661Y006382D01*
X013642Y006378D01*
X013642Y006397D01*
X013659Y006400D01*
X013675Y006408D01*
X013689Y006418D01*
X013701Y006431D01*
X013710Y006447D01*
X013715Y006463D01*
X013717Y006481D01*
X013715Y006499D01*
X013710Y006515D01*
X013701Y006531D01*
X013689Y006544D01*
X013675Y006554D01*
X013659Y006562D01*
X013642Y006565D01*
X013642Y006547D01*
X013657Y006543D01*
X013671Y006535D01*
X013683Y006525D01*
X013692Y006512D01*
X013697Y006497D01*
X013699Y006481D01*
X013697Y006465D01*
X013692Y006450D01*
X013683Y006437D01*
X013671Y006427D01*
X013657Y006419D01*
X013642Y006415D01*
X013642Y006433D01*
X013653Y006437D01*
X013664Y006444D01*
X013672Y006452D01*
X013678Y006463D01*
X013681Y006475D01*
X013681Y006487D01*
X013678Y006499D01*
X013672Y006510D01*
X013664Y006518D01*
X013653Y006525D01*
X013642Y006529D01*
X013642Y006510D01*
X013650Y006506D01*
X013657Y006499D01*
X013662Y006491D01*
X013663Y006481D01*
X013662Y006471D01*
X013657Y006463D01*
X013650Y006456D01*
X013642Y006452D01*
X013641Y006472D01*
X013644Y006476D01*
X013645Y006481D01*
X013644Y006486D01*
X013641Y006490D01*
D14*
X013429Y006481D03*
D15*
X022347Y007131D02*
X022347Y005753D01*
X022348Y005736D01*
X022353Y005719D01*
X022360Y005704D01*
X022370Y005690D01*
X022382Y005678D01*
X022396Y005668D01*
X022411Y005661D01*
X022428Y005656D01*
X022445Y005655D01*
X022445Y005654D02*
X025201Y005654D01*
X025201Y005655D02*
X025218Y005656D01*
X025235Y005661D01*
X025250Y005668D01*
X025264Y005678D01*
X025276Y005690D01*
X025286Y005704D01*
X025293Y005719D01*
X025298Y005736D01*
X025299Y005753D01*
X025299Y007131D01*
X025298Y007148D01*
X025293Y007165D01*
X025286Y007180D01*
X025276Y007194D01*
X025264Y007206D01*
X025250Y007216D01*
X025235Y007223D01*
X025218Y007228D01*
X025201Y007229D01*
X022445Y007229D01*
X022428Y007228D01*
X022411Y007223D01*
X022396Y007216D01*
X022382Y007206D01*
X022370Y007194D01*
X022360Y007180D01*
X022353Y007165D01*
X022348Y007148D01*
X022347Y007131D01*
M02*
