G75*
%MOIN*%
%OFA0B0*%
%FSLAX24Y24*%
%IPPOS*%
%LPD*%
%AMOC8*
5,1,8,0,0,1.08239X$1,22.5*
%
%ADD10R,0.0157X0.0079*%
%ADD11C,0.0320*%
%ADD12R,0.0230X0.0315*%
%ADD13R,0.0157X0.0236*%
%ADD14R,0.0787X0.4094*%
%ADD15R,0.2756X0.1378*%
%ADD16OC8,0.0436*%
%ADD17OC8,0.0600*%
%ADD18C,0.0079*%
%ADD19C,0.0238*%
%ADD20C,0.0472*%
%ADD21C,0.0059*%
%ADD22C,0.0071*%
%ADD23C,0.0197*%
%ADD24C,0.0118*%
D10*
X013580Y006481D03*
X019721Y007859D03*
X019721Y008331D03*
X021690Y004670D03*
X021690Y004198D03*
D11*
X009781Y006934D03*
X009269Y006934D03*
X009269Y007446D03*
X009781Y007446D03*
D12*
X008718Y007741D03*
X008403Y007741D03*
X008088Y007741D03*
X013107Y006481D03*
X013422Y006481D03*
X013737Y006481D03*
X019551Y007859D03*
X019891Y007859D03*
X019891Y008331D03*
X019551Y008331D03*
X024748Y007387D03*
X025088Y007387D03*
X024380Y005300D03*
X024040Y005300D03*
X021860Y004670D03*
X021520Y004670D03*
X021520Y004198D03*
X021860Y004198D03*
D13*
X011296Y007052D03*
X010942Y007052D03*
D14*
X006178Y006466D03*
D15*
X023816Y006442D03*
D16*
X020160Y003686D03*
X019660Y003686D03*
X019160Y003686D03*
X018660Y003686D03*
X018160Y003686D03*
X017660Y003686D03*
X017160Y003686D03*
X016660Y003686D03*
X016160Y003686D03*
X015660Y003686D03*
D17*
X015922Y002690D03*
X016922Y002690D03*
X017922Y002690D03*
X018922Y002690D03*
X019922Y002690D03*
X020922Y002690D03*
X020922Y001690D03*
X019922Y001690D03*
X018922Y001690D03*
X017922Y001690D03*
X016922Y001690D03*
X015922Y001690D03*
D18*
X015883Y001693D02*
X015411Y001693D01*
X015411Y001616D02*
X015483Y001616D01*
X015483Y001650D02*
X015483Y001508D01*
X015740Y001250D01*
X015883Y001250D01*
X015883Y001650D01*
X015962Y001650D01*
X015962Y001729D01*
X016362Y001729D01*
X016362Y001872D01*
X016104Y002129D01*
X015962Y002129D01*
X015962Y001729D01*
X015883Y001729D01*
X015883Y001650D01*
X015483Y001650D01*
X015483Y001729D02*
X015883Y001729D01*
X015883Y002129D01*
X015740Y002129D01*
X015483Y001872D01*
X015483Y001729D01*
X015483Y001771D02*
X015411Y001771D01*
X015411Y001848D02*
X015483Y001848D01*
X015536Y001925D02*
X015411Y001925D01*
X015411Y002002D02*
X015613Y002002D01*
X015691Y002080D02*
X015411Y002080D01*
X015411Y002157D02*
X017299Y002157D01*
X017299Y002117D02*
X017542Y001874D01*
X017523Y001855D01*
X017523Y001524D01*
X017757Y001290D01*
X018088Y001290D01*
X018322Y001524D01*
X018322Y001855D01*
X018088Y002089D01*
X017757Y002089D01*
X017738Y002070D01*
X017577Y002231D01*
X017577Y002470D01*
X017757Y002290D01*
X018088Y002290D01*
X018244Y002447D01*
X018244Y002172D01*
X018542Y001874D01*
X018523Y001855D01*
X018523Y001524D01*
X018757Y001290D01*
X019088Y001290D01*
X019322Y001524D01*
X019322Y001855D01*
X019088Y002089D01*
X018757Y002089D01*
X018738Y002070D01*
X018522Y002287D01*
X018522Y003035D01*
X018521Y003035D01*
X018703Y003035D01*
X018523Y002855D01*
X018523Y002524D01*
X018757Y002290D01*
X019088Y002290D01*
X019322Y002524D01*
X019322Y002855D01*
X019142Y003035D01*
X019236Y003035D01*
X019316Y002956D01*
X019497Y002956D01*
X019625Y003084D01*
X019695Y003084D01*
X019740Y003129D02*
X019483Y002872D01*
X019483Y002729D01*
X019883Y002729D01*
X019883Y002650D01*
X019962Y002650D01*
X019962Y002250D01*
X019975Y002250D01*
X019975Y002099D01*
X019986Y002089D01*
X019757Y002089D01*
X019523Y001855D01*
X019523Y001524D01*
X019757Y001290D01*
X020088Y001290D01*
X020322Y001524D01*
X020322Y001855D01*
X020205Y001971D01*
X020284Y001971D01*
X020364Y002051D01*
X020365Y002051D01*
X020542Y001874D01*
X020523Y001855D01*
X020523Y001524D01*
X020757Y001290D01*
X021067Y001290D01*
X020963Y001187D01*
X019380Y001187D01*
X019300Y001266D01*
X019119Y001266D01*
X018991Y001139D01*
X018991Y000958D01*
X018998Y000951D01*
X017656Y000951D01*
X017656Y001060D01*
X017528Y001188D01*
X017348Y001188D01*
X017220Y001060D01*
X017220Y000879D01*
X017348Y000751D01*
X017460Y000751D01*
X017536Y000675D01*
X015411Y000675D01*
X015411Y003486D01*
X015529Y003368D01*
X015792Y003368D01*
X015910Y003487D01*
X016029Y003368D01*
X016292Y003368D01*
X016410Y003487D01*
X016529Y003368D01*
X016536Y003368D01*
X016748Y003156D01*
X016815Y003089D01*
X016757Y003089D01*
X016523Y002855D01*
X016523Y002524D01*
X016757Y002290D01*
X017088Y002290D01*
X017299Y002502D01*
X017299Y002117D01*
X017336Y002080D02*
X017154Y002080D01*
X017104Y002129D02*
X016962Y002129D01*
X016962Y001729D01*
X017362Y001729D01*
X017362Y001872D01*
X017104Y002129D01*
X016962Y002080D02*
X016883Y002080D01*
X016883Y002129D02*
X016740Y002129D01*
X016483Y001872D01*
X016483Y001729D01*
X016883Y001729D01*
X016883Y001650D01*
X016962Y001650D01*
X016962Y001729D01*
X016883Y001729D01*
X016883Y002129D01*
X016883Y002002D02*
X016962Y002002D01*
X016962Y001925D02*
X016883Y001925D01*
X016883Y001848D02*
X016962Y001848D01*
X016962Y001771D02*
X016883Y001771D01*
X016883Y001693D02*
X015962Y001693D01*
X015962Y001650D02*
X016362Y001650D01*
X016362Y001508D01*
X016104Y001250D01*
X015962Y001250D01*
X015962Y001650D01*
X015962Y001616D02*
X015883Y001616D01*
X015883Y001539D02*
X015962Y001539D01*
X015962Y001462D02*
X015883Y001462D01*
X015883Y001384D02*
X015962Y001384D01*
X015962Y001307D02*
X015883Y001307D01*
X015684Y001307D02*
X015411Y001307D01*
X015411Y001230D02*
X019083Y001230D01*
X019104Y001307D02*
X019740Y001307D01*
X019663Y001384D02*
X019182Y001384D01*
X019259Y001462D02*
X019586Y001462D01*
X019523Y001539D02*
X019322Y001539D01*
X019322Y001616D02*
X019523Y001616D01*
X019523Y001693D02*
X019322Y001693D01*
X019322Y001771D02*
X019523Y001771D01*
X019523Y001848D02*
X019322Y001848D01*
X019252Y001925D02*
X019593Y001925D01*
X019670Y002002D02*
X019175Y002002D01*
X019097Y002080D02*
X019747Y002080D01*
X019740Y002250D02*
X019883Y002250D01*
X019883Y002650D01*
X019483Y002650D01*
X019483Y002508D01*
X019740Y002250D01*
X019679Y002311D02*
X019109Y002311D01*
X019186Y002388D02*
X019602Y002388D01*
X019525Y002466D02*
X019263Y002466D01*
X019322Y002543D02*
X019483Y002543D01*
X019483Y002620D02*
X019322Y002620D01*
X019322Y002697D02*
X019883Y002697D01*
X019883Y002729D02*
X019883Y003129D01*
X019740Y003129D01*
X019625Y003161D02*
X021433Y003161D01*
X021433Y003238D02*
X019625Y003238D01*
X019625Y003264D02*
X019497Y003392D01*
X019316Y003392D01*
X019410Y003487D01*
X019529Y003368D01*
X019792Y003368D01*
X019882Y003459D01*
X020012Y003328D01*
X020141Y003328D01*
X020141Y003666D01*
X020180Y003666D01*
X020180Y003328D01*
X020309Y003328D01*
X020474Y003494D01*
X020489Y003469D01*
X020626Y003390D01*
X021433Y003390D01*
X021433Y002375D01*
X021303Y002505D01*
X021322Y002524D01*
X021322Y002855D01*
X021088Y003089D01*
X020757Y003089D01*
X020523Y002855D01*
X020523Y002524D01*
X020757Y002290D01*
X021088Y002290D01*
X021107Y002309D01*
X021236Y002180D01*
X021236Y001941D01*
X021088Y002089D01*
X020757Y002089D01*
X020738Y002070D01*
X020561Y002247D01*
X020480Y002329D01*
X020364Y002329D01*
X020284Y002408D01*
X020262Y002408D01*
X020362Y002508D01*
X020362Y002650D01*
X019962Y002650D01*
X019962Y002729D01*
X020362Y002729D01*
X020362Y002872D01*
X020104Y003129D01*
X019962Y003129D01*
X019962Y002729D01*
X019883Y002729D01*
X019883Y002775D02*
X019962Y002775D01*
X019962Y002852D02*
X019883Y002852D01*
X019883Y002929D02*
X019962Y002929D01*
X019962Y003006D02*
X019883Y003006D01*
X019883Y003084D02*
X019962Y003084D01*
X020150Y003084D02*
X020751Y003084D01*
X020674Y003006D02*
X020227Y003006D01*
X020160Y002928D02*
X020160Y003686D01*
X020141Y003706D02*
X020141Y004043D01*
X020012Y004043D01*
X019882Y003913D01*
X019792Y004003D01*
X019529Y004003D01*
X019410Y003885D01*
X019292Y004003D01*
X019029Y004003D01*
X018910Y003885D01*
X018792Y004003D01*
X018529Y004003D01*
X018410Y003885D01*
X018299Y003996D01*
X018299Y004287D01*
X018332Y004255D01*
X018513Y004255D01*
X018577Y004319D01*
X018677Y004219D01*
X018758Y004138D01*
X021306Y004138D01*
X021306Y003999D01*
X021323Y003982D01*
X020626Y003982D01*
X020489Y003903D01*
X020489Y003903D01*
X020489Y003903D01*
X020474Y003877D01*
X020309Y004043D01*
X020180Y004043D01*
X020180Y003706D01*
X020141Y003706D01*
X020141Y003779D02*
X020180Y003779D01*
X020180Y003856D02*
X020141Y003856D01*
X020141Y003933D02*
X020180Y003933D01*
X020180Y004011D02*
X020141Y004011D01*
X019980Y004011D02*
X018299Y004011D01*
X018299Y004088D02*
X021306Y004088D01*
X021306Y004011D02*
X020341Y004011D01*
X020419Y003933D02*
X020542Y003933D01*
X019902Y003933D02*
X019862Y003933D01*
X019459Y003933D02*
X019362Y003933D01*
X018959Y003933D02*
X018862Y003933D01*
X018459Y003933D02*
X018362Y003933D01*
X018299Y004165D02*
X018731Y004165D01*
X018654Y004242D02*
X018299Y004242D01*
X018160Y004381D02*
X018068Y004473D01*
X018160Y004381D02*
X018160Y003686D01*
X018160Y003475D01*
X018462Y003174D01*
X019407Y003174D01*
X019548Y003006D02*
X019618Y003006D01*
X019625Y003084D02*
X019625Y003264D01*
X019574Y003315D02*
X021433Y003315D01*
X021433Y003084D02*
X021093Y003084D01*
X021170Y003006D02*
X021433Y003006D01*
X021433Y002929D02*
X021248Y002929D01*
X021322Y002852D02*
X021433Y002852D01*
X021433Y002775D02*
X021322Y002775D01*
X021322Y002697D02*
X021433Y002697D01*
X021433Y002620D02*
X021322Y002620D01*
X021322Y002543D02*
X021433Y002543D01*
X021433Y002466D02*
X021342Y002466D01*
X021420Y002388D02*
X021433Y002388D01*
X021375Y002237D02*
X020922Y002690D01*
X020523Y002697D02*
X019962Y002697D01*
X019922Y002690D02*
X020160Y002928D01*
X020304Y002929D02*
X020597Y002929D01*
X020523Y002852D02*
X020362Y002852D01*
X020362Y002775D02*
X020523Y002775D01*
X020523Y002620D02*
X020362Y002620D01*
X020362Y002543D02*
X020523Y002543D01*
X020581Y002466D02*
X020320Y002466D01*
X020304Y002388D02*
X020659Y002388D01*
X020736Y002311D02*
X020497Y002311D01*
X020574Y002234D02*
X021182Y002234D01*
X021236Y002157D02*
X020651Y002157D01*
X020729Y002080D02*
X020747Y002080D01*
X020414Y002002D02*
X020315Y002002D01*
X020252Y001925D02*
X020491Y001925D01*
X020523Y001848D02*
X020322Y001848D01*
X020322Y001771D02*
X020523Y001771D01*
X020523Y001693D02*
X020322Y001693D01*
X020322Y001616D02*
X020523Y001616D01*
X020523Y001539D02*
X020322Y001539D01*
X020259Y001462D02*
X020586Y001462D01*
X020663Y001384D02*
X020182Y001384D01*
X020104Y001307D02*
X020740Y001307D01*
X021006Y001230D02*
X019337Y001230D01*
X019005Y001153D02*
X017564Y001153D01*
X017641Y001075D02*
X018991Y001075D01*
X018991Y000998D02*
X017656Y000998D01*
X017595Y000812D02*
X017438Y000969D01*
X017220Y000998D02*
X015411Y000998D01*
X015411Y000921D02*
X017220Y000921D01*
X017255Y000844D02*
X015411Y000844D01*
X015411Y000766D02*
X017332Y000766D01*
X017522Y000689D02*
X015411Y000689D01*
X015411Y001075D02*
X017235Y001075D01*
X017312Y001153D02*
X015411Y001153D01*
X015411Y001384D02*
X015606Y001384D01*
X015529Y001462D02*
X015411Y001462D01*
X015411Y001539D02*
X015483Y001539D01*
X015883Y001771D02*
X015962Y001771D01*
X015962Y001848D02*
X015883Y001848D01*
X015883Y001925D02*
X015962Y001925D01*
X015962Y002002D02*
X015883Y002002D01*
X015883Y002080D02*
X015962Y002080D01*
X015962Y002250D02*
X016104Y002250D01*
X016362Y002508D01*
X016362Y002650D01*
X015962Y002650D01*
X015962Y002729D01*
X016362Y002729D01*
X016362Y002872D01*
X016104Y003129D01*
X015962Y003129D01*
X015962Y002729D01*
X015883Y002729D01*
X015883Y002650D01*
X015962Y002650D01*
X015962Y002250D01*
X015962Y002311D02*
X015883Y002311D01*
X015883Y002250D02*
X015883Y002650D01*
X015483Y002650D01*
X015483Y002508D01*
X015740Y002250D01*
X015883Y002250D01*
X015679Y002311D02*
X015411Y002311D01*
X015411Y002234D02*
X017299Y002234D01*
X017299Y002311D02*
X017109Y002311D01*
X017186Y002388D02*
X017299Y002388D01*
X017299Y002466D02*
X017263Y002466D01*
X017577Y002466D02*
X017581Y002466D01*
X017577Y002388D02*
X017659Y002388D01*
X017736Y002311D02*
X017577Y002311D01*
X017577Y002234D02*
X018244Y002234D01*
X018244Y002311D02*
X018109Y002311D01*
X018186Y002388D02*
X018244Y002388D01*
X018522Y002388D02*
X018659Y002388D01*
X018736Y002311D02*
X018522Y002311D01*
X018574Y002234D02*
X019975Y002234D01*
X019975Y002157D02*
X018651Y002157D01*
X018729Y002080D02*
X018747Y002080D01*
X018491Y001925D02*
X018252Y001925D01*
X018322Y001848D02*
X018523Y001848D01*
X018523Y001771D02*
X018322Y001771D01*
X018322Y001693D02*
X018523Y001693D01*
X018523Y001616D02*
X018322Y001616D01*
X018322Y001539D02*
X018523Y001539D01*
X018586Y001462D02*
X018259Y001462D01*
X018182Y001384D02*
X018663Y001384D01*
X018740Y001307D02*
X018104Y001307D01*
X017740Y001307D02*
X017161Y001307D01*
X017104Y001250D02*
X017362Y001508D01*
X017362Y001650D01*
X016962Y001650D01*
X016962Y001250D01*
X017104Y001250D01*
X016962Y001307D02*
X016883Y001307D01*
X016883Y001250D02*
X016883Y001650D01*
X016483Y001650D01*
X016483Y001508D01*
X016740Y001250D01*
X016883Y001250D01*
X016883Y001384D02*
X016962Y001384D01*
X016962Y001462D02*
X016883Y001462D01*
X016883Y001539D02*
X016962Y001539D01*
X016962Y001616D02*
X016883Y001616D01*
X016962Y001693D02*
X017523Y001693D01*
X017523Y001616D02*
X017362Y001616D01*
X017362Y001539D02*
X017523Y001539D01*
X017586Y001462D02*
X017315Y001462D01*
X017238Y001384D02*
X017663Y001384D01*
X017922Y001690D02*
X017438Y002174D01*
X017438Y002898D01*
X017123Y003213D01*
X016887Y003213D01*
X016660Y003440D01*
X016660Y003686D01*
X016427Y003470D02*
X016393Y003470D01*
X016316Y003393D02*
X016505Y003393D01*
X016589Y003315D02*
X015411Y003315D01*
X015411Y003238D02*
X016666Y003238D01*
X016743Y003161D02*
X015411Y003161D01*
X015411Y003084D02*
X015695Y003084D01*
X015740Y003129D02*
X015483Y002872D01*
X015483Y002729D01*
X015883Y002729D01*
X015883Y003129D01*
X015740Y003129D01*
X015883Y003084D02*
X015962Y003084D01*
X015962Y003006D02*
X015883Y003006D01*
X015883Y002929D02*
X015962Y002929D01*
X015962Y002852D02*
X015883Y002852D01*
X015883Y002775D02*
X015962Y002775D01*
X015962Y002697D02*
X016523Y002697D01*
X016523Y002620D02*
X016362Y002620D01*
X016362Y002543D02*
X016523Y002543D01*
X016581Y002466D02*
X016320Y002466D01*
X016242Y002388D02*
X016659Y002388D01*
X016736Y002311D02*
X016165Y002311D01*
X015962Y002388D02*
X015883Y002388D01*
X015883Y002466D02*
X015962Y002466D01*
X015962Y002543D02*
X015883Y002543D01*
X015883Y002620D02*
X015962Y002620D01*
X015883Y002697D02*
X015411Y002697D01*
X015411Y002620D02*
X015483Y002620D01*
X015483Y002543D02*
X015411Y002543D01*
X015411Y002466D02*
X015525Y002466D01*
X015602Y002388D02*
X015411Y002388D01*
X016154Y002080D02*
X016691Y002080D01*
X016613Y002002D02*
X016231Y002002D01*
X016308Y001925D02*
X016536Y001925D01*
X016483Y001848D02*
X016362Y001848D01*
X016362Y001771D02*
X016483Y001771D01*
X016483Y001616D02*
X016362Y001616D01*
X016362Y001539D02*
X016483Y001539D01*
X016529Y001462D02*
X016315Y001462D01*
X016238Y001384D02*
X016606Y001384D01*
X016684Y001307D02*
X016161Y001307D01*
X017362Y001771D02*
X017523Y001771D01*
X017523Y001848D02*
X017362Y001848D01*
X017308Y001925D02*
X017491Y001925D01*
X017414Y002002D02*
X017231Y002002D01*
X017651Y002157D02*
X018259Y002157D01*
X018336Y002080D02*
X018097Y002080D01*
X018175Y002002D02*
X018414Y002002D01*
X018383Y002229D02*
X018922Y001690D01*
X017747Y002080D02*
X017729Y002080D01*
X018383Y002229D02*
X018383Y002977D01*
X018186Y003174D01*
X017438Y003174D01*
X017160Y003452D01*
X017160Y003686D01*
X016910Y003885D02*
X016792Y004003D01*
X016529Y004003D01*
X016410Y003885D01*
X016292Y004003D01*
X016029Y004003D01*
X015910Y003885D01*
X015792Y004003D01*
X015529Y004003D01*
X015367Y003842D01*
X015332Y003903D01*
X015195Y003982D01*
X014978Y003982D01*
X015330Y004334D01*
X016118Y004334D01*
X016274Y004491D01*
X016387Y004491D01*
X016515Y004619D01*
X016515Y004800D01*
X016488Y004827D01*
X017317Y004827D01*
X017373Y004770D01*
X017308Y004770D01*
X017180Y004642D01*
X017180Y004461D01*
X017260Y004382D01*
X017260Y004337D01*
X017522Y004075D01*
X017522Y003996D01*
X017410Y003885D01*
X017292Y004003D01*
X017029Y004003D01*
X016910Y003885D01*
X016862Y003933D02*
X016959Y003933D01*
X017362Y003933D02*
X017459Y003933D01*
X017522Y004011D02*
X015006Y004011D01*
X015083Y004088D02*
X017509Y004088D01*
X017432Y004165D02*
X015161Y004165D01*
X015238Y004242D02*
X017355Y004242D01*
X017277Y004320D02*
X015315Y004320D01*
X015273Y004473D02*
X016060Y004473D01*
X016296Y004709D01*
X016447Y004551D02*
X017180Y004551D01*
X017180Y004474D02*
X016257Y004474D01*
X016180Y004397D02*
X017245Y004397D01*
X017399Y004394D02*
X017660Y004133D01*
X017660Y003686D01*
X016751Y003084D02*
X016150Y003084D01*
X016227Y003006D02*
X016674Y003006D01*
X016597Y002929D02*
X016304Y002929D01*
X016362Y002852D02*
X016523Y002852D01*
X016523Y002775D02*
X016362Y002775D01*
X015618Y003006D02*
X015411Y003006D01*
X015411Y002929D02*
X015540Y002929D01*
X015483Y002852D02*
X015411Y002852D01*
X015411Y002775D02*
X015483Y002775D01*
X015505Y003393D02*
X015411Y003393D01*
X015411Y003470D02*
X015427Y003470D01*
X015816Y003393D02*
X016005Y003393D01*
X015927Y003470D02*
X015893Y003470D01*
X015382Y003856D02*
X015359Y003856D01*
X015332Y003903D02*
X015332Y003903D01*
X015279Y003933D02*
X015459Y003933D01*
X015862Y003933D02*
X015959Y003933D01*
X016362Y003933D02*
X016459Y003933D01*
X017399Y004394D02*
X017399Y004552D01*
X017243Y004706D02*
X016515Y004706D01*
X016515Y004783D02*
X017360Y004783D01*
X017180Y004628D02*
X016515Y004628D01*
X015863Y004709D02*
X015273Y004709D01*
X014761Y004198D01*
X012477Y004198D01*
X012477Y005064D01*
X012616Y004894D02*
X012696Y004973D01*
X012696Y005154D01*
X012568Y005282D01*
X012387Y005282D01*
X012281Y005176D01*
X012214Y005243D01*
X012033Y005243D01*
X011905Y005115D01*
X011905Y005002D01*
X011751Y004848D01*
X010482Y004848D01*
X010402Y004928D01*
X010222Y004928D01*
X010094Y004800D01*
X010094Y004619D01*
X010219Y004494D01*
X009303Y004494D01*
X009349Y004540D01*
X009349Y004721D01*
X009221Y004849D01*
X009040Y004849D01*
X009020Y004829D01*
X008229Y004829D01*
X008069Y004988D01*
X007953Y005104D01*
X007557Y005104D01*
X007555Y005106D01*
X007475Y005104D01*
X007395Y005104D01*
X007393Y005102D01*
X007391Y005102D01*
X007336Y005044D01*
X007280Y004988D01*
X007280Y004985D01*
X006586Y004258D01*
X005847Y004258D01*
X005824Y004281D01*
X005824Y008557D01*
X007914Y008557D01*
X007080Y007723D01*
X006954Y007723D01*
X006826Y007595D01*
X006826Y007414D01*
X006954Y007286D01*
X007135Y007286D01*
X007263Y007414D01*
X007263Y007541D01*
X007456Y007734D01*
X007456Y007690D01*
X007562Y007583D01*
X007535Y007556D01*
X007535Y007375D01*
X007662Y007247D01*
X007843Y007247D01*
X007923Y007327D01*
X008227Y007327D01*
X008503Y007051D01*
X008618Y007051D01*
X008621Y007055D01*
X010093Y007055D01*
X010353Y006795D01*
X008987Y006795D01*
X008891Y006700D01*
X008765Y006700D01*
X008637Y006572D01*
X008637Y006391D01*
X008765Y006263D01*
X008946Y006263D01*
X009074Y006391D01*
X009074Y006517D01*
X009094Y006537D01*
X010357Y006537D01*
X010424Y006470D01*
X010724Y006470D01*
X010724Y006312D01*
X010851Y006184D01*
X011032Y006184D01*
X011160Y006312D01*
X011160Y006425D01*
X011196Y006460D01*
X012423Y006460D01*
X012338Y006375D01*
X012338Y006194D01*
X012466Y006066D01*
X012647Y006066D01*
X012775Y006194D01*
X012775Y006306D01*
X012810Y006342D01*
X012893Y006342D01*
X012893Y006282D01*
X012951Y006224D01*
X013211Y006224D01*
X013204Y006217D01*
X013204Y006036D01*
X013332Y005908D01*
X013513Y005908D01*
X013641Y006036D01*
X013641Y006217D01*
X013634Y006224D01*
X013893Y006224D01*
X013952Y006282D01*
X013952Y006680D01*
X013893Y006738D01*
X013873Y006738D01*
X013846Y006766D01*
X014975Y006766D01*
X014975Y006587D01*
X015103Y006460D01*
X015216Y006460D01*
X015255Y006421D01*
X015693Y006421D01*
X015773Y006341D01*
X015954Y006341D01*
X016082Y006469D01*
X016082Y006650D01*
X015954Y006778D01*
X015924Y006778D01*
X015924Y006923D01*
X017787Y006923D01*
X018200Y007336D01*
X018695Y007336D01*
X018785Y007247D01*
X018965Y007247D01*
X019093Y007375D01*
X019093Y007404D01*
X019241Y007404D01*
X019369Y007532D01*
X019369Y007628D01*
X019395Y007602D01*
X019708Y007602D01*
X019721Y007616D01*
X019735Y007602D01*
X020048Y007602D01*
X020106Y007660D01*
X020106Y007720D01*
X021199Y007720D01*
X021314Y007606D01*
X021314Y007493D01*
X021442Y007365D01*
X021623Y007365D01*
X021751Y007493D01*
X021751Y007641D01*
X021751Y007641D01*
X021787Y007606D01*
X021787Y007493D01*
X021914Y007365D01*
X022095Y007365D01*
X022223Y007493D01*
X022223Y007674D01*
X022095Y007802D01*
X021983Y007802D01*
X021629Y008155D01*
X020264Y008155D01*
X020106Y008313D01*
X020106Y008530D01*
X020079Y008557D01*
X023935Y008557D01*
X024072Y008636D01*
X024072Y008636D01*
X024072Y008636D01*
X024101Y008686D01*
X025252Y008686D01*
X025252Y007636D01*
X025244Y007643D01*
X024932Y007643D01*
X024918Y007630D01*
X024904Y007643D01*
X024592Y007643D01*
X024534Y007585D01*
X024534Y007584D01*
X024403Y007584D01*
X024385Y007566D01*
X024355Y007566D01*
X024227Y007438D01*
X024227Y007257D01*
X024254Y007230D01*
X022397Y007230D01*
X022339Y007172D01*
X022339Y007086D01*
X022332Y007093D01*
X022151Y007093D01*
X022023Y006965D01*
X022023Y006954D01*
X020703Y006954D01*
X020587Y006839D01*
X020526Y006778D01*
X020497Y006778D01*
X020398Y006679D01*
X020187Y006679D01*
X020166Y006700D01*
X020097Y006700D01*
X020172Y006774D01*
X020284Y006774D01*
X020412Y006902D01*
X020412Y007083D01*
X020284Y007211D01*
X020103Y007211D01*
X019975Y007083D01*
X019975Y006971D01*
X019782Y006777D01*
X019701Y006696D01*
X019701Y006227D01*
X019739Y006188D01*
X019739Y006076D01*
X019867Y005948D01*
X020048Y005948D01*
X020176Y006076D01*
X020176Y006257D01*
X020168Y006265D01*
X020187Y006283D01*
X020591Y006283D01*
X020649Y006341D01*
X020678Y006341D01*
X020806Y006469D01*
X020806Y006499D01*
X020866Y006559D01*
X022205Y006559D01*
X022302Y006656D01*
X022332Y006656D01*
X022339Y006663D01*
X022339Y005754D01*
X022262Y005754D01*
X022181Y005672D01*
X021632Y005124D01*
X020718Y005124D01*
X020639Y005203D01*
X020458Y005203D01*
X020378Y005124D01*
X019222Y005124D01*
X019143Y005203D01*
X018962Y005203D01*
X018834Y005076D01*
X018834Y005046D01*
X018686Y005046D01*
X018558Y004918D01*
X018558Y004737D01*
X018638Y004657D01*
X018638Y004612D01*
X018592Y004612D01*
X018513Y004692D01*
X018332Y004692D01*
X018245Y004605D01*
X018158Y004692D01*
X017977Y004692D01*
X017911Y004626D01*
X017911Y004791D01*
X017596Y005106D01*
X017481Y005222D01*
X015151Y005222D01*
X014936Y005007D01*
X014907Y005007D01*
X014779Y004879D01*
X014779Y004698D01*
X014907Y004570D01*
X014937Y004570D01*
X014703Y004336D01*
X012616Y004336D01*
X012616Y004894D01*
X012616Y004860D02*
X014779Y004860D01*
X014779Y004783D02*
X012616Y004783D01*
X012616Y004706D02*
X014779Y004706D01*
X014848Y004628D02*
X012616Y004628D01*
X012616Y004551D02*
X014918Y004551D01*
X014841Y004474D02*
X012616Y004474D01*
X012616Y004397D02*
X014764Y004397D01*
X014840Y004040D02*
X015273Y004473D01*
X014840Y004040D02*
X007832Y004040D01*
X007753Y004119D01*
X007871Y004355D02*
X008029Y004198D01*
X012477Y004198D01*
X011808Y004709D02*
X010312Y004709D01*
X010161Y004551D02*
X009349Y004551D01*
X009349Y004628D02*
X010094Y004628D01*
X010094Y004706D02*
X009349Y004706D01*
X009288Y004783D02*
X010094Y004783D01*
X010154Y004860D02*
X008197Y004860D01*
X008120Y004937D02*
X011840Y004937D01*
X011905Y005015D02*
X008042Y005015D01*
X007965Y005092D02*
X011905Y005092D01*
X011959Y005169D02*
X005824Y005169D01*
X005824Y005092D02*
X007381Y005092D01*
X007306Y005015D02*
X005824Y005015D01*
X005824Y004937D02*
X007234Y004937D01*
X007160Y004860D02*
X005824Y004860D01*
X005824Y004783D02*
X007086Y004783D01*
X007013Y004706D02*
X005824Y004706D01*
X005824Y004628D02*
X006939Y004628D01*
X006866Y004551D02*
X005824Y004551D01*
X005824Y004474D02*
X006792Y004474D01*
X006718Y004397D02*
X005824Y004397D01*
X005824Y004320D02*
X006645Y004320D01*
X007399Y004355D02*
X007871Y004355D01*
X008107Y004355D02*
X007871Y004591D01*
X007753Y004591D01*
X008107Y004355D02*
X010509Y004355D01*
X010588Y004434D01*
X010470Y004860D02*
X011763Y004860D01*
X011808Y004709D02*
X012123Y005024D01*
X012351Y005246D02*
X005824Y005246D01*
X005824Y005324D02*
X013204Y005324D01*
X013204Y005249D02*
X013332Y005121D01*
X013513Y005121D01*
X013592Y005201D01*
X014110Y005201D01*
X014582Y005673D01*
X015654Y005673D01*
X015733Y005593D01*
X015914Y005593D01*
X016042Y005721D01*
X016042Y005902D01*
X015914Y006030D01*
X015733Y006030D01*
X015654Y005951D01*
X014467Y005951D01*
X014386Y005869D01*
X013995Y005478D01*
X013592Y005478D01*
X013513Y005558D01*
X013332Y005558D01*
X013204Y005430D01*
X013204Y005249D01*
X013206Y005246D02*
X012604Y005246D01*
X012681Y005169D02*
X013284Y005169D01*
X013561Y005169D02*
X015098Y005169D01*
X015021Y005092D02*
X012696Y005092D01*
X012696Y005015D02*
X014944Y005015D01*
X014837Y004937D02*
X012660Y004937D01*
X013204Y005401D02*
X005824Y005401D01*
X005824Y005478D02*
X013252Y005478D01*
X013329Y005555D02*
X005824Y005555D01*
X005824Y005633D02*
X014149Y005633D01*
X014226Y005710D02*
X005824Y005710D01*
X005824Y005787D02*
X014304Y005787D01*
X014381Y005864D02*
X005824Y005864D01*
X005824Y005942D02*
X013299Y005942D01*
X013221Y006019D02*
X005824Y006019D01*
X005824Y006096D02*
X012435Y006096D01*
X012358Y006173D02*
X005824Y006173D01*
X005824Y006251D02*
X010785Y006251D01*
X010724Y006328D02*
X009011Y006328D01*
X009074Y006405D02*
X010724Y006405D01*
X010942Y006402D02*
X011139Y006599D01*
X012595Y006599D01*
X012753Y006757D01*
X013658Y006757D01*
X013737Y006678D01*
X013737Y006481D01*
X013952Y006482D02*
X015081Y006482D01*
X015003Y006559D02*
X013952Y006559D01*
X013952Y006637D02*
X014975Y006637D01*
X014975Y006714D02*
X013917Y006714D01*
X013422Y006599D02*
X013422Y006481D01*
X013422Y006127D01*
X013204Y006096D02*
X012677Y006096D01*
X012754Y006173D02*
X013204Y006173D01*
X012925Y006251D02*
X012775Y006251D01*
X012796Y006328D02*
X012893Y006328D01*
X012753Y006481D02*
X012556Y006284D01*
X012338Y006251D02*
X011099Y006251D01*
X011160Y006328D02*
X012338Y006328D01*
X012368Y006405D02*
X011160Y006405D01*
X010412Y006482D02*
X009074Y006482D01*
X008702Y006637D02*
X005824Y006637D01*
X005824Y006714D02*
X008906Y006714D01*
X008983Y006791D02*
X005824Y006791D01*
X005824Y006868D02*
X010280Y006868D01*
X010202Y006946D02*
X005824Y006946D01*
X005824Y007023D02*
X010125Y007023D01*
X010212Y007329D02*
X010531Y007009D01*
X010576Y007054D01*
X010626Y007054D01*
X010077Y007602D01*
X009228Y007602D01*
X009033Y007408D01*
X008952Y007327D01*
X008619Y007327D01*
X008621Y007325D01*
X010093Y007325D01*
X010097Y007329D01*
X010212Y007329D01*
X010270Y007409D02*
X009035Y007409D01*
X009112Y007486D02*
X010193Y007486D01*
X010116Y007564D02*
X009189Y007564D01*
X009170Y007741D02*
X008895Y007465D01*
X008540Y007465D01*
X008403Y007603D01*
X008403Y007741D01*
X009170Y007741D02*
X010135Y007741D01*
X010824Y007052D01*
X010942Y007052D01*
X010579Y007100D02*
X010440Y007100D01*
X010502Y007177D02*
X010363Y007177D01*
X010425Y007255D02*
X010286Y007255D01*
X010348Y007332D02*
X008957Y007332D01*
X008560Y007190D02*
X008284Y007465D01*
X007753Y007465D01*
X007535Y007486D02*
X007263Y007486D01*
X007258Y007409D02*
X007535Y007409D01*
X007578Y007332D02*
X007180Y007332D01*
X006908Y007332D02*
X005824Y007332D01*
X005824Y007409D02*
X006831Y007409D01*
X006826Y007486D02*
X005824Y007486D01*
X005824Y007564D02*
X006826Y007564D01*
X006872Y007641D02*
X005824Y007641D01*
X005824Y007718D02*
X006949Y007718D01*
X007153Y007795D02*
X005824Y007795D01*
X005824Y007873D02*
X007230Y007873D01*
X007307Y007950D02*
X005824Y007950D01*
X005824Y008027D02*
X007384Y008027D01*
X007462Y008104D02*
X005824Y008104D01*
X005824Y008182D02*
X007539Y008182D01*
X007616Y008259D02*
X005824Y008259D01*
X005824Y008336D02*
X007693Y008336D01*
X007771Y008413D02*
X005824Y008413D01*
X005824Y008490D02*
X007848Y008490D01*
X007456Y007718D02*
X007440Y007718D01*
X007505Y007641D02*
X007363Y007641D01*
X007285Y007564D02*
X007542Y007564D01*
X007655Y007255D02*
X005824Y007255D01*
X005824Y007177D02*
X008376Y007177D01*
X008453Y007100D02*
X005824Y007100D01*
X005824Y006559D02*
X008637Y006559D01*
X008637Y006482D02*
X005824Y006482D01*
X005824Y006405D02*
X008637Y006405D01*
X008700Y006328D02*
X005824Y006328D01*
X007851Y007255D02*
X008299Y007255D01*
X010155Y007190D02*
X010509Y006835D01*
X010666Y006835D01*
X010545Y007023D02*
X010518Y007023D01*
X012753Y006481D02*
X013107Y006481D01*
X013641Y006173D02*
X019739Y006173D01*
X019739Y006096D02*
X013641Y006096D01*
X013623Y006019D02*
X015722Y006019D01*
X015926Y006019D02*
X019796Y006019D01*
X020119Y006019D02*
X022339Y006019D01*
X022339Y006096D02*
X020176Y006096D01*
X020176Y006173D02*
X022339Y006173D01*
X022339Y006251D02*
X020176Y006251D01*
X019958Y006166D02*
X019840Y006284D01*
X019840Y006639D01*
X020194Y006993D01*
X020412Y007023D02*
X022080Y007023D01*
X022339Y007100D02*
X020396Y007100D01*
X020318Y007177D02*
X022344Y007177D01*
X022139Y007409D02*
X024227Y007409D01*
X024227Y007332D02*
X019050Y007332D01*
X018973Y007255D02*
X024230Y007255D01*
X024276Y007486D02*
X022217Y007486D01*
X022223Y007564D02*
X024353Y007564D01*
X024590Y007641D02*
X022223Y007641D01*
X022179Y007718D02*
X025252Y007718D01*
X025247Y007641D02*
X025252Y007641D01*
X025252Y007795D02*
X022102Y007795D01*
X021912Y007873D02*
X025252Y007873D01*
X025252Y007950D02*
X021835Y007950D01*
X021758Y008027D02*
X025252Y008027D01*
X025252Y008104D02*
X021680Y008104D01*
X021572Y008017D02*
X022005Y007583D01*
X021787Y007564D02*
X021751Y007564D01*
X021744Y007486D02*
X021793Y007486D01*
X021870Y007409D02*
X021667Y007409D01*
X021398Y007409D02*
X019246Y007409D01*
X019323Y007486D02*
X021321Y007486D01*
X021314Y007564D02*
X019369Y007564D01*
X019551Y007859D02*
X018304Y007859D01*
X018225Y007938D01*
X018344Y008174D02*
X018501Y008017D01*
X019237Y008017D01*
X019551Y008331D01*
X019891Y008331D02*
X020206Y008017D01*
X021572Y008017D01*
X021257Y007859D02*
X021532Y007583D01*
X021279Y007641D02*
X020086Y007641D01*
X020106Y007718D02*
X021202Y007718D01*
X021257Y007859D02*
X019891Y007859D01*
X020238Y008182D02*
X025252Y008182D01*
X025252Y008259D02*
X020160Y008259D01*
X020106Y008336D02*
X025252Y008336D01*
X025252Y008413D02*
X020106Y008413D01*
X020106Y008490D02*
X025252Y008490D01*
X025252Y008568D02*
X023953Y008568D01*
X024077Y008645D02*
X025252Y008645D01*
X024930Y007641D02*
X024907Y007641D01*
X022339Y006637D02*
X022283Y006637D01*
X022339Y006559D02*
X022206Y006559D01*
X022339Y006482D02*
X020806Y006482D01*
X020742Y006405D02*
X022339Y006405D01*
X022339Y006328D02*
X020635Y006328D01*
X020433Y006714D02*
X020111Y006714D01*
X020301Y006791D02*
X020539Y006791D01*
X020616Y006868D02*
X020378Y006868D01*
X020412Y006946D02*
X020694Y006946D01*
X020069Y007177D02*
X018041Y007177D01*
X017964Y007100D02*
X019992Y007100D01*
X019975Y007023D02*
X017887Y007023D01*
X017809Y006946D02*
X019950Y006946D01*
X019873Y006868D02*
X015924Y006868D01*
X015924Y006791D02*
X019796Y006791D01*
X019782Y006777D02*
X019782Y006777D01*
X019719Y006714D02*
X016018Y006714D01*
X016082Y006637D02*
X019701Y006637D01*
X019701Y006559D02*
X016082Y006559D01*
X016082Y006482D02*
X019701Y006482D01*
X019701Y006405D02*
X016017Y006405D01*
X015863Y006560D02*
X015312Y006560D01*
X015194Y006678D01*
X015709Y006405D02*
X013952Y006405D01*
X013952Y006328D02*
X019701Y006328D01*
X019701Y006251D02*
X013920Y006251D01*
X013546Y005942D02*
X014458Y005942D01*
X014525Y005812D02*
X015824Y005812D01*
X016042Y005787D02*
X022339Y005787D01*
X022339Y005864D02*
X016042Y005864D01*
X016003Y005942D02*
X022339Y005942D01*
X022219Y005710D02*
X016031Y005710D01*
X015954Y005633D02*
X022141Y005633D01*
X022064Y005555D02*
X014464Y005555D01*
X014387Y005478D02*
X021987Y005478D01*
X021910Y005401D02*
X014310Y005401D01*
X014233Y005324D02*
X021832Y005324D01*
X021755Y005246D02*
X014155Y005246D01*
X014052Y005339D02*
X014525Y005812D01*
X014542Y005633D02*
X015694Y005633D01*
X014072Y005555D02*
X013515Y005555D01*
X013422Y005339D02*
X014052Y005339D01*
X017534Y005169D02*
X018927Y005169D01*
X018850Y005092D02*
X017611Y005092D01*
X017688Y005015D02*
X018655Y005015D01*
X018578Y004937D02*
X017765Y004937D01*
X017843Y004860D02*
X018558Y004860D01*
X018558Y004783D02*
X017911Y004783D01*
X017911Y004706D02*
X018590Y004706D01*
X018576Y004628D02*
X018638Y004628D01*
X018777Y004591D02*
X018934Y004434D01*
X021178Y004434D01*
X021414Y004670D01*
X021520Y004670D01*
X021306Y004758D02*
X021276Y004728D01*
X021121Y004573D01*
X019815Y004573D01*
X019822Y004580D01*
X019822Y004761D01*
X019736Y004846D01*
X020378Y004846D01*
X020458Y004767D01*
X020639Y004767D01*
X020718Y004846D01*
X021306Y004846D01*
X021306Y004758D01*
X021306Y004783D02*
X020655Y004783D01*
X020441Y004783D02*
X019799Y004783D01*
X019822Y004706D02*
X021254Y004706D01*
X021177Y004628D02*
X019822Y004628D01*
X020548Y004985D02*
X019052Y004985D01*
X018777Y004828D02*
X018777Y004591D01*
X018619Y004473D02*
X018422Y004473D01*
X018619Y004473D02*
X018816Y004276D01*
X021441Y004276D01*
X021520Y004198D01*
X021860Y004198D02*
X022556Y004894D01*
X022556Y004946D01*
X022775Y004937D02*
X022852Y004937D01*
X022775Y004860D02*
X022929Y004860D01*
X023002Y004787D02*
X024414Y004787D01*
X024474Y004727D01*
X024654Y004727D01*
X024761Y004834D01*
X024867Y004727D01*
X025048Y004727D01*
X025176Y004855D01*
X025176Y005036D01*
X025096Y005116D01*
X025096Y005239D01*
X025015Y005321D01*
X024682Y005653D01*
X025235Y005653D01*
X025252Y005670D01*
X025252Y003982D01*
X022057Y003982D01*
X022074Y003999D01*
X022074Y004216D01*
X022586Y004727D01*
X022647Y004727D01*
X022775Y004855D01*
X022775Y005015D01*
X022775Y005015D01*
X023002Y004787D01*
X022702Y004783D02*
X024418Y004783D01*
X024710Y004783D02*
X024812Y004783D01*
X025104Y004783D02*
X025252Y004783D01*
X025252Y004860D02*
X025176Y004860D01*
X025176Y004937D02*
X025252Y004937D01*
X025252Y005015D02*
X025176Y005015D01*
X025120Y005092D02*
X025252Y005092D01*
X025252Y005169D02*
X025096Y005169D01*
X025089Y005246D02*
X025252Y005246D01*
X025252Y005324D02*
X025012Y005324D01*
X024935Y005401D02*
X025252Y005401D01*
X025252Y005478D02*
X024858Y005478D01*
X024780Y005555D02*
X025252Y005555D01*
X025252Y005633D02*
X024703Y005633D01*
X024525Y005615D02*
X024958Y005182D01*
X024958Y004946D01*
X025252Y004706D02*
X022564Y004706D01*
X022487Y004628D02*
X025252Y004628D01*
X025252Y004551D02*
X022410Y004551D01*
X022333Y004474D02*
X025252Y004474D01*
X025252Y004397D02*
X022255Y004397D01*
X022178Y004320D02*
X025252Y004320D01*
X025252Y004242D02*
X022101Y004242D01*
X022074Y004165D02*
X025252Y004165D01*
X025252Y004088D02*
X022074Y004088D01*
X022074Y004011D02*
X025252Y004011D01*
X022241Y004946D02*
X021966Y004670D01*
X021860Y004670D01*
X021690Y004985D02*
X020548Y004985D01*
X020423Y005169D02*
X019177Y005169D01*
X018269Y004628D02*
X018222Y004628D01*
X017914Y004628D02*
X017911Y004628D01*
X020141Y003624D02*
X020180Y003624D01*
X020180Y003547D02*
X020141Y003547D01*
X020141Y003470D02*
X020180Y003470D01*
X020180Y003393D02*
X020141Y003393D01*
X019948Y003393D02*
X019816Y003393D01*
X019505Y003393D02*
X019316Y003393D01*
X019393Y003470D02*
X019427Y003470D01*
X019265Y003006D02*
X019170Y003006D01*
X019248Y002929D02*
X019540Y002929D01*
X019483Y002852D02*
X019322Y002852D01*
X019322Y002775D02*
X019483Y002775D01*
X019883Y002620D02*
X019962Y002620D01*
X019962Y002543D02*
X019883Y002543D01*
X019883Y002466D02*
X019962Y002466D01*
X019962Y002388D02*
X019883Y002388D01*
X019883Y002311D02*
X019962Y002311D01*
X020194Y002190D02*
X020422Y002190D01*
X020922Y001690D01*
X021175Y002002D02*
X021236Y002002D01*
X021236Y002080D02*
X021097Y002080D01*
X021375Y002237D02*
X021375Y001402D01*
X021021Y001048D01*
X019210Y001048D01*
X019446Y000812D02*
X017595Y000812D01*
X018522Y002466D02*
X018581Y002466D01*
X018523Y002543D02*
X018522Y002543D01*
X018522Y002620D02*
X018523Y002620D01*
X018522Y002697D02*
X018523Y002697D01*
X018522Y002775D02*
X018523Y002775D01*
X018522Y002852D02*
X018523Y002852D01*
X018522Y002929D02*
X018597Y002929D01*
X018522Y003006D02*
X018674Y003006D01*
X020373Y003393D02*
X020621Y003393D01*
X020489Y003469D02*
X020489Y003469D01*
X020489Y003469D01*
X020488Y003470D02*
X020450Y003470D01*
X021690Y004985D02*
X022320Y005615D01*
X024525Y005615D01*
X021678Y005169D02*
X020673Y005169D01*
X018777Y007255D02*
X018118Y007255D01*
X018195Y007332D02*
X018700Y007332D01*
X017871Y007938D02*
X018107Y008174D01*
X018344Y008174D01*
X017792Y008489D02*
X017674Y008371D01*
X017202Y008371D01*
X017792Y008489D02*
X018777Y008489D01*
X018855Y008410D01*
D19*
X018855Y008410D03*
X018225Y007938D03*
X017871Y007938D03*
X017399Y007938D03*
X017084Y007938D03*
X016769Y007957D03*
X016454Y007957D03*
X015981Y008095D03*
X016277Y008233D03*
X017202Y008371D03*
X019151Y007623D03*
X018875Y007465D03*
X019347Y007347D03*
X019761Y007347D03*
X020194Y006993D03*
X020863Y007229D03*
X021611Y007269D03*
X022123Y007229D03*
X022241Y006875D03*
X022438Y007505D03*
X022005Y007583D03*
X021532Y007583D03*
X022989Y007505D03*
X023501Y007505D03*
X024092Y007505D03*
X024446Y007347D03*
X022044Y006206D03*
X021493Y006324D03*
X020588Y006560D03*
X020076Y006481D03*
X019958Y006166D03*
X019308Y006402D03*
X018186Y006206D03*
X017556Y006206D03*
X016926Y006206D03*
X015863Y006560D03*
X015706Y006835D03*
X015194Y006678D03*
X014761Y006678D03*
X015155Y006048D03*
X015824Y005812D03*
X015194Y005457D03*
X014052Y005772D03*
X013383Y005772D03*
X012792Y005772D03*
X013422Y006127D03*
X012556Y006284D03*
X011296Y006009D03*
X010942Y006402D03*
X010273Y006402D03*
X010666Y006835D03*
X011651Y006973D03*
X012123Y007111D03*
X011080Y007682D03*
X010962Y007977D03*
X011414Y008292D03*
X012556Y008292D03*
X009485Y008410D03*
X009131Y008410D03*
X008540Y008095D03*
X008225Y008095D03*
X007359Y008292D03*
X007674Y007780D03*
X007753Y007465D03*
X007044Y007505D03*
X006178Y007702D03*
X006178Y008213D03*
X007084Y006954D03*
X008855Y006481D03*
X007753Y006048D03*
X008186Y005930D03*
X008737Y005891D03*
X009249Y005851D03*
X010155Y005497D03*
X009603Y004946D03*
X009131Y004631D03*
X010312Y004709D03*
X010588Y004434D03*
X012084Y004434D03*
X012753Y004631D03*
X013225Y004631D03*
X012477Y005064D03*
X012123Y005024D03*
X013422Y005339D03*
X014997Y004788D03*
X015863Y004709D03*
X016296Y004709D03*
X015942Y004237D03*
X015469Y004237D03*
X017202Y004237D03*
X017399Y004552D03*
X017714Y004513D03*
X018068Y004473D03*
X018422Y004473D03*
X019052Y004670D03*
X018777Y004828D03*
X019052Y004985D03*
X019603Y004670D03*
X020588Y004670D03*
X020548Y004985D03*
X020036Y005418D03*
X021414Y005536D03*
X021847Y005536D03*
X022714Y005300D03*
X022556Y004946D03*
X022241Y004946D03*
X023698Y005300D03*
X024564Y004946D03*
X024958Y004946D03*
X025036Y005457D03*
X019407Y003174D03*
X020194Y002190D03*
X019446Y001363D03*
X019210Y001048D03*
X018698Y001206D03*
X018029Y001127D03*
X017438Y000969D03*
X019446Y000812D03*
X007753Y004119D03*
X007399Y004355D03*
X007753Y004591D03*
X006178Y004355D03*
X005273Y004552D03*
X006178Y004867D03*
X007202Y005339D03*
X007595Y005261D03*
X007241Y006087D03*
X016926Y005576D03*
X017556Y005576D03*
X018186Y005576D03*
X018186Y006835D03*
X017556Y006835D03*
X016926Y006835D03*
X020430Y008371D03*
X021021Y008371D03*
D20*
X006178Y007190D03*
X005233Y006954D03*
X005233Y006269D03*
X005233Y005576D03*
X006178Y005379D03*
D21*
X008855Y006481D02*
X009040Y006666D01*
X010410Y006666D01*
X010477Y006599D01*
X010804Y006599D01*
X010942Y006737D01*
X012477Y006737D01*
X012635Y006894D01*
X015647Y006894D01*
X015706Y006835D01*
X017399Y007465D02*
X017871Y007938D01*
X017399Y007938D02*
X017399Y007859D01*
X017143Y007603D01*
X011158Y007603D01*
X011080Y007682D01*
X011316Y007741D02*
X016946Y007741D01*
X017084Y007879D01*
X017084Y007938D01*
X016769Y007957D02*
X016769Y008095D01*
X016355Y008509D01*
X011631Y008509D01*
X011414Y008292D01*
X011336Y008076D02*
X011001Y008410D01*
X009485Y008410D01*
X009347Y008194D02*
X009131Y008410D01*
X008777Y008469D02*
X009190Y008056D01*
X010332Y008056D01*
X010922Y007465D01*
X017399Y007465D01*
X017615Y007328D02*
X010863Y007328D01*
X010273Y007918D01*
X009131Y007918D01*
X008718Y008331D01*
X008107Y008331D01*
X007674Y007898D01*
X007674Y007780D01*
X008088Y007741D02*
X008088Y007957D01*
X008225Y008095D01*
X008540Y008095D02*
X008718Y007918D01*
X008718Y007741D01*
X008403Y007741D02*
X008403Y007682D01*
X009347Y008194D02*
X011040Y008194D01*
X011355Y007879D01*
X016375Y007879D01*
X016454Y007957D01*
X015981Y008095D02*
X015962Y008076D01*
X011336Y008076D01*
X011080Y007977D02*
X011316Y007741D01*
X011080Y007977D02*
X010962Y007977D01*
X012556Y008292D02*
X012635Y008371D01*
X016139Y008371D01*
X016277Y008233D01*
X017615Y007328D02*
X018225Y007938D01*
X018186Y007702D02*
X019072Y007702D01*
X019151Y007623D01*
X018875Y007465D02*
X018147Y007465D01*
X017733Y007052D01*
X012595Y007052D01*
X012438Y006894D01*
X011729Y006894D01*
X011651Y006973D01*
X011434Y007190D02*
X011296Y007052D01*
X011434Y007190D02*
X012123Y007190D01*
X012123Y007111D01*
X012123Y007190D02*
X017674Y007190D01*
X018186Y007702D01*
X008777Y008469D02*
X008009Y008469D01*
X007044Y007505D01*
D22*
X008560Y007190D02*
X010155Y007190D01*
D23*
X005765Y004060D02*
X005273Y004552D01*
X005765Y004060D02*
X006670Y004060D01*
X007477Y004906D01*
X007871Y004906D01*
X008147Y004631D01*
X009131Y004631D01*
X010588Y004434D02*
X012084Y004434D01*
X014997Y004788D02*
X015233Y005024D01*
X017399Y005024D01*
X017714Y004709D01*
X017714Y004513D01*
X019052Y004670D02*
X019603Y004670D01*
X023698Y005300D02*
X024040Y005300D01*
X023816Y006442D02*
X025088Y006442D01*
X025088Y007387D01*
X024748Y007387D02*
X024485Y007387D01*
X024446Y007347D01*
X022241Y006875D02*
X022123Y006757D01*
X020784Y006757D01*
X020588Y006560D01*
X020509Y006481D01*
X020076Y006481D01*
D24*
X022714Y005300D02*
X023068Y004946D01*
X024564Y004946D01*
X024380Y005130D01*
X024380Y005300D01*
M02*
