G75*
%MOIN*%
%OFA0B0*%
%FSLAX24Y24*%
%IPPOS*%
%LPD*%
%AMOC8*
5,1,8,0,0,1.08239X$1,22.5*
%
%ADD10C,0.0020*%
%ADD11R,0.0700X0.0700*%
%ADD12R,0.0450X0.0450*%
%ADD13R,0.0280X0.0700*%
%ADD14R,0.0350X0.0560*%
%ADD15R,0.0098X0.0276*%
%ADD16R,0.0276X0.0098*%
%ADD17R,0.1024X0.1024*%
%ADD18C,0.0320*%
%ADD19R,0.0197X0.0236*%
%ADD20R,0.0236X0.0197*%
%ADD21R,0.0315X0.0709*%
%ADD22R,0.0276X0.0709*%
%ADD23R,0.0315X0.0315*%
%ADD24R,0.0472X0.0138*%
%ADD25R,0.0300X0.1000*%
%ADD26R,0.0350X0.0100*%
%ADD27R,0.0150X0.0175*%
%ADD28R,0.0141X0.0141*%
%ADD29R,0.0212X0.0212*%
%ADD30R,0.0315X0.0472*%
%ADD31R,0.0420X0.0140*%
%ADD32R,0.0140X0.0420*%
%ADD33R,0.1850X0.1850*%
%ADD34C,0.0276*%
%ADD35R,0.0276X0.0512*%
%ADD36R,0.0236X0.0157*%
%ADD37R,0.0157X0.0236*%
%ADD38R,0.0512X0.0276*%
%ADD39R,0.0197X0.0354*%
%ADD40R,0.0354X0.0197*%
%ADD41R,0.0787X0.0787*%
%ADD42R,0.0787X0.1654*%
%ADD43R,0.0315X0.0157*%
%ADD44R,0.0354X0.0315*%
%ADD45R,0.0591X0.1102*%
%ADD46OC8,0.0436*%
%ADD47OC8,0.0600*%
%ADD48R,0.1102X0.0591*%
%ADD49C,0.0079*%
%ADD50C,0.0238*%
%ADD51C,0.0118*%
%ADD52C,0.0157*%
%ADD53C,0.0138*%
%ADD54C,0.0472*%
%ADD55C,0.0059*%
%ADD56C,0.0197*%
%ADD57C,0.0098*%
%ADD58C,0.0236*%
%ADD59C,0.0315*%
%ADD60C,0.0160*%
D10*
X009810Y002180D02*
X009869Y002121D01*
X009928Y002180D01*
X009928Y002298D01*
X009991Y002210D02*
X010021Y002239D01*
X010080Y002239D01*
X010109Y002210D01*
X010109Y002180D01*
X009991Y002180D01*
X009991Y002151D02*
X009991Y002210D01*
X009991Y002151D02*
X010021Y002121D01*
X010080Y002121D01*
X010173Y002121D02*
X010173Y002239D01*
X010232Y002239D02*
X010261Y002239D01*
X010232Y002239D02*
X010173Y002180D01*
X010324Y002210D02*
X010353Y002239D01*
X010442Y002239D01*
X010505Y002239D02*
X010535Y002239D01*
X010535Y002121D01*
X010564Y002121D02*
X010505Y002121D01*
X010442Y002151D02*
X010412Y002180D01*
X010353Y002180D01*
X010324Y002210D01*
X010324Y002121D02*
X010412Y002121D01*
X010442Y002151D01*
X010626Y002151D02*
X010626Y002210D01*
X010655Y002239D01*
X010714Y002239D01*
X010744Y002210D01*
X010744Y002151D01*
X010714Y002121D01*
X010655Y002121D01*
X010626Y002151D01*
X010807Y002121D02*
X010807Y002239D01*
X010896Y002239D01*
X010925Y002210D01*
X010925Y002121D01*
X011170Y002151D02*
X011288Y002269D01*
X011288Y002151D01*
X011258Y002121D01*
X011199Y002121D01*
X011170Y002151D01*
X011170Y002269D01*
X011199Y002298D01*
X011258Y002298D01*
X011288Y002269D01*
X011351Y002269D02*
X011380Y002298D01*
X011439Y002298D01*
X011469Y002269D01*
X011469Y002239D01*
X011351Y002121D01*
X011469Y002121D01*
X011532Y002121D02*
X011562Y002121D01*
X011562Y002151D01*
X011532Y002151D01*
X011532Y002121D01*
X011804Y002121D02*
X011804Y002298D01*
X011922Y002121D01*
X011922Y002298D01*
X011985Y002210D02*
X011985Y002151D01*
X012015Y002121D01*
X012074Y002121D01*
X012103Y002151D01*
X012103Y002210D01*
X012074Y002239D01*
X012015Y002239D01*
X011985Y002210D01*
X012167Y002239D02*
X012226Y002121D01*
X012285Y002239D01*
X012348Y002210D02*
X012377Y002239D01*
X012436Y002239D01*
X012466Y002210D01*
X012466Y002180D01*
X012348Y002180D01*
X012348Y002151D02*
X012348Y002210D01*
X012348Y002151D02*
X012377Y002121D01*
X012436Y002121D01*
X012529Y002121D02*
X012529Y002239D01*
X012559Y002239D01*
X012588Y002210D01*
X012618Y002239D01*
X012647Y002210D01*
X012647Y002121D01*
X012588Y002121D02*
X012588Y002210D01*
X012710Y002239D02*
X012799Y002239D01*
X012828Y002210D01*
X012828Y002151D01*
X012799Y002121D01*
X012710Y002121D01*
X012710Y002298D01*
X012892Y002210D02*
X012921Y002239D01*
X012980Y002239D01*
X013010Y002210D01*
X013010Y002180D01*
X012892Y002180D01*
X012892Y002151D02*
X012892Y002210D01*
X012892Y002151D02*
X012921Y002121D01*
X012980Y002121D01*
X013073Y002121D02*
X013073Y002239D01*
X013132Y002239D02*
X013161Y002239D01*
X013132Y002239D02*
X013073Y002180D01*
X013405Y002121D02*
X013523Y002239D01*
X013523Y002269D01*
X013494Y002298D01*
X013435Y002298D01*
X013405Y002269D01*
X013586Y002269D02*
X013616Y002298D01*
X013675Y002298D01*
X013704Y002269D01*
X013586Y002151D01*
X013616Y002121D01*
X013675Y002121D01*
X013704Y002151D01*
X013704Y002269D01*
X013768Y002239D02*
X013827Y002298D01*
X013827Y002121D01*
X013768Y002121D02*
X013886Y002121D01*
X013949Y002151D02*
X013978Y002121D01*
X014037Y002121D01*
X014067Y002151D01*
X014067Y002210D01*
X014037Y002239D01*
X014008Y002239D01*
X013949Y002210D01*
X013949Y002298D01*
X014067Y002298D01*
X013586Y002269D02*
X013586Y002151D01*
X013523Y002121D02*
X013405Y002121D01*
X010535Y002298D02*
X010535Y002328D01*
X009810Y002298D02*
X009810Y002180D01*
D11*
X011989Y006363D03*
X013989Y006363D03*
X013989Y008017D03*
X011989Y008017D03*
D12*
X012989Y008167D03*
X012989Y006213D03*
D13*
X012989Y006740D03*
X012989Y007640D03*
D14*
X012489Y007590D03*
X013489Y007590D03*
X013489Y006790D03*
X012489Y006790D03*
D15*
X009918Y006402D03*
X009721Y006402D03*
X009525Y006402D03*
X009328Y006402D03*
X009131Y006402D03*
X009131Y007977D03*
X009328Y007977D03*
X009525Y007977D03*
X009721Y007977D03*
X009918Y007977D03*
D16*
X010312Y007583D03*
X010312Y007387D03*
X010312Y007190D03*
X010312Y006993D03*
X010312Y006796D03*
X008737Y006796D03*
X008737Y006993D03*
X008737Y007190D03*
X008737Y007387D03*
X008737Y007583D03*
D17*
X009525Y007190D03*
D18*
X009781Y007446D03*
X009269Y007446D03*
X009269Y006934D03*
X009781Y006934D03*
D19*
X007969Y007190D03*
X006828Y007190D03*
X006828Y007780D03*
X007969Y007780D03*
X007969Y008371D03*
X006828Y008371D03*
D20*
X007399Y007190D03*
D21*
X021966Y008135D03*
X022399Y008135D03*
X022832Y008135D03*
X023265Y008135D03*
X023698Y008135D03*
X024131Y008135D03*
X024564Y008135D03*
X024564Y004394D03*
X024131Y004394D03*
X023698Y004394D03*
X023265Y004394D03*
X022832Y004394D03*
X022399Y004394D03*
X021966Y004394D03*
D22*
X021552Y004394D03*
X024977Y004394D03*
X024977Y008135D03*
X021552Y008135D03*
D23*
X020548Y007524D03*
X020548Y006934D03*
X008481Y006481D03*
X007891Y006481D03*
D24*
X011601Y004896D03*
X011601Y004641D03*
X011601Y004385D03*
X011601Y004129D03*
X013905Y004129D03*
X013905Y004385D03*
X013905Y004641D03*
X013905Y004896D03*
D25*
X011048Y004631D03*
X010048Y004631D03*
D26*
X010173Y005181D03*
X010923Y005181D03*
X010923Y004081D03*
X010173Y004081D03*
D27*
X010273Y004218D03*
X010823Y004218D03*
X010823Y005043D03*
X010273Y005043D03*
D28*
G36*
X010096Y005131D02*
X009998Y005033D01*
X009900Y005131D01*
X009998Y005229D01*
X010096Y005131D01*
G37*
G36*
X011001Y005131D02*
X011099Y005229D01*
X011197Y005131D01*
X011099Y005033D01*
X011001Y005131D01*
G37*
G36*
X011001Y004130D02*
X011099Y004228D01*
X011197Y004130D01*
X011099Y004032D01*
X011001Y004130D01*
G37*
G36*
X010096Y004130D02*
X009998Y004032D01*
X009900Y004130D01*
X009998Y004228D01*
X010096Y004130D01*
G37*
D29*
G36*
X010347Y004307D02*
X010198Y004158D01*
X010049Y004307D01*
X010198Y004456D01*
X010347Y004307D01*
G37*
G36*
X010749Y004307D02*
X010898Y004456D01*
X011047Y004307D01*
X010898Y004158D01*
X010749Y004307D01*
G37*
G36*
X010749Y004955D02*
X010898Y005104D01*
X011047Y004955D01*
X010898Y004806D01*
X010749Y004955D01*
G37*
G36*
X010347Y004955D02*
X010198Y004806D01*
X010049Y004955D01*
X010198Y005104D01*
X010347Y004955D01*
G37*
D30*
X010194Y005969D03*
X010903Y005969D03*
D31*
X016246Y006076D03*
X016246Y006336D03*
X016246Y006586D03*
X016246Y006846D03*
X016246Y007106D03*
X018866Y007106D03*
X018866Y006846D03*
X018866Y006586D03*
X018866Y006336D03*
X018866Y006076D03*
X018866Y005826D03*
X018866Y005566D03*
X018866Y005306D03*
X016246Y005306D03*
X016246Y005566D03*
X016246Y005826D03*
D32*
X016656Y004896D03*
X016916Y004896D03*
X017176Y004896D03*
X017426Y004896D03*
X017686Y004896D03*
X017936Y004896D03*
X018196Y004896D03*
X018456Y004896D03*
X018456Y007516D03*
X018196Y007516D03*
X017936Y007516D03*
X017686Y007516D03*
X017426Y007516D03*
X017176Y007516D03*
X016916Y007516D03*
X016656Y007516D03*
D33*
X017556Y006206D03*
D34*
X019485Y005694D03*
X019682Y005339D03*
D35*
X012182Y005497D03*
X011513Y005497D03*
D36*
X009761Y005595D03*
X009761Y005950D03*
X007517Y006422D03*
X006847Y006186D03*
X006847Y005831D03*
X006847Y005517D03*
X006847Y005162D03*
X007517Y006776D03*
X014367Y004454D03*
X014761Y004454D03*
X015155Y004454D03*
X015155Y004099D03*
X014761Y004099D03*
X014367Y004099D03*
X014761Y006028D03*
X014761Y006383D03*
X015430Y007249D03*
X015430Y007603D03*
X015430Y007918D03*
X015430Y008272D03*
X019643Y006776D03*
X019643Y006422D03*
X020942Y006580D03*
X020942Y006934D03*
X020942Y007524D03*
X020942Y007879D03*
D37*
X018560Y008253D03*
X018206Y008253D03*
X017891Y008253D03*
X017536Y008253D03*
X015095Y008213D03*
X014741Y008213D03*
X014741Y007820D03*
X015095Y007820D03*
X015095Y007426D03*
X014741Y007426D03*
X014741Y007032D03*
X015095Y007032D03*
X011277Y006954D03*
X010922Y006954D03*
X010922Y007347D03*
X011277Y007347D03*
X008757Y008410D03*
X008403Y008410D03*
X007162Y006560D03*
X006808Y006560D03*
X008353Y005270D03*
X008708Y005270D03*
X009318Y005270D03*
X009672Y005270D03*
X010568Y005497D03*
X010922Y005497D03*
X012812Y005339D03*
X013166Y005339D03*
X013678Y005339D03*
X014032Y005339D03*
X017418Y004237D03*
X017773Y004237D03*
X019347Y004985D03*
X019702Y004985D03*
X019899Y004631D03*
X020253Y004631D03*
X019662Y006048D03*
X019308Y006048D03*
X020332Y006245D03*
X020686Y006245D03*
X008845Y004877D03*
X008491Y004877D03*
X018442Y000851D03*
X018796Y000851D03*
X019741Y000851D03*
X020095Y000851D03*
D38*
X014564Y004808D03*
X014564Y005477D03*
D39*
X011237Y006481D03*
X010647Y006481D03*
D40*
X006926Y004769D03*
X006926Y004178D03*
D41*
X006178Y006269D03*
D42*
X006178Y004852D03*
X006178Y007687D03*
D43*
X007399Y004654D03*
X008107Y004654D03*
X008107Y004394D03*
X008107Y004134D03*
X007399Y004134D03*
D44*
X020076Y005044D03*
X020903Y005418D03*
X020076Y005792D03*
D45*
X005273Y004552D03*
X005273Y007977D03*
D46*
X015660Y003686D03*
X016160Y003686D03*
X016660Y003686D03*
X017160Y003686D03*
X017660Y003686D03*
X018160Y003686D03*
X018660Y003686D03*
X019160Y003686D03*
X019660Y003686D03*
X020160Y003686D03*
D47*
X019922Y002690D03*
X018922Y002690D03*
X017922Y002690D03*
X016922Y002690D03*
X015922Y002690D03*
X015922Y001690D03*
X016922Y001690D03*
X017922Y001690D03*
X018922Y001690D03*
X019922Y001690D03*
X020922Y001690D03*
X020922Y002690D03*
D48*
X024702Y009119D03*
D49*
X024821Y008686D02*
X025252Y008686D01*
X025252Y008517D01*
X025245Y008543D01*
X025227Y008575D01*
X025201Y008600D01*
X025169Y008619D01*
X025134Y008628D01*
X025007Y008628D01*
X025007Y008164D01*
X024948Y008164D01*
X024948Y008628D01*
X024821Y008628D01*
X024821Y008686D01*
X024821Y008645D02*
X025252Y008645D01*
X025252Y008568D02*
X025231Y008568D01*
X025007Y008568D02*
X024948Y008568D01*
X024948Y008490D02*
X025007Y008490D01*
X025007Y008413D02*
X024948Y008413D01*
X024948Y008336D02*
X025007Y008336D01*
X025007Y008259D02*
X024948Y008259D01*
X024948Y008182D02*
X025007Y008182D01*
X025007Y008105D02*
X025007Y007641D01*
X025134Y007641D01*
X025169Y007650D01*
X025201Y007669D01*
X025227Y007695D01*
X025245Y007727D01*
X025252Y007753D01*
X025252Y003982D01*
X025198Y003982D01*
X025215Y003999D01*
X025215Y004790D01*
X025163Y004842D01*
X025176Y004855D01*
X025176Y005036D01*
X025048Y005164D01*
X024867Y005164D01*
X024761Y005058D01*
X024654Y005164D01*
X024474Y005164D01*
X024346Y005036D01*
X024346Y004855D01*
X024359Y004842D01*
X024347Y004830D01*
X024330Y004848D01*
X023932Y004848D01*
X023914Y004830D01*
X023896Y004848D01*
X023896Y005189D01*
X023916Y005210D01*
X023916Y005390D01*
X023896Y005411D01*
X023896Y005500D01*
X023780Y005616D01*
X023387Y006009D01*
X024507Y007129D01*
X024536Y007129D01*
X024664Y007257D01*
X024664Y007438D01*
X024536Y007566D01*
X024355Y007566D01*
X024227Y007438D01*
X024227Y007409D01*
X022139Y007409D01*
X022175Y007445D02*
X022181Y007445D01*
X022262Y007526D01*
X022417Y007681D01*
X022597Y007681D01*
X022615Y007699D01*
X022633Y007681D01*
X023030Y007681D01*
X023048Y007699D01*
X023066Y007681D01*
X023463Y007681D01*
X023481Y007699D01*
X023499Y007681D01*
X023876Y007681D01*
X023888Y007669D01*
X023920Y007650D01*
X023955Y007641D01*
X024092Y007641D01*
X024092Y008095D01*
X024170Y008095D01*
X024170Y007641D01*
X024307Y007641D01*
X024342Y007650D01*
X024374Y007669D01*
X024386Y007681D01*
X024742Y007681D01*
X024754Y007669D01*
X024786Y007650D01*
X024821Y007641D01*
X024948Y007641D01*
X024948Y008105D01*
X025007Y008105D01*
X025007Y008104D02*
X024948Y008104D01*
X024948Y008027D02*
X025007Y008027D01*
X025007Y007950D02*
X024948Y007950D01*
X024948Y007873D02*
X025007Y007873D01*
X025007Y007795D02*
X024948Y007795D01*
X024948Y007718D02*
X025007Y007718D01*
X025240Y007718D02*
X025252Y007718D01*
X025252Y007641D02*
X022377Y007641D01*
X022299Y007564D02*
X024353Y007564D01*
X024276Y007486D02*
X022222Y007486D01*
X022175Y007445D02*
X022095Y007365D01*
X021914Y007365D01*
X021787Y007493D01*
X021787Y007503D01*
X021728Y007445D01*
X021703Y007445D01*
X021623Y007365D01*
X021442Y007365D01*
X021314Y007493D01*
X021314Y007674D01*
X021347Y007707D01*
X021315Y007739D01*
X021315Y008530D01*
X021342Y008557D01*
X019018Y008557D01*
X019074Y008501D01*
X019074Y008320D01*
X018994Y008240D01*
X018994Y008117D01*
X018625Y007748D01*
X018625Y007275D01*
X018737Y007275D01*
X018737Y007294D01*
X018657Y007375D01*
X018657Y007556D01*
X018785Y007684D01*
X018932Y007684D01*
X018932Y007713D01*
X019060Y007841D01*
X019241Y007841D01*
X019321Y007762D01*
X019976Y007762D01*
X020251Y007486D01*
X020291Y007486D01*
X020291Y007446D02*
X020251Y007486D01*
X020291Y007446D02*
X020291Y007723D01*
X020350Y007781D01*
X020609Y007781D01*
X020724Y007897D01*
X020724Y007999D01*
X020783Y008057D01*
X021101Y008057D01*
X021159Y007999D01*
X021159Y007759D01*
X021102Y007702D01*
X021159Y007644D01*
X021159Y007494D01*
X021495Y007132D01*
X021826Y007132D01*
X021907Y007050D01*
X022023Y006935D01*
X022023Y006965D01*
X022151Y007093D01*
X022332Y007093D01*
X022460Y006965D01*
X022460Y006936D01*
X023107Y006288D01*
X024227Y007409D01*
X024151Y007332D02*
X021309Y007332D01*
X021238Y007409D02*
X021398Y007409D01*
X021321Y007486D02*
X021166Y007486D01*
X021159Y007564D02*
X021314Y007564D01*
X021314Y007641D02*
X021159Y007641D01*
X021119Y007718D02*
X021336Y007718D01*
X021315Y007795D02*
X021159Y007795D01*
X021159Y007873D02*
X021315Y007873D01*
X021315Y007950D02*
X021159Y007950D01*
X021131Y008027D02*
X021315Y008027D01*
X021315Y008104D02*
X018982Y008104D01*
X018994Y008182D02*
X021315Y008182D01*
X021315Y008259D02*
X019013Y008259D01*
X019074Y008336D02*
X021315Y008336D01*
X021315Y008413D02*
X019074Y008413D01*
X019074Y008490D02*
X021315Y008490D01*
X021966Y008135D02*
X021966Y007879D01*
X021670Y007583D01*
X021532Y007583D01*
X021769Y007486D02*
X021793Y007486D01*
X021870Y007409D02*
X021667Y007409D01*
X021452Y007177D02*
X023996Y007177D01*
X023919Y007100D02*
X021858Y007100D01*
X021935Y007023D02*
X022080Y007023D01*
X022023Y006946D02*
X022012Y006946D01*
X021769Y006993D02*
X021434Y006993D01*
X020942Y007524D01*
X020918Y007346D02*
X020805Y007346D01*
X020805Y007326D01*
X020747Y007268D01*
X020350Y007268D01*
X020333Y007285D01*
X020333Y007174D01*
X020350Y007191D01*
X020747Y007191D01*
X020790Y007148D01*
X020805Y007152D01*
X020942Y007152D01*
X020942Y006934D01*
X020942Y006934D01*
X021199Y006934D01*
X021199Y007031D01*
X021195Y007047D01*
X021295Y006939D01*
X021295Y006935D01*
X021334Y006897D01*
X021371Y006856D01*
X021374Y006856D01*
X021377Y006854D01*
X021431Y006854D01*
X021486Y006852D01*
X021488Y006854D01*
X021711Y006854D01*
X023165Y005400D01*
X023165Y005200D01*
X022814Y004848D01*
X022768Y004848D01*
X022775Y004855D01*
X022775Y005036D01*
X022729Y005082D01*
X022804Y005082D01*
X022932Y005210D01*
X022932Y005390D01*
X022804Y005518D01*
X022719Y005518D01*
X022281Y005956D01*
X022189Y006049D01*
X021100Y006049D01*
X021100Y006401D01*
X021101Y006401D01*
X021159Y006460D01*
X021159Y006699D01*
X021126Y006732D01*
X021146Y006744D01*
X021172Y006770D01*
X021190Y006801D01*
X021199Y006837D01*
X021199Y006934D01*
X020942Y006934D01*
X020942Y006934D01*
X020942Y007152D01*
X021078Y007152D01*
X021104Y007145D01*
X020918Y007346D01*
X020931Y007332D02*
X020805Y007332D01*
X020760Y007177D02*
X021074Y007177D01*
X021003Y007255D02*
X020333Y007255D01*
X020333Y007177D02*
X020336Y007177D01*
X020194Y007347D02*
X020194Y006993D01*
X020055Y007163D02*
X019975Y007083D01*
X019975Y007053D01*
X019858Y007171D01*
X019231Y007171D01*
X019175Y007116D01*
X019175Y007217D01*
X019117Y007275D01*
X018995Y007275D01*
X018995Y007276D01*
X019093Y007375D01*
X019093Y007404D01*
X019241Y007404D01*
X019321Y007484D01*
X019861Y007484D01*
X020055Y007290D01*
X020055Y007163D01*
X020055Y007177D02*
X019175Y007177D01*
X019138Y007255D02*
X020055Y007255D01*
X020013Y007332D02*
X019050Y007332D01*
X019246Y007409D02*
X019936Y007409D01*
X019918Y007623D02*
X020194Y007347D01*
X020174Y007564D02*
X020291Y007564D01*
X020291Y007641D02*
X020097Y007641D01*
X020019Y007718D02*
X020291Y007718D01*
X019918Y007623D02*
X019151Y007623D01*
X018937Y007718D02*
X018625Y007718D01*
X018625Y007641D02*
X018742Y007641D01*
X018664Y007564D02*
X018625Y007564D01*
X018625Y007486D02*
X018657Y007486D01*
X018657Y007409D02*
X018625Y007409D01*
X018625Y007332D02*
X018700Y007332D01*
X018456Y007516D02*
X018456Y007775D01*
X018855Y008174D01*
X018855Y008410D01*
X018560Y008351D02*
X018422Y008489D01*
X017674Y008489D01*
X017536Y008351D01*
X017536Y008253D01*
X017536Y008154D01*
X017635Y008056D01*
X017635Y007820D01*
X017686Y007768D01*
X017686Y007516D01*
X017936Y007516D02*
X017936Y007873D01*
X017871Y007938D01*
X017891Y007957D01*
X017891Y008253D01*
X018206Y008253D02*
X018206Y007957D01*
X018225Y007938D01*
X018196Y007909D01*
X018196Y007516D01*
X018673Y007795D02*
X019014Y007795D01*
X018827Y007950D02*
X020724Y007950D01*
X020700Y007873D02*
X018750Y007873D01*
X018905Y008027D02*
X020753Y008027D01*
X020903Y007879D02*
X020548Y007524D01*
X020623Y007795D02*
X019287Y007795D01*
X018560Y008253D02*
X018560Y008351D01*
X017426Y007910D02*
X017399Y007938D01*
X017426Y007910D02*
X017426Y007516D01*
X017176Y007516D02*
X017176Y007845D01*
X017084Y007938D01*
X016916Y007712D02*
X016916Y007516D01*
X016656Y007516D02*
X016656Y007696D01*
X016454Y007898D01*
X016454Y007957D01*
X016769Y007957D02*
X016769Y007859D01*
X016916Y007712D01*
X016656Y007516D02*
X016645Y007505D01*
X016656Y007516D02*
X016651Y007521D01*
X017517Y007206D02*
X017517Y006245D01*
X017595Y006245D01*
X017595Y007206D01*
X017575Y007206D01*
X017556Y007225D01*
X017537Y007206D01*
X017517Y007206D01*
X017517Y007177D02*
X017595Y007177D01*
X017595Y007100D02*
X017517Y007100D01*
X017517Y007023D02*
X017595Y007023D01*
X017595Y006946D02*
X017517Y006946D01*
X017517Y006868D02*
X017595Y006868D01*
X017595Y006791D02*
X017517Y006791D01*
X017517Y006714D02*
X017595Y006714D01*
X017595Y006637D02*
X017517Y006637D01*
X017517Y006559D02*
X017595Y006559D01*
X017595Y006482D02*
X017517Y006482D01*
X017517Y006405D02*
X017595Y006405D01*
X017595Y006328D02*
X017517Y006328D01*
X017517Y006251D02*
X017595Y006251D01*
X017595Y006245D02*
X018557Y006245D01*
X018557Y006224D01*
X018576Y006206D01*
X018557Y006187D01*
X018557Y006166D01*
X017595Y006166D01*
X017595Y005205D01*
X017575Y005205D01*
X017556Y005186D01*
X017537Y005205D01*
X017517Y005205D01*
X017517Y006166D01*
X017595Y006166D01*
X017595Y006245D01*
X017595Y006173D02*
X018557Y006173D01*
X018866Y006076D02*
X019257Y006076D01*
X019308Y006048D01*
X019662Y006048D02*
X019781Y006166D01*
X019958Y006166D01*
X020115Y005930D02*
X020292Y006107D01*
X020332Y006245D01*
X020332Y006580D01*
X020194Y006717D01*
X020115Y006717D01*
X019800Y007032D01*
X019288Y007032D01*
X019102Y006846D01*
X018866Y006846D01*
X018866Y006586D02*
X019117Y006586D01*
X019308Y006776D01*
X019643Y006776D01*
X019781Y006776D01*
X020076Y006481D01*
X020588Y006560D02*
X020588Y006894D01*
X020548Y006934D01*
X020942Y006946D02*
X020942Y006946D01*
X020942Y007023D02*
X020942Y007023D01*
X020942Y007100D02*
X020942Y007100D01*
X021199Y007023D02*
X021217Y007023D01*
X021199Y006946D02*
X021289Y006946D01*
X021360Y006868D02*
X021199Y006868D01*
X021184Y006791D02*
X021774Y006791D01*
X021851Y006714D02*
X021145Y006714D01*
X021159Y006637D02*
X021929Y006637D01*
X022006Y006559D02*
X021159Y006559D01*
X021159Y006482D02*
X022083Y006482D01*
X022160Y006405D02*
X021105Y006405D01*
X021100Y006328D02*
X022238Y006328D01*
X022315Y006251D02*
X021100Y006251D01*
X021100Y006173D02*
X022392Y006173D01*
X022469Y006096D02*
X021100Y006096D01*
X020115Y005930D02*
X020076Y005792D01*
X020272Y005535D02*
X019878Y005535D01*
X019897Y005516D01*
X019928Y005471D01*
X019949Y005420D01*
X019959Y005369D01*
X019712Y005369D01*
X019712Y005310D01*
X019959Y005310D01*
X019957Y005301D01*
X020053Y005301D01*
X020272Y005520D01*
X020272Y005535D01*
X020230Y005478D02*
X019923Y005478D01*
X019952Y005401D02*
X020153Y005401D01*
X020076Y005324D02*
X019712Y005324D01*
X019347Y005359D02*
X019347Y004985D01*
X019347Y004611D01*
X019160Y004424D01*
X019160Y003686D01*
X019160Y002928D01*
X018922Y002690D01*
X019407Y002505D02*
X019407Y003174D01*
X019660Y003432D02*
X019918Y003174D01*
X020438Y003174D01*
X020922Y002690D01*
X021322Y002697D02*
X021433Y002697D01*
X021433Y002620D02*
X021322Y002620D01*
X021322Y002543D02*
X021433Y002543D01*
X021433Y002466D02*
X021263Y002466D01*
X021322Y002524D02*
X021322Y002855D01*
X021088Y003089D01*
X020757Y003089D01*
X020738Y003070D01*
X020495Y003313D01*
X019976Y003313D01*
X019856Y003432D01*
X019882Y003459D01*
X020012Y003328D01*
X020141Y003328D01*
X020141Y003666D01*
X020180Y003666D01*
X020180Y003328D01*
X020309Y003328D01*
X020474Y003494D01*
X020489Y003469D01*
X020626Y003390D01*
X021433Y003390D01*
X021433Y000675D01*
X020302Y000675D01*
X020304Y000679D01*
X020314Y000715D01*
X020314Y000851D01*
X020095Y000851D01*
X020095Y001109D01*
X019998Y001109D01*
X019963Y001099D01*
X019931Y001081D01*
X019905Y001055D01*
X019894Y001036D01*
X019861Y001069D01*
X019621Y001069D01*
X019563Y001010D01*
X019563Y001004D01*
X019536Y001030D01*
X019428Y001030D01*
X019428Y001139D01*
X019300Y001266D01*
X019119Y001266D01*
X019039Y001187D01*
X018936Y001187D01*
X018854Y001105D01*
X018818Y001069D01*
X018676Y001069D01*
X018619Y001011D01*
X018581Y001050D01*
X018581Y001467D01*
X018757Y001290D01*
X019088Y001290D01*
X019322Y001524D01*
X019322Y001855D01*
X019126Y002051D01*
X019365Y002051D01*
X019542Y001874D01*
X019523Y001855D01*
X019523Y001524D01*
X019757Y001290D01*
X020088Y001290D01*
X020322Y001524D01*
X020322Y001855D01*
X020205Y001971D01*
X020284Y001971D01*
X020412Y002099D01*
X020412Y002280D01*
X020284Y002408D01*
X020262Y002408D01*
X020362Y002508D01*
X020362Y002650D01*
X019962Y002650D01*
X019962Y002729D01*
X020362Y002729D01*
X020362Y002872D01*
X020198Y003035D01*
X020381Y003035D01*
X020542Y002874D01*
X020523Y002855D01*
X020523Y002524D01*
X020757Y002290D01*
X021088Y002290D01*
X021322Y002524D01*
X021433Y002388D02*
X021186Y002388D01*
X021109Y002311D02*
X021433Y002311D01*
X021433Y002234D02*
X020412Y002234D01*
X020412Y002157D02*
X021433Y002157D01*
X021433Y002080D02*
X021097Y002080D01*
X021088Y002089D02*
X020757Y002089D01*
X020523Y001855D01*
X020523Y001524D01*
X020757Y001290D01*
X021088Y001290D01*
X021322Y001524D01*
X021322Y001855D01*
X021088Y002089D01*
X021175Y002002D02*
X021433Y002002D01*
X021433Y001925D02*
X021252Y001925D01*
X021322Y001848D02*
X021433Y001848D01*
X021433Y001771D02*
X021322Y001771D01*
X021322Y001693D02*
X021433Y001693D01*
X021433Y001616D02*
X021322Y001616D01*
X021322Y001539D02*
X021433Y001539D01*
X021433Y001462D02*
X021259Y001462D01*
X021182Y001384D02*
X021433Y001384D01*
X021433Y001307D02*
X021104Y001307D01*
X020740Y001307D02*
X020104Y001307D01*
X020182Y001384D02*
X020663Y001384D01*
X020586Y001462D02*
X020259Y001462D01*
X020322Y001539D02*
X020523Y001539D01*
X020523Y001616D02*
X020322Y001616D01*
X020322Y001693D02*
X020523Y001693D01*
X020523Y001771D02*
X020322Y001771D01*
X020322Y001848D02*
X020523Y001848D01*
X020593Y001925D02*
X020252Y001925D01*
X020315Y002002D02*
X020670Y002002D01*
X020747Y002080D02*
X020393Y002080D01*
X020194Y002190D02*
X019721Y002190D01*
X019407Y002505D01*
X019922Y002690D02*
X020166Y002690D01*
X020430Y002426D01*
X020430Y001186D01*
X020095Y000851D01*
X020095Y000851D01*
X020095Y001109D01*
X020193Y001109D01*
X020228Y001099D01*
X020260Y001081D01*
X020286Y001055D01*
X020304Y001023D01*
X020314Y000988D01*
X020314Y000851D01*
X020095Y000851D01*
X020095Y000851D01*
X020095Y000921D02*
X020095Y000921D01*
X020095Y000998D02*
X020095Y000998D01*
X020095Y001075D02*
X020095Y001075D01*
X019926Y001075D02*
X019428Y001075D01*
X019414Y001153D02*
X021433Y001153D01*
X021433Y001230D02*
X019337Y001230D01*
X019182Y001384D02*
X019663Y001384D01*
X019740Y001307D02*
X019104Y001307D01*
X019083Y001230D02*
X018581Y001230D01*
X018581Y001307D02*
X018740Y001307D01*
X018663Y001384D02*
X018581Y001384D01*
X018581Y001462D02*
X018586Y001462D01*
X018303Y001462D02*
X018259Y001462D01*
X018303Y001506D02*
X018303Y001050D01*
X018264Y001010D01*
X018264Y000692D01*
X018281Y000675D01*
X015411Y000675D01*
X015411Y003486D01*
X015529Y003368D01*
X015551Y003368D01*
X015603Y003317D01*
X015791Y003129D01*
X015740Y003129D01*
X015483Y002872D01*
X015483Y002729D01*
X015883Y002729D01*
X015883Y002650D01*
X015962Y002650D01*
X015962Y002729D01*
X016362Y002729D01*
X016362Y002794D01*
X016523Y002633D01*
X016523Y002524D01*
X016757Y002290D01*
X017088Y002290D01*
X017107Y002309D01*
X017299Y002117D01*
X017299Y001934D01*
X017104Y002129D01*
X016962Y002129D01*
X016962Y001729D01*
X016883Y001729D01*
X016883Y001650D01*
X016962Y001650D01*
X016962Y001250D01*
X017104Y001250D01*
X017299Y001445D01*
X017299Y001139D01*
X017220Y001060D01*
X017220Y000879D01*
X017348Y000751D01*
X017528Y000751D01*
X017656Y000879D01*
X017656Y001060D01*
X017577Y001139D01*
X017577Y001470D01*
X017757Y001290D01*
X018088Y001290D01*
X018303Y001506D01*
X018303Y001384D02*
X018182Y001384D01*
X018104Y001307D02*
X018303Y001307D01*
X018303Y001230D02*
X017577Y001230D01*
X017577Y001307D02*
X017740Y001307D01*
X017663Y001384D02*
X017577Y001384D01*
X017577Y001462D02*
X017586Y001462D01*
X017299Y001384D02*
X017238Y001384D01*
X017299Y001307D02*
X017161Y001307D01*
X017299Y001230D02*
X015411Y001230D01*
X015411Y001307D02*
X015684Y001307D01*
X015740Y001250D02*
X015883Y001250D01*
X015883Y001650D01*
X015962Y001650D01*
X015962Y001729D01*
X016362Y001729D01*
X016362Y001872D01*
X016104Y002129D01*
X015962Y002129D01*
X015962Y001729D01*
X015883Y001729D01*
X015883Y001650D01*
X015483Y001650D01*
X015483Y001508D01*
X015740Y001250D01*
X015883Y001307D02*
X015962Y001307D01*
X015962Y001250D02*
X016104Y001250D01*
X016362Y001508D01*
X016362Y001650D01*
X015962Y001650D01*
X015962Y001250D01*
X015962Y001384D02*
X015883Y001384D01*
X015883Y001462D02*
X015962Y001462D01*
X015962Y001539D02*
X015883Y001539D01*
X015883Y001616D02*
X015962Y001616D01*
X015962Y001693D02*
X016883Y001693D01*
X016883Y001729D02*
X016483Y001729D01*
X016483Y001872D01*
X016740Y002129D01*
X016883Y002129D01*
X016883Y001729D01*
X016883Y001771D02*
X016962Y001771D01*
X016962Y001848D02*
X016883Y001848D01*
X016883Y001925D02*
X016962Y001925D01*
X016962Y002002D02*
X016883Y002002D01*
X016883Y002080D02*
X016962Y002080D01*
X017154Y002080D02*
X017299Y002080D01*
X017299Y002002D02*
X017231Y002002D01*
X017259Y002157D02*
X015411Y002157D01*
X015411Y002234D02*
X017182Y002234D01*
X017438Y002174D02*
X016922Y002690D01*
X016662Y002690D01*
X016099Y003253D01*
X015863Y003253D01*
X015660Y003456D01*
X015660Y003686D01*
X015706Y003731D01*
X015706Y004355D01*
X015588Y004473D01*
X015588Y006009D01*
X015194Y006402D01*
X015194Y006678D01*
X015055Y006508D02*
X014975Y006587D01*
X014975Y006768D01*
X014985Y006778D01*
X014963Y006784D01*
X014931Y006803D01*
X014905Y006829D01*
X014894Y006848D01*
X014861Y006815D01*
X014621Y006815D01*
X014563Y006873D01*
X014563Y007192D01*
X014601Y007229D01*
X014563Y007267D01*
X014563Y007585D01*
X014601Y007623D01*
X014563Y007660D01*
X014563Y007681D01*
X014439Y007681D01*
X014439Y007625D01*
X014380Y007567D01*
X013764Y007567D01*
X013764Y007269D01*
X013705Y007210D01*
X013273Y007210D01*
X013229Y007255D01*
X013229Y007255D01*
X013229Y007249D01*
X013170Y007190D01*
X012808Y007190D01*
X012775Y007223D01*
X012750Y007198D01*
X012718Y007180D01*
X012683Y007170D01*
X012529Y007170D01*
X012529Y007550D01*
X012450Y007550D01*
X012450Y007170D01*
X012341Y007170D01*
X012341Y007169D01*
X012705Y007169D01*
X012750Y007125D01*
X012750Y007131D01*
X012808Y007189D01*
X013170Y007189D01*
X013229Y007131D01*
X013229Y007125D01*
X013273Y007169D01*
X013705Y007169D01*
X013764Y007111D01*
X013764Y006812D01*
X014380Y006812D01*
X014439Y006754D01*
X014439Y006521D01*
X014562Y006521D01*
X014602Y006561D01*
X014920Y006561D01*
X014978Y006503D01*
X014978Y006263D01*
X014945Y006230D01*
X014965Y006219D01*
X014990Y006193D01*
X015009Y006161D01*
X015018Y006125D01*
X015018Y006028D01*
X014761Y006028D01*
X014761Y005810D01*
X014897Y005810D01*
X014933Y005820D01*
X014965Y005838D01*
X014990Y005864D01*
X015009Y005896D01*
X015018Y005931D01*
X015018Y006028D01*
X014761Y006028D01*
X014761Y006028D01*
X014761Y006028D01*
X014761Y005810D01*
X014624Y005810D01*
X014589Y005820D01*
X014557Y005838D01*
X014531Y005864D01*
X014513Y005896D01*
X014503Y005931D01*
X014503Y006028D01*
X014761Y006028D01*
X014761Y006028D01*
X014503Y006028D01*
X014503Y006125D01*
X014513Y006161D01*
X014531Y006193D01*
X014557Y006219D01*
X014576Y006230D01*
X014562Y006244D01*
X014439Y006244D01*
X014439Y005972D01*
X014380Y005914D01*
X013598Y005914D01*
X013558Y005954D01*
X013513Y005908D01*
X013332Y005908D01*
X013303Y005937D01*
X013255Y005889D01*
X012723Y005889D01*
X012665Y005947D01*
X012665Y006084D01*
X012655Y006075D01*
X012655Y005573D01*
X012679Y005587D01*
X012715Y005597D01*
X012812Y005597D01*
X012812Y005339D01*
X012812Y005082D01*
X012812Y005339D01*
X012812Y005339D01*
X012812Y005339D01*
X012812Y005597D01*
X012909Y005597D01*
X012945Y005587D01*
X012976Y005569D01*
X013002Y005543D01*
X013013Y005524D01*
X013046Y005557D01*
X013286Y005557D01*
X013309Y005535D01*
X013332Y005558D01*
X013513Y005558D01*
X013536Y005535D01*
X013558Y005557D01*
X013798Y005557D01*
X013855Y005500D01*
X013913Y005557D01*
X014152Y005557D01*
X014169Y005541D01*
X014169Y005633D01*
X014178Y005669D01*
X014197Y005701D01*
X014223Y005726D01*
X014254Y005745D01*
X014290Y005754D01*
X014534Y005754D01*
X014534Y005507D01*
X014594Y005507D01*
X014959Y005507D01*
X014959Y005633D01*
X014950Y005669D01*
X014931Y005701D01*
X014905Y005726D01*
X014874Y005745D01*
X014838Y005754D01*
X014594Y005754D01*
X014594Y005507D01*
X014594Y005448D01*
X014959Y005448D01*
X014959Y005321D01*
X014950Y005286D01*
X014931Y005254D01*
X014905Y005228D01*
X014874Y005209D01*
X014838Y005200D01*
X014594Y005200D01*
X014594Y005448D01*
X014534Y005448D01*
X014534Y005200D01*
X014290Y005200D01*
X014254Y005209D01*
X014223Y005228D01*
X014211Y005240D01*
X014211Y005180D01*
X014171Y005141D01*
X014171Y005065D01*
X014182Y005065D01*
X014234Y005012D01*
X014267Y005045D01*
X014861Y005045D01*
X014903Y005003D01*
X014907Y005007D01*
X015088Y005007D01*
X015215Y004879D01*
X015215Y004698D01*
X015189Y004672D01*
X015291Y004672D01*
X015326Y004662D01*
X015358Y004644D01*
X015384Y004618D01*
X015403Y004586D01*
X015412Y004551D01*
X015449Y004551D01*
X015412Y004551D02*
X015412Y004454D01*
X015155Y004454D01*
X015155Y004454D01*
X015412Y004454D01*
X015412Y004356D01*
X015403Y004321D01*
X015384Y004289D01*
X015358Y004263D01*
X015339Y004252D01*
X015372Y004219D01*
X015372Y003979D01*
X015314Y003921D01*
X015300Y003921D01*
X015332Y003903D01*
X015332Y003903D01*
X015367Y003842D01*
X015529Y004003D01*
X015567Y004003D01*
X015567Y004298D01*
X015449Y004416D01*
X015449Y005951D01*
X015055Y006345D01*
X015055Y006508D01*
X015055Y006482D02*
X014978Y006482D01*
X014978Y006405D02*
X015055Y006405D01*
X015072Y006328D02*
X014978Y006328D01*
X014966Y006251D02*
X015150Y006251D01*
X015227Y006173D02*
X015002Y006173D01*
X015018Y006096D02*
X015304Y006096D01*
X015381Y006019D02*
X015018Y006019D01*
X015018Y005942D02*
X015449Y005942D01*
X015449Y005864D02*
X014991Y005864D01*
X014761Y005864D02*
X014761Y005864D01*
X014761Y005942D02*
X014761Y005942D01*
X014761Y006019D02*
X014761Y006019D01*
X014503Y006019D02*
X014439Y006019D01*
X014439Y006096D02*
X014503Y006096D01*
X014520Y006173D02*
X014439Y006173D01*
X014761Y006383D02*
X014009Y006383D01*
X013989Y006363D01*
X013916Y006363D01*
X013489Y006790D01*
X013489Y006194D01*
X013422Y006127D01*
X013546Y005942D02*
X013570Y005942D01*
X014206Y005710D02*
X012655Y005710D01*
X012655Y005787D02*
X015449Y005787D01*
X015449Y005710D02*
X014922Y005710D01*
X014959Y005633D02*
X015449Y005633D01*
X015449Y005555D02*
X014959Y005555D01*
X014594Y005478D02*
X015449Y005478D01*
X015449Y005401D02*
X014959Y005401D01*
X014959Y005324D02*
X015449Y005324D01*
X015449Y005246D02*
X014924Y005246D01*
X015449Y005169D02*
X014200Y005169D01*
X014171Y005092D02*
X015449Y005092D01*
X015449Y005015D02*
X014891Y005015D01*
X015157Y004937D02*
X015449Y004937D01*
X015449Y004860D02*
X015215Y004860D01*
X015215Y004783D02*
X015449Y004783D01*
X015449Y004706D02*
X015215Y004706D01*
X015374Y004628D02*
X015449Y004628D01*
X015449Y004474D02*
X015412Y004474D01*
X015412Y004397D02*
X015468Y004397D01*
X015402Y004320D02*
X015545Y004320D01*
X015567Y004242D02*
X015349Y004242D01*
X015372Y004165D02*
X015567Y004165D01*
X015567Y004088D02*
X015372Y004088D01*
X015372Y004011D02*
X015567Y004011D01*
X015459Y003933D02*
X015326Y003933D01*
X015359Y003856D02*
X015382Y003856D01*
X015844Y003951D02*
X015910Y003885D01*
X016022Y003996D01*
X016022Y004072D01*
X016022Y004187D01*
X016326Y004491D01*
X016206Y004491D01*
X016080Y004617D01*
X015954Y004491D01*
X015773Y004491D01*
X015726Y004537D01*
X015726Y004531D01*
X015763Y004494D01*
X015844Y004413D01*
X015844Y003951D01*
X015862Y003933D02*
X015959Y003933D01*
X016022Y004011D02*
X015844Y004011D01*
X015844Y004088D02*
X016022Y004088D01*
X016022Y004165D02*
X015844Y004165D01*
X015844Y004242D02*
X016077Y004242D01*
X016154Y004320D02*
X015844Y004320D01*
X015844Y004397D02*
X016231Y004397D01*
X016309Y004474D02*
X015783Y004474D01*
X016014Y004551D02*
X016146Y004551D01*
X016296Y004709D02*
X016296Y005255D01*
X016246Y005306D01*
X016011Y005566D02*
X015863Y005418D01*
X015863Y004709D01*
X016160Y004130D02*
X016656Y004625D01*
X016656Y004896D01*
X016916Y004896D02*
X016916Y004621D01*
X016660Y004365D01*
X016660Y003686D01*
X016966Y004080D02*
X017160Y003885D01*
X017160Y003686D01*
X017410Y003885D02*
X017314Y003982D01*
X017321Y003980D01*
X017418Y003980D01*
X017418Y004237D01*
X017200Y004237D01*
X017418Y004237D01*
X017418Y004237D01*
X017418Y004237D01*
X017418Y003980D01*
X017505Y003980D01*
X017410Y003885D01*
X017362Y003933D02*
X017459Y003933D01*
X017418Y004011D02*
X017418Y004011D01*
X017418Y004088D02*
X017418Y004088D01*
X017418Y004165D02*
X017418Y004165D01*
X017200Y004165D02*
X017104Y004165D01*
X017104Y004137D02*
X017104Y004337D01*
X017181Y004413D01*
X017204Y004437D01*
X017218Y004424D01*
X017210Y004409D01*
X017200Y004373D01*
X017200Y004237D01*
X017200Y004101D01*
X017210Y004065D01*
X017228Y004033D01*
X017254Y004007D01*
X017261Y004003D01*
X017238Y004003D01*
X017218Y004023D01*
X017104Y004137D01*
X017154Y004088D02*
X017204Y004088D01*
X017231Y004011D02*
X017251Y004011D01*
X016966Y004080D02*
X016966Y004394D01*
X017123Y004552D01*
X017123Y004631D01*
X017176Y004684D01*
X017176Y004896D01*
X017426Y004896D02*
X017426Y004579D01*
X017399Y004552D01*
X017686Y004513D02*
X017686Y004896D01*
X017936Y004896D02*
X017936Y004605D01*
X018068Y004473D01*
X018196Y004699D02*
X018422Y004473D01*
X018196Y004699D02*
X018196Y004896D01*
X018456Y004896D02*
X018709Y004896D01*
X018777Y004828D01*
X019052Y004985D02*
X019052Y005119D01*
X018866Y005306D01*
X019141Y005566D02*
X019347Y005359D01*
X019141Y005566D02*
X018866Y005566D01*
X018866Y005826D02*
X019157Y005826D01*
X019288Y005694D01*
X019485Y005694D01*
X020558Y005246D02*
X020626Y005246D01*
X020626Y005219D02*
X020626Y005315D01*
X020515Y005203D01*
X020639Y005203D01*
X020767Y005076D01*
X020767Y004895D01*
X020639Y004767D01*
X020526Y004767D01*
X020431Y004672D01*
X020431Y004471D01*
X020373Y004413D01*
X020133Y004413D01*
X020076Y004470D01*
X020019Y004413D01*
X019779Y004413D01*
X019742Y004450D01*
X019742Y004003D01*
X019792Y004003D01*
X019882Y003913D01*
X020012Y004043D01*
X020141Y004043D01*
X020141Y003706D01*
X020180Y003706D01*
X020180Y004043D01*
X020309Y004043D01*
X020474Y003877D01*
X020489Y003903D01*
X020489Y003903D01*
X020489Y003903D01*
X020626Y003982D01*
X021287Y003982D01*
X021285Y003986D01*
X021275Y004022D01*
X021275Y004365D01*
X021523Y004365D01*
X021523Y004424D01*
X021523Y004888D01*
X021396Y004888D01*
X021361Y004879D01*
X021329Y004860D01*
X021303Y004834D01*
X021285Y004803D01*
X021275Y004767D01*
X021275Y004424D01*
X021523Y004424D01*
X021582Y004424D01*
X021582Y004888D01*
X021708Y004888D01*
X021744Y004879D01*
X021776Y004860D01*
X021827Y004860D01*
X021827Y004848D02*
X021788Y004848D01*
X021776Y004860D01*
X021827Y004848D02*
X021827Y005082D01*
X021984Y005239D01*
X022066Y005321D01*
X022417Y005321D01*
X022495Y005242D01*
X022495Y005294D01*
X022057Y005732D01*
X021100Y005732D01*
X021100Y005675D01*
X021121Y005675D01*
X021179Y005617D01*
X021179Y005219D01*
X021121Y005161D01*
X020684Y005161D01*
X020626Y005219D01*
X020673Y005169D02*
X020676Y005169D01*
X020750Y005092D02*
X021837Y005092D01*
X021827Y005015D02*
X020767Y005015D01*
X020767Y004937D02*
X021827Y004937D01*
X021966Y005024D02*
X022123Y005182D01*
X022359Y005182D01*
X022556Y004985D01*
X022556Y004946D01*
X022775Y004937D02*
X022903Y004937D01*
X022826Y004860D02*
X022775Y004860D01*
X022775Y005015D02*
X022980Y005015D01*
X023057Y005092D02*
X022814Y005092D01*
X022892Y005169D02*
X023135Y005169D01*
X023165Y005246D02*
X022932Y005246D01*
X022932Y005324D02*
X023165Y005324D01*
X023165Y005401D02*
X022922Y005401D01*
X022844Y005478D02*
X023087Y005478D01*
X023010Y005555D02*
X022682Y005555D01*
X022605Y005633D02*
X022933Y005633D01*
X022856Y005710D02*
X022528Y005710D01*
X022451Y005787D02*
X022778Y005787D01*
X022701Y005864D02*
X022373Y005864D01*
X022296Y005942D02*
X022624Y005942D01*
X022547Y006019D02*
X022219Y006019D01*
X022080Y005710D02*
X021100Y005710D01*
X021163Y005633D02*
X022157Y005633D01*
X022234Y005555D02*
X021179Y005555D01*
X021179Y005478D02*
X022311Y005478D01*
X022389Y005401D02*
X021179Y005401D01*
X021179Y005324D02*
X022466Y005324D01*
X022491Y005246D02*
X022495Y005246D01*
X021991Y005246D02*
X021179Y005246D01*
X021129Y005169D02*
X021914Y005169D01*
X021966Y005024D02*
X021966Y004394D01*
X022399Y004394D02*
X022399Y004749D01*
X022241Y004906D01*
X022241Y004946D01*
X022832Y004670D02*
X023304Y005143D01*
X023304Y005457D01*
X021769Y006993D01*
X021381Y007255D02*
X024074Y007255D01*
X023842Y007023D02*
X022402Y007023D01*
X022460Y006946D02*
X023765Y006946D01*
X023687Y006868D02*
X022527Y006868D01*
X022604Y006791D02*
X023610Y006791D01*
X023533Y006714D02*
X022682Y006714D01*
X022759Y006637D02*
X023456Y006637D01*
X023378Y006559D02*
X022836Y006559D01*
X022913Y006482D02*
X023301Y006482D01*
X023224Y006405D02*
X022991Y006405D01*
X023068Y006328D02*
X023147Y006328D01*
X023552Y006173D02*
X025252Y006173D01*
X025252Y006096D02*
X023474Y006096D01*
X023397Y006019D02*
X025252Y006019D01*
X025252Y005942D02*
X023454Y005942D01*
X023531Y005864D02*
X025252Y005864D01*
X025252Y005787D02*
X023609Y005787D01*
X023686Y005710D02*
X025252Y005710D01*
X025252Y005633D02*
X023763Y005633D01*
X023840Y005555D02*
X025252Y005555D01*
X025252Y005478D02*
X023896Y005478D01*
X023906Y005401D02*
X025252Y005401D01*
X025252Y005324D02*
X023916Y005324D01*
X023916Y005246D02*
X025252Y005246D01*
X025252Y005169D02*
X023896Y005169D01*
X023896Y005092D02*
X024401Y005092D01*
X024346Y005015D02*
X023896Y005015D01*
X023896Y004937D02*
X024346Y004937D01*
X024346Y004860D02*
X023896Y004860D01*
X023896Y004848D02*
X023896Y004848D01*
X024727Y005092D02*
X024795Y005092D01*
X024958Y004946D02*
X024958Y004414D01*
X024977Y004394D01*
X025215Y004397D02*
X025252Y004397D01*
X025252Y004474D02*
X025215Y004474D01*
X025215Y004551D02*
X025252Y004551D01*
X025252Y004628D02*
X025215Y004628D01*
X025215Y004706D02*
X025252Y004706D01*
X025252Y004783D02*
X025215Y004783D01*
X025252Y004860D02*
X025176Y004860D01*
X025176Y004937D02*
X025252Y004937D01*
X025252Y005015D02*
X025176Y005015D01*
X025120Y005092D02*
X025252Y005092D01*
X025215Y004320D02*
X025252Y004320D01*
X025252Y004242D02*
X025215Y004242D01*
X025215Y004165D02*
X025252Y004165D01*
X025252Y004088D02*
X025215Y004088D01*
X025215Y004011D02*
X025252Y004011D01*
X022832Y004394D02*
X022832Y004670D01*
X021582Y004706D02*
X021523Y004706D01*
X021523Y004783D02*
X021582Y004783D01*
X021582Y004860D02*
X021523Y004860D01*
X021329Y004860D02*
X020732Y004860D01*
X020655Y004783D02*
X021279Y004783D01*
X021275Y004706D02*
X020465Y004706D01*
X020431Y004628D02*
X021275Y004628D01*
X021275Y004551D02*
X020431Y004551D01*
X020431Y004474D02*
X021275Y004474D01*
X021275Y004320D02*
X019742Y004320D01*
X019742Y004397D02*
X021523Y004397D01*
X021523Y004474D02*
X021582Y004474D01*
X021582Y004551D02*
X021523Y004551D01*
X021523Y004628D02*
X021582Y004628D01*
X021275Y004242D02*
X019742Y004242D01*
X019742Y004165D02*
X021275Y004165D01*
X021275Y004088D02*
X019742Y004088D01*
X019742Y004011D02*
X019980Y004011D01*
X019902Y003933D02*
X019862Y003933D01*
X020141Y003933D02*
X020180Y003933D01*
X020180Y003856D02*
X020141Y003856D01*
X020141Y003779D02*
X020180Y003779D01*
X020160Y003686D02*
X020160Y004046D01*
X020588Y004473D01*
X020588Y004670D01*
X020548Y004985D02*
X020253Y004690D01*
X020253Y004631D01*
X019899Y004631D02*
X019643Y004631D01*
X019603Y004670D01*
X019603Y003743D01*
X019660Y003686D01*
X019660Y003432D01*
X019896Y003393D02*
X019948Y003393D01*
X019973Y003315D02*
X021433Y003315D01*
X021433Y003238D02*
X020570Y003238D01*
X020647Y003161D02*
X021433Y003161D01*
X021433Y003084D02*
X021093Y003084D01*
X021170Y003006D02*
X021433Y003006D01*
X021433Y002929D02*
X021248Y002929D01*
X021322Y002852D02*
X021433Y002852D01*
X021433Y002775D02*
X021322Y002775D01*
X020751Y003084D02*
X020725Y003084D01*
X020409Y003006D02*
X020227Y003006D01*
X020304Y002929D02*
X020487Y002929D01*
X020523Y002852D02*
X020362Y002852D01*
X020362Y002775D02*
X020523Y002775D01*
X020523Y002697D02*
X019962Y002697D01*
X020362Y002620D02*
X020523Y002620D01*
X020523Y002543D02*
X020362Y002543D01*
X020320Y002466D02*
X020581Y002466D01*
X020659Y002388D02*
X020304Y002388D01*
X020381Y002311D02*
X020736Y002311D01*
X019523Y001848D02*
X019322Y001848D01*
X019322Y001771D02*
X019523Y001771D01*
X019523Y001693D02*
X019322Y001693D01*
X019322Y001616D02*
X019523Y001616D01*
X019523Y001539D02*
X019322Y001539D01*
X019259Y001462D02*
X019586Y001462D01*
X019922Y001690D02*
X019422Y002190D01*
X018580Y002190D01*
X018383Y002387D01*
X018383Y002977D01*
X018186Y003174D01*
X017910Y003174D01*
X017660Y003424D01*
X017660Y003686D01*
X017399Y003213D02*
X017922Y002690D01*
X017922Y002532D01*
X018442Y002013D01*
X018442Y000851D01*
X018264Y000844D02*
X017621Y000844D01*
X017656Y000921D02*
X018264Y000921D01*
X018264Y000998D02*
X017656Y000998D01*
X017641Y001075D02*
X018303Y001075D01*
X018303Y001153D02*
X017577Y001153D01*
X017299Y001153D02*
X015411Y001153D01*
X015411Y001075D02*
X017235Y001075D01*
X017220Y000998D02*
X015411Y000998D01*
X015411Y000921D02*
X017220Y000921D01*
X017255Y000844D02*
X015411Y000844D01*
X015411Y000766D02*
X017332Y000766D01*
X017544Y000766D02*
X018264Y000766D01*
X018267Y000689D02*
X015411Y000689D01*
X016161Y001307D02*
X016684Y001307D01*
X016740Y001250D02*
X016883Y001250D01*
X016883Y001650D01*
X016483Y001650D01*
X016483Y001508D01*
X016740Y001250D01*
X016883Y001307D02*
X016962Y001307D01*
X016962Y001384D02*
X016883Y001384D01*
X016883Y001462D02*
X016962Y001462D01*
X016962Y001539D02*
X016883Y001539D01*
X016883Y001616D02*
X016962Y001616D01*
X016606Y001384D02*
X016238Y001384D01*
X016315Y001462D02*
X016529Y001462D01*
X016483Y001539D02*
X016362Y001539D01*
X016362Y001616D02*
X016483Y001616D01*
X016483Y001771D02*
X016362Y001771D01*
X016362Y001848D02*
X016483Y001848D01*
X016536Y001925D02*
X016308Y001925D01*
X016231Y002002D02*
X016613Y002002D01*
X016691Y002080D02*
X016154Y002080D01*
X016104Y002250D02*
X015962Y002250D01*
X015962Y002650D01*
X016362Y002650D01*
X016362Y002508D01*
X016104Y002250D01*
X016165Y002311D02*
X016736Y002311D01*
X016659Y002388D02*
X016242Y002388D01*
X016320Y002466D02*
X016581Y002466D01*
X016523Y002543D02*
X016362Y002543D01*
X016362Y002620D02*
X016523Y002620D01*
X016459Y002697D02*
X015962Y002697D01*
X015962Y002620D02*
X015883Y002620D01*
X015883Y002650D02*
X015883Y002250D01*
X015740Y002250D01*
X015483Y002508D01*
X015483Y002650D01*
X015883Y002650D01*
X015883Y002697D02*
X015411Y002697D01*
X015411Y002620D02*
X015483Y002620D01*
X015483Y002543D02*
X015411Y002543D01*
X015411Y002466D02*
X015525Y002466D01*
X015602Y002388D02*
X015411Y002388D01*
X015411Y002311D02*
X015679Y002311D01*
X015883Y002311D02*
X015962Y002311D01*
X015962Y002388D02*
X015883Y002388D01*
X015883Y002466D02*
X015962Y002466D01*
X015962Y002543D02*
X015883Y002543D01*
X015483Y002775D02*
X015411Y002775D01*
X015411Y002852D02*
X015483Y002852D01*
X015540Y002929D02*
X015411Y002929D01*
X015411Y003006D02*
X015618Y003006D01*
X015695Y003084D02*
X015411Y003084D01*
X015411Y003161D02*
X015759Y003161D01*
X015682Y003238D02*
X015411Y003238D01*
X015411Y003315D02*
X015604Y003315D01*
X015505Y003393D02*
X015411Y003393D01*
X015411Y003470D02*
X015427Y003470D01*
X016160Y003467D02*
X016414Y003213D01*
X017399Y003213D01*
X016381Y002775D02*
X016362Y002775D01*
X016160Y003467D02*
X016160Y003686D01*
X016160Y004130D01*
X017104Y004242D02*
X017200Y004242D01*
X017200Y004320D02*
X017104Y004320D01*
X017164Y004397D02*
X017206Y004397D01*
X017686Y004513D02*
X017714Y004513D01*
X017773Y004454D01*
X017773Y004237D01*
X018345Y004198D02*
X018383Y004158D01*
X019564Y004631D02*
X019603Y004670D01*
X020076Y004985D02*
X020115Y004985D01*
X020141Y004011D02*
X020180Y004011D01*
X020341Y004011D02*
X021278Y004011D01*
X020542Y003933D02*
X020419Y003933D01*
X020180Y003624D02*
X020141Y003624D01*
X020141Y003547D02*
X020180Y003547D01*
X020180Y003470D02*
X020141Y003470D01*
X020141Y003393D02*
X020180Y003393D01*
X020373Y003393D02*
X020621Y003393D01*
X020489Y003469D02*
X020489Y003469D01*
X020489Y003469D01*
X020488Y003470D02*
X020450Y003470D01*
X017438Y002174D02*
X017438Y000969D01*
X018581Y001075D02*
X018824Y001075D01*
X018902Y001153D02*
X018581Y001153D01*
X018796Y000851D02*
X018993Y001048D01*
X019210Y001048D01*
X019446Y000812D02*
X019485Y000851D01*
X019741Y000851D01*
X020265Y001075D02*
X021433Y001075D01*
X021433Y000998D02*
X020311Y000998D01*
X020314Y000921D02*
X021433Y000921D01*
X021433Y000844D02*
X020314Y000844D01*
X020314Y000766D02*
X021433Y000766D01*
X021433Y000689D02*
X020307Y000689D01*
X019491Y001925D02*
X019252Y001925D01*
X019175Y002002D02*
X019414Y002002D01*
X015962Y002002D02*
X015883Y002002D01*
X015883Y001925D02*
X015962Y001925D01*
X015962Y001848D02*
X015883Y001848D01*
X015883Y001771D02*
X015962Y001771D01*
X015883Y001729D02*
X015883Y002129D01*
X015740Y002129D01*
X015483Y001872D01*
X015483Y001729D01*
X015883Y001729D01*
X015883Y001693D02*
X015411Y001693D01*
X015411Y001616D02*
X015483Y001616D01*
X015483Y001539D02*
X015411Y001539D01*
X015411Y001462D02*
X015529Y001462D01*
X015606Y001384D02*
X015411Y001384D01*
X015411Y001771D02*
X015483Y001771D01*
X015483Y001848D02*
X015411Y001848D01*
X015411Y001925D02*
X015536Y001925D01*
X015613Y002002D02*
X015411Y002002D01*
X015411Y002080D02*
X015691Y002080D01*
X015883Y002080D02*
X015962Y002080D01*
X011099Y004130D02*
X010923Y004081D01*
X010823Y004218D01*
X010898Y004307D01*
X011048Y004631D01*
X011127Y004385D01*
X011601Y004385D01*
X012084Y004355D02*
X012084Y004434D01*
X012275Y004551D02*
X013378Y004551D01*
X013340Y004514D02*
X012302Y004514D01*
X012302Y004524D01*
X012174Y004652D01*
X011993Y004652D01*
X011977Y004636D01*
X011977Y004641D01*
X011977Y004728D01*
X011969Y004758D01*
X012053Y004758D01*
X012101Y004806D01*
X012185Y004806D01*
X012341Y004649D01*
X012456Y004649D01*
X012499Y004649D01*
X012614Y004649D01*
X012722Y004758D01*
X013576Y004758D01*
X013569Y004751D01*
X013569Y004592D01*
X013419Y004592D01*
X013340Y004514D01*
X013569Y004628D02*
X012198Y004628D01*
X012285Y004706D02*
X011977Y004706D01*
X011977Y004641D02*
X011601Y004641D01*
X011601Y004641D01*
X011977Y004641D01*
X012078Y004783D02*
X012208Y004783D01*
X012399Y004788D02*
X012162Y005024D01*
X012123Y005024D01*
X011995Y004896D01*
X011601Y004896D01*
X011542Y005102D02*
X011669Y005102D01*
X011704Y005111D01*
X011736Y005129D01*
X011762Y005155D01*
X011780Y005187D01*
X011790Y005223D01*
X011790Y005467D01*
X011542Y005467D01*
X011542Y005102D01*
X011483Y005102D02*
X011483Y005467D01*
X011542Y005467D01*
X011542Y005526D01*
X011790Y005526D01*
X011790Y005771D01*
X011780Y005807D01*
X011762Y005838D01*
X011736Y005864D01*
X011704Y005883D01*
X011669Y005892D01*
X011542Y005892D01*
X011542Y005526D01*
X011483Y005526D01*
X011483Y005467D01*
X011236Y005467D01*
X011236Y005234D01*
X011140Y005330D01*
X011132Y005330D01*
X011140Y005360D01*
X011140Y005497D01*
X011140Y005633D01*
X011132Y005664D01*
X011159Y005692D01*
X011159Y006165D01*
X011227Y006165D01*
X011227Y006471D01*
X011247Y006471D01*
X011247Y006165D01*
X011354Y006165D01*
X011389Y006174D01*
X011421Y006192D01*
X011447Y006218D01*
X011466Y006250D01*
X011475Y006286D01*
X011475Y006471D01*
X011247Y006471D01*
X011247Y006491D01*
X011475Y006491D01*
X011475Y006677D01*
X011466Y006712D01*
X011452Y006735D01*
X011467Y006750D01*
X011485Y006782D01*
X011495Y006817D01*
X011495Y006820D01*
X011550Y006765D01*
X011540Y006754D01*
X011540Y005972D01*
X011598Y005914D01*
X012378Y005914D01*
X012378Y005835D01*
X012361Y005852D01*
X012003Y005852D01*
X011945Y005794D01*
X011945Y005200D01*
X011967Y005177D01*
X011905Y005115D01*
X011905Y005039D01*
X011879Y005065D01*
X011324Y005065D01*
X011298Y005038D01*
X011298Y005090D01*
X011298Y005125D01*
X011321Y005111D01*
X011357Y005102D01*
X011483Y005102D01*
X011483Y005169D02*
X011542Y005169D01*
X011542Y005246D02*
X011483Y005246D01*
X011483Y005324D02*
X011542Y005324D01*
X011542Y005401D02*
X011483Y005401D01*
X011483Y005478D02*
X011140Y005478D01*
X011140Y005497D02*
X010922Y005497D01*
X011140Y005497D01*
X011140Y005555D02*
X011236Y005555D01*
X011236Y005526D02*
X011483Y005526D01*
X011483Y005892D01*
X011357Y005892D01*
X011321Y005883D01*
X011289Y005864D01*
X011263Y005838D01*
X011245Y005807D01*
X011236Y005771D01*
X011236Y005526D01*
X011236Y005633D02*
X011140Y005633D01*
X011159Y005710D02*
X011236Y005710D01*
X011240Y005787D02*
X011159Y005787D01*
X011159Y005864D02*
X011289Y005864D01*
X011159Y005942D02*
X011570Y005942D01*
X011542Y005864D02*
X011483Y005864D01*
X011483Y005787D02*
X011542Y005787D01*
X011542Y005710D02*
X011483Y005710D01*
X011483Y005633D02*
X011542Y005633D01*
X011542Y005555D02*
X011483Y005555D01*
X011542Y005478D02*
X011945Y005478D01*
X011945Y005401D02*
X011790Y005401D01*
X011790Y005324D02*
X011945Y005324D01*
X011945Y005246D02*
X011790Y005246D01*
X011770Y005169D02*
X011959Y005169D01*
X011905Y005092D02*
X011298Y005092D01*
X011298Y005090D02*
X011298Y005090D01*
X011099Y005131D02*
X010923Y005181D01*
X010823Y005043D01*
X010898Y004955D01*
X011048Y004631D01*
X010312Y004709D02*
X010127Y004709D01*
X010048Y004631D01*
X010198Y004955D01*
X010273Y005043D01*
X010173Y005181D01*
X009998Y005131D01*
X009873Y005246D02*
X009850Y005246D01*
X009850Y005247D02*
X009897Y005417D01*
X009920Y005417D01*
X009978Y005475D01*
X009978Y005651D01*
X009995Y005634D01*
X010370Y005634D01*
X010370Y005579D01*
X010350Y005559D01*
X010350Y005330D01*
X010039Y005330D01*
X009957Y005330D01*
X009850Y005224D01*
X009850Y005247D01*
X009871Y005324D02*
X009950Y005324D01*
X010039Y005330D02*
X010039Y005330D01*
X009978Y005478D02*
X010350Y005478D01*
X010350Y005401D02*
X009892Y005401D01*
X009543Y005479D02*
X009495Y005431D01*
X009438Y005488D01*
X009198Y005488D01*
X009140Y005430D01*
X009140Y005344D01*
X009097Y005301D01*
X008929Y005301D01*
X008886Y005344D01*
X008886Y005430D01*
X008828Y005488D01*
X008588Y005488D01*
X008531Y005431D01*
X008473Y005488D01*
X008233Y005488D01*
X008195Y005450D01*
X008132Y005450D01*
X007814Y005768D01*
X007709Y005873D01*
X007065Y005873D01*
X007065Y005951D01*
X007008Y006009D01*
X007065Y006066D01*
X007065Y006302D01*
X007065Y006302D01*
X007162Y006302D01*
X007162Y006560D01*
X007162Y006817D01*
X007065Y006817D01*
X007030Y006808D01*
X006998Y006789D01*
X006972Y006764D01*
X006961Y006744D01*
X006928Y006777D01*
X006769Y006777D01*
X006769Y006875D01*
X005824Y006875D01*
X005824Y008557D01*
X006657Y008557D01*
X006630Y008530D01*
X006630Y008212D01*
X006688Y008153D01*
X006967Y008153D01*
X007026Y008212D01*
X007026Y008530D01*
X006999Y008557D01*
X007798Y008557D01*
X007772Y008530D01*
X007772Y008212D01*
X007830Y008153D01*
X007831Y008153D01*
X007831Y007998D01*
X007830Y007998D01*
X007798Y007966D01*
X007765Y007999D01*
X007584Y007999D01*
X007504Y007919D01*
X007026Y007919D01*
X007026Y007940D01*
X006967Y007998D01*
X006688Y007998D01*
X006630Y007940D01*
X006630Y007621D01*
X006688Y007563D01*
X006826Y007563D01*
X006826Y007483D01*
X006770Y007427D01*
X006751Y007407D01*
X006688Y007407D01*
X006630Y007349D01*
X006630Y007030D01*
X006688Y006972D01*
X006967Y006972D01*
X007026Y007030D01*
X007026Y007286D01*
X007135Y007286D01*
X007141Y007293D01*
X007141Y007200D01*
X007389Y007200D01*
X007389Y007428D01*
X007263Y007428D01*
X007263Y007595D01*
X007216Y007642D01*
X007504Y007642D01*
X007562Y007583D01*
X007535Y007556D01*
X007535Y007428D01*
X007408Y007428D01*
X007408Y007200D01*
X007389Y007200D01*
X007389Y007180D01*
X007141Y007180D01*
X007141Y007073D01*
X007151Y007038D01*
X007169Y007006D01*
X007195Y006980D01*
X007227Y006961D01*
X007262Y006952D01*
X007298Y006952D01*
X007287Y006941D01*
X007269Y006909D01*
X007259Y006873D01*
X007259Y006817D01*
X007162Y006817D01*
X007162Y006560D01*
X007162Y006560D01*
X007162Y006560D01*
X007162Y006302D01*
X007259Y006302D01*
X007295Y006312D01*
X007299Y006314D01*
X007299Y006302D01*
X007357Y006244D01*
X007672Y006244D01*
X007692Y006224D01*
X008089Y006224D01*
X008148Y006282D01*
X008148Y006680D01*
X008089Y006738D01*
X007774Y006738D01*
X007774Y006776D01*
X007517Y006776D01*
X007517Y006776D01*
X007774Y006776D01*
X007774Y006873D01*
X007765Y006909D01*
X007746Y006941D01*
X007720Y006967D01*
X007689Y006985D01*
X007653Y006994D01*
X007617Y006994D01*
X007628Y007006D01*
X007647Y007038D01*
X007656Y007073D01*
X007656Y007180D01*
X007408Y007180D01*
X007408Y007200D01*
X007656Y007200D01*
X007656Y007253D01*
X007662Y007247D01*
X007772Y007247D01*
X007772Y007030D01*
X007830Y006972D01*
X008109Y006972D01*
X008167Y007030D01*
X008167Y007349D01*
X008109Y007407D01*
X007971Y007407D01*
X007971Y007488D01*
X008047Y007563D01*
X008109Y007563D01*
X008119Y007573D01*
X008362Y007329D01*
X008444Y007248D01*
X008460Y007248D01*
X008460Y007190D01*
X008737Y007190D01*
X008737Y007190D01*
X008460Y007190D01*
X008460Y007122D01*
X008470Y007087D01*
X008488Y007055D01*
X008500Y007043D01*
X008500Y006935D01*
X008424Y006935D01*
X008343Y006854D01*
X008343Y006738D01*
X008283Y006738D01*
X008224Y006680D01*
X008224Y006282D01*
X008283Y006224D01*
X008680Y006224D01*
X008738Y006282D01*
X008738Y006289D01*
X008765Y006263D01*
X008946Y006263D01*
X008982Y006299D01*
X008982Y006223D01*
X009041Y006165D01*
X009221Y006165D01*
X009229Y006173D01*
X009237Y006165D01*
X009418Y006165D01*
X009426Y006173D01*
X009434Y006165D01*
X009573Y006165D01*
X009573Y006099D01*
X009543Y006070D01*
X009543Y005830D01*
X009601Y005772D01*
X009543Y005715D01*
X009543Y005479D01*
X009543Y005478D02*
X009448Y005478D01*
X009543Y005555D02*
X008027Y005555D01*
X008104Y005478D02*
X008224Y005478D01*
X008483Y005478D02*
X008578Y005478D01*
X008837Y005478D02*
X009188Y005478D01*
X009140Y005401D02*
X008886Y005401D01*
X008906Y005324D02*
X009119Y005324D01*
X009352Y005053D02*
X009438Y005053D01*
X009495Y005110D01*
X009552Y005053D01*
X009792Y005053D01*
X009799Y005060D01*
X009799Y004829D01*
X009242Y004829D01*
X009221Y004849D01*
X009040Y004849D01*
X009024Y004832D01*
X009024Y004945D01*
X009244Y004945D01*
X009348Y005049D01*
X009352Y005053D01*
X009314Y005015D02*
X009799Y005015D01*
X009799Y004937D02*
X009024Y004937D01*
X009024Y004860D02*
X009799Y004860D01*
X010048Y004631D02*
X010198Y004307D01*
X010273Y004218D01*
X010173Y004081D01*
X009998Y004130D01*
X009867Y003982D02*
X009800Y004048D01*
X009800Y004088D01*
X008364Y004088D01*
X008364Y004015D02*
X008364Y004218D01*
X008376Y004230D01*
X008395Y004262D01*
X008404Y004297D01*
X008404Y004394D01*
X008107Y004394D01*
X008107Y004394D01*
X008404Y004394D01*
X008404Y004492D01*
X008395Y004527D01*
X008376Y004559D01*
X008364Y004571D01*
X008364Y004627D01*
X008394Y004619D01*
X008491Y004619D01*
X008491Y004877D01*
X008491Y004877D01*
X008273Y004877D01*
X008273Y005013D01*
X008283Y005049D01*
X008285Y005053D01*
X008233Y005053D01*
X008195Y005091D01*
X007984Y005091D01*
X007561Y005514D01*
X007065Y005514D01*
X007065Y005397D01*
X007032Y005364D01*
X007051Y005352D01*
X007077Y005327D01*
X007095Y005295D01*
X007105Y005259D01*
X007105Y005162D01*
X006847Y005162D01*
X006590Y005162D01*
X006590Y005065D01*
X006599Y005030D01*
X006618Y004998D01*
X006644Y004972D01*
X006652Y004967D01*
X006637Y004953D01*
X006619Y004921D01*
X006610Y004885D01*
X006610Y004778D01*
X006916Y004778D01*
X006916Y004759D01*
X006610Y004759D01*
X006610Y004652D01*
X006619Y004616D01*
X006637Y004585D01*
X006663Y004559D01*
X006695Y004540D01*
X006731Y004531D01*
X006916Y004531D01*
X006916Y004759D01*
X006936Y004759D01*
X006936Y004531D01*
X007122Y004531D01*
X007142Y004536D01*
X007142Y004535D01*
X007200Y004476D01*
X007211Y004476D01*
X007180Y004446D01*
X007180Y004340D01*
X007145Y004376D01*
X006708Y004376D01*
X006650Y004318D01*
X006650Y004038D01*
X006706Y003982D01*
X005824Y003982D01*
X005824Y005694D01*
X006648Y005694D01*
X006668Y005674D01*
X006630Y005636D01*
X006630Y005397D01*
X006663Y005364D01*
X006644Y005352D01*
X006618Y005327D01*
X006599Y005295D01*
X006590Y005259D01*
X006590Y005162D01*
X006847Y005162D01*
X006847Y005162D01*
X006847Y005162D01*
X007105Y005162D01*
X007105Y005065D01*
X007095Y005030D01*
X007082Y005006D01*
X007122Y005006D01*
X007157Y004997D01*
X007189Y004978D01*
X007215Y004953D01*
X007233Y004921D01*
X007243Y004885D01*
X007243Y004833D01*
X007597Y004833D01*
X007637Y004793D01*
X007646Y004793D01*
X007662Y004810D01*
X007843Y004810D01*
X007865Y004789D01*
X007909Y004833D01*
X008273Y004833D01*
X008273Y004877D01*
X008491Y004877D01*
X008491Y004877D01*
X008491Y004619D01*
X008588Y004619D01*
X008624Y004629D01*
X008655Y004647D01*
X008681Y004673D01*
X008693Y004692D01*
X008726Y004659D01*
X008912Y004659D01*
X008912Y004540D01*
X009040Y004412D01*
X009221Y004412D01*
X009242Y004433D01*
X009799Y004433D01*
X009799Y004172D01*
X009799Y004172D01*
X009799Y004089D01*
X009800Y004088D01*
X009799Y004165D02*
X008364Y004165D01*
X008383Y004242D02*
X009799Y004242D01*
X009799Y004320D02*
X008404Y004320D01*
X008404Y004397D02*
X009799Y004397D01*
X009838Y004011D02*
X008360Y004011D01*
X008364Y004015D02*
X008332Y003982D01*
X009867Y003982D01*
X008979Y004474D02*
X008404Y004474D01*
X008381Y004551D02*
X008912Y004551D01*
X008912Y004628D02*
X008622Y004628D01*
X008491Y004628D02*
X008491Y004628D01*
X008491Y004706D02*
X008491Y004706D01*
X008491Y004783D02*
X008491Y004783D01*
X008491Y004860D02*
X008491Y004860D01*
X008273Y004860D02*
X007243Y004860D01*
X007224Y004937D02*
X008273Y004937D01*
X008273Y005015D02*
X007087Y005015D01*
X007105Y005092D02*
X007983Y005092D01*
X007906Y005169D02*
X007105Y005169D01*
X007105Y005246D02*
X007828Y005246D01*
X007751Y005324D02*
X007079Y005324D01*
X007065Y005401D02*
X007674Y005401D01*
X007597Y005478D02*
X007065Y005478D01*
X006630Y005478D02*
X005824Y005478D01*
X005824Y005401D02*
X006630Y005401D01*
X006616Y005324D02*
X005824Y005324D01*
X005824Y005246D02*
X006590Y005246D01*
X006590Y005169D02*
X005824Y005169D01*
X005824Y005092D02*
X006590Y005092D01*
X006608Y005015D02*
X005824Y005015D01*
X005824Y004937D02*
X006629Y004937D01*
X006610Y004860D02*
X005824Y004860D01*
X005824Y004783D02*
X006610Y004783D01*
X006610Y004706D02*
X005824Y004706D01*
X005824Y004628D02*
X006616Y004628D01*
X006676Y004551D02*
X005824Y004551D01*
X005824Y004474D02*
X007209Y004474D01*
X007180Y004397D02*
X005824Y004397D01*
X005824Y004320D02*
X006652Y004320D01*
X006650Y004242D02*
X005824Y004242D01*
X005824Y004165D02*
X006650Y004165D01*
X006650Y004088D02*
X005824Y004088D01*
X005824Y004011D02*
X006677Y004011D01*
X006926Y004134D02*
X006926Y004178D01*
X006926Y004134D02*
X007399Y004134D01*
X007399Y004355D01*
X007690Y004654D02*
X007753Y004591D01*
X007690Y004654D02*
X007399Y004654D01*
X006936Y004628D02*
X006916Y004628D01*
X006916Y004551D02*
X006936Y004551D01*
X006936Y004706D02*
X006916Y004706D01*
X007753Y004119D02*
X008084Y004119D01*
X008107Y004134D01*
X009477Y005092D02*
X009513Y005092D01*
X009543Y005633D02*
X007950Y005633D01*
X007872Y005710D02*
X009543Y005710D01*
X009586Y005787D02*
X007795Y005787D01*
X007718Y005864D02*
X009543Y005864D01*
X009543Y005942D02*
X007065Y005942D01*
X007018Y006019D02*
X009543Y006019D01*
X009570Y006096D02*
X007065Y006096D01*
X007065Y006173D02*
X009032Y006173D01*
X008982Y006251D02*
X008706Y006251D01*
X009052Y006481D02*
X009131Y006402D01*
X009052Y006481D02*
X008855Y006481D01*
X008481Y006481D02*
X008481Y006796D01*
X008737Y006796D01*
X008500Y006946D02*
X007741Y006946D01*
X007774Y006868D02*
X008357Y006868D01*
X008343Y006791D02*
X007774Y006791D01*
X008113Y006714D02*
X008259Y006714D01*
X008224Y006637D02*
X008148Y006637D01*
X008148Y006559D02*
X008224Y006559D01*
X008224Y006482D02*
X008148Y006482D01*
X008148Y006405D02*
X008224Y006405D01*
X008224Y006328D02*
X008148Y006328D01*
X008116Y006251D02*
X008256Y006251D01*
X007891Y006422D02*
X007891Y006481D01*
X007891Y006422D02*
X007517Y006422D01*
X007351Y006251D02*
X007065Y006251D01*
X007162Y006328D02*
X007162Y006328D01*
X007162Y006405D02*
X007162Y006405D01*
X007162Y006482D02*
X007162Y006482D01*
X007162Y006559D02*
X007162Y006559D01*
X007162Y006637D02*
X007162Y006637D01*
X007162Y006714D02*
X007162Y006714D01*
X007162Y006791D02*
X007162Y006791D01*
X007259Y006868D02*
X006769Y006868D01*
X006769Y006791D02*
X007001Y006791D01*
X007292Y006946D02*
X005824Y006946D01*
X005824Y007023D02*
X006638Y007023D01*
X006630Y007100D02*
X005824Y007100D01*
X005824Y007177D02*
X006630Y007177D01*
X006630Y007255D02*
X005824Y007255D01*
X005824Y007332D02*
X006630Y007332D01*
X006752Y007409D02*
X005824Y007409D01*
X005824Y007486D02*
X006826Y007486D01*
X006687Y007564D02*
X005824Y007564D01*
X005824Y007641D02*
X006630Y007641D01*
X006630Y007718D02*
X005824Y007718D01*
X005824Y007795D02*
X006630Y007795D01*
X006630Y007873D02*
X005824Y007873D01*
X005824Y007950D02*
X006640Y007950D01*
X007015Y007950D02*
X007535Y007950D01*
X007831Y008027D02*
X005824Y008027D01*
X005824Y008104D02*
X007831Y008104D01*
X007802Y008182D02*
X006995Y008182D01*
X007026Y008259D02*
X007772Y008259D01*
X007772Y008336D02*
X007026Y008336D01*
X007026Y008413D02*
X007772Y008413D01*
X007772Y008490D02*
X007026Y008490D01*
X006630Y008490D02*
X005824Y008490D01*
X005824Y008413D02*
X006630Y008413D01*
X006630Y008336D02*
X005824Y008336D01*
X005824Y008259D02*
X006630Y008259D01*
X006660Y008182D02*
X005824Y008182D01*
X006828Y007780D02*
X007674Y007780D01*
X007505Y007641D02*
X007217Y007641D01*
X007263Y007564D02*
X007542Y007564D01*
X007535Y007486D02*
X007263Y007486D01*
X007389Y007409D02*
X007408Y007409D01*
X007408Y007332D02*
X007389Y007332D01*
X007389Y007255D02*
X007408Y007255D01*
X007656Y007177D02*
X007772Y007177D01*
X007772Y007100D02*
X007656Y007100D01*
X007638Y007023D02*
X007779Y007023D01*
X008160Y007023D02*
X008500Y007023D01*
X008466Y007100D02*
X008167Y007100D01*
X008167Y007177D02*
X008460Y007177D01*
X008437Y007255D02*
X008167Y007255D01*
X008167Y007332D02*
X008360Y007332D01*
X008282Y007409D02*
X007971Y007409D01*
X007971Y007486D02*
X008205Y007486D01*
X008128Y007564D02*
X008110Y007564D01*
X008225Y007662D02*
X008501Y007387D01*
X008737Y007387D01*
X008737Y007583D02*
X008580Y007583D01*
X008540Y007623D01*
X008540Y008095D01*
X008759Y008104D02*
X008982Y008104D01*
X008982Y008156D02*
X008982Y007838D01*
X008959Y007831D01*
X008927Y007813D01*
X008901Y007787D01*
X008883Y007755D01*
X008877Y007732D01*
X008679Y007732D01*
X008679Y007925D01*
X008759Y008005D01*
X008759Y008153D01*
X008854Y008153D01*
X008889Y008162D01*
X008921Y008181D01*
X008947Y008207D01*
X008966Y008238D01*
X008972Y008261D01*
X008992Y008240D01*
X008992Y008166D01*
X008982Y008156D01*
X008992Y008182D02*
X008922Y008182D01*
X008971Y008259D02*
X008973Y008259D01*
X009328Y008253D02*
X009328Y007977D01*
X009131Y007977D02*
X009131Y008410D01*
X009328Y008253D02*
X009485Y008410D01*
X008982Y008027D02*
X008759Y008027D01*
X008704Y007950D02*
X008982Y007950D01*
X008982Y007873D02*
X008679Y007873D01*
X008679Y007795D02*
X008909Y007795D01*
X008225Y007662D02*
X008225Y008095D01*
X008147Y008371D02*
X007969Y008371D01*
X007969Y007780D01*
X007969Y007682D01*
X007753Y007465D01*
X007141Y007255D02*
X007026Y007255D01*
X007026Y007177D02*
X007141Y007177D01*
X007141Y007100D02*
X007026Y007100D01*
X007018Y007023D02*
X007159Y007023D01*
X006828Y007190D02*
X006828Y007288D01*
X007044Y007505D01*
X008737Y007190D02*
X009014Y007190D01*
X009014Y007229D01*
X009485Y007229D01*
X009485Y007150D01*
X009014Y007150D01*
X009014Y007190D01*
X008737Y007190D01*
X008737Y007190D01*
X009014Y007177D02*
X009485Y007177D01*
X010173Y006647D02*
X010449Y006647D01*
X010449Y006263D01*
X010507Y006205D01*
X010646Y006205D01*
X010646Y005992D01*
X010451Y005797D01*
X010451Y006247D01*
X010393Y006305D01*
X010107Y006305D01*
X010107Y006402D01*
X009918Y006402D01*
X009918Y006402D01*
X010107Y006402D01*
X010107Y006558D01*
X010122Y006566D01*
X010148Y006592D01*
X010166Y006624D01*
X010173Y006647D01*
X010170Y006637D02*
X010449Y006637D01*
X010449Y006559D02*
X010110Y006559D01*
X010107Y006482D02*
X010449Y006482D01*
X010449Y006405D02*
X010107Y006405D01*
X010107Y006328D02*
X010449Y006328D01*
X010447Y006251D02*
X010461Y006251D01*
X010451Y006173D02*
X010646Y006173D01*
X010646Y006096D02*
X010451Y006096D01*
X010451Y006019D02*
X010646Y006019D01*
X010595Y005942D02*
X010451Y005942D01*
X010451Y005864D02*
X010518Y005864D01*
X010370Y005633D02*
X009978Y005633D01*
X009978Y005555D02*
X010350Y005555D01*
X010922Y005497D02*
X010922Y005497D01*
X011140Y005401D02*
X011236Y005401D01*
X011236Y005324D02*
X011146Y005324D01*
X011224Y005246D02*
X011236Y005246D01*
X011790Y005555D02*
X011945Y005555D01*
X011945Y005633D02*
X011790Y005633D01*
X011790Y005710D02*
X011945Y005710D01*
X011945Y005787D02*
X011786Y005787D01*
X011736Y005864D02*
X012378Y005864D01*
X012655Y005864D02*
X014531Y005864D01*
X014503Y005942D02*
X014408Y005942D01*
X014534Y005710D02*
X014594Y005710D01*
X014594Y005633D02*
X014534Y005633D01*
X014534Y005555D02*
X014594Y005555D01*
X014169Y005555D02*
X014154Y005555D01*
X014169Y005633D02*
X012655Y005633D01*
X012812Y005555D02*
X012812Y005555D01*
X012812Y005478D02*
X012812Y005478D01*
X012812Y005401D02*
X012812Y005401D01*
X012812Y005324D02*
X012812Y005324D01*
X012812Y005246D02*
X012812Y005246D01*
X012812Y005169D02*
X012812Y005169D01*
X012812Y005092D02*
X012812Y005092D01*
X012812Y005082D02*
X012909Y005082D01*
X012945Y005091D01*
X012976Y005110D01*
X013002Y005136D01*
X013013Y005155D01*
X013046Y005122D01*
X013286Y005122D01*
X013309Y005144D01*
X013332Y005121D01*
X013513Y005121D01*
X013536Y005144D01*
X013558Y005122D01*
X013798Y005122D01*
X013855Y005179D01*
X013894Y005141D01*
X013894Y005065D01*
X013627Y005065D01*
X013598Y005035D01*
X012696Y005035D01*
X012696Y005087D01*
X012715Y005082D01*
X012812Y005082D01*
X012945Y005092D02*
X013894Y005092D01*
X013865Y005169D02*
X013845Y005169D01*
X013678Y005339D02*
X013422Y005339D01*
X013166Y005339D01*
X013045Y005555D02*
X012990Y005555D01*
X013288Y005555D02*
X013329Y005555D01*
X013515Y005555D02*
X013557Y005555D01*
X013800Y005555D02*
X013911Y005555D01*
X014032Y005339D02*
X014032Y004896D01*
X013905Y004896D01*
X012664Y004896D01*
X012556Y004788D01*
X012399Y004788D01*
X012670Y004706D02*
X013569Y004706D01*
X013895Y004906D02*
X013905Y004896D01*
X013914Y004887D01*
X014232Y005015D02*
X014237Y005015D01*
X014534Y005246D02*
X014594Y005246D01*
X014594Y005324D02*
X014534Y005324D01*
X014534Y005401D02*
X014594Y005401D01*
X015824Y005812D02*
X015838Y005826D01*
X016246Y005826D01*
X016246Y005566D02*
X016011Y005566D01*
X016246Y006076D02*
X015757Y006076D01*
X015430Y006402D01*
X015430Y006875D01*
X015706Y007150D01*
X015706Y008056D01*
X015489Y008272D01*
X015430Y008272D01*
X015095Y008213D02*
X015095Y008489D01*
X017084Y008489D01*
X017202Y008371D01*
X016277Y008233D02*
X016218Y008135D01*
X016218Y007106D01*
X016246Y007106D01*
X016050Y006846D02*
X015903Y006993D01*
X015903Y008017D01*
X015981Y008095D01*
X015430Y007918D02*
X015430Y007820D01*
X015095Y007820D01*
X015095Y007426D01*
X014741Y007426D02*
X014741Y007032D01*
X014563Y007023D02*
X013764Y007023D01*
X013764Y007100D02*
X014563Y007100D01*
X014563Y007177D02*
X013182Y007177D01*
X012796Y007177D02*
X012709Y007177D01*
X012529Y007177D02*
X012450Y007177D01*
X012450Y007255D02*
X012529Y007255D01*
X012529Y007332D02*
X012450Y007332D01*
X012450Y007409D02*
X012529Y007409D01*
X012529Y007486D02*
X012450Y007486D01*
X012473Y007629D02*
X012479Y007648D01*
X012479Y007977D01*
X012450Y007977D01*
X012450Y008009D01*
X012296Y008009D01*
X012260Y008000D01*
X012229Y007981D01*
X012224Y007977D01*
X012029Y007977D01*
X012029Y008056D01*
X012479Y008056D01*
X012479Y008074D01*
X012647Y008074D01*
X012665Y008092D01*
X012665Y008009D01*
X012529Y008009D01*
X012529Y007629D01*
X012473Y007629D01*
X012477Y007641D02*
X012529Y007641D01*
X012529Y007718D02*
X012479Y007718D01*
X012479Y007795D02*
X012529Y007795D01*
X012529Y007873D02*
X012479Y007873D01*
X012479Y007950D02*
X012529Y007950D01*
X012665Y008027D02*
X012029Y008027D01*
X012029Y007977D02*
X012029Y007527D01*
X012175Y007527D01*
X012175Y007329D01*
X012033Y007329D01*
X011905Y007201D01*
X011905Y007021D01*
X012033Y006893D01*
X012190Y006893D01*
X012215Y006868D01*
X012215Y006812D01*
X011799Y006812D01*
X011869Y006883D01*
X011869Y007064D01*
X011741Y007192D01*
X011642Y007192D01*
X011642Y007527D01*
X011950Y007527D01*
X011950Y007977D01*
X012029Y007977D01*
X012029Y007950D02*
X011950Y007950D01*
X011950Y007977D02*
X011500Y007977D01*
X011500Y007917D01*
X011343Y008074D01*
X011500Y008074D01*
X011500Y008056D01*
X011950Y008056D01*
X011950Y007977D01*
X011950Y008027D02*
X011389Y008027D01*
X011467Y007950D02*
X011500Y007950D01*
X011950Y007873D02*
X012029Y007873D01*
X012029Y007795D02*
X011950Y007795D01*
X011950Y007718D02*
X012029Y007718D01*
X012029Y007641D02*
X011950Y007641D01*
X011950Y007564D02*
X012029Y007564D01*
X012175Y007486D02*
X011642Y007486D01*
X011642Y007409D02*
X012175Y007409D01*
X012175Y007332D02*
X011642Y007332D01*
X011642Y007255D02*
X011958Y007255D01*
X011905Y007177D02*
X011755Y007177D01*
X011833Y007100D02*
X011905Y007100D01*
X011905Y007023D02*
X011869Y007023D01*
X011869Y006946D02*
X011979Y006946D01*
X011855Y006868D02*
X012214Y006868D01*
X012168Y007111D02*
X012489Y006790D01*
X012489Y006615D01*
X011989Y006615D01*
X011989Y006363D01*
X011966Y006520D01*
X011540Y006482D02*
X011247Y006482D01*
X011247Y006405D02*
X011227Y006405D01*
X011227Y006328D02*
X011247Y006328D01*
X011247Y006251D02*
X011227Y006251D01*
X011227Y006173D02*
X011247Y006173D01*
X011159Y006096D02*
X011540Y006096D01*
X011540Y006019D02*
X011159Y006019D01*
X011386Y006173D02*
X011540Y006173D01*
X011540Y006251D02*
X011466Y006251D01*
X011475Y006328D02*
X011540Y006328D01*
X011540Y006405D02*
X011475Y006405D01*
X011475Y006559D02*
X011540Y006559D01*
X011540Y006637D02*
X011475Y006637D01*
X011464Y006714D02*
X011540Y006714D01*
X011524Y006791D02*
X011488Y006791D01*
X011277Y006954D02*
X011277Y006954D01*
X011277Y007347D01*
X011277Y007347D01*
X011277Y007211D01*
X011277Y006954D01*
X011277Y007023D02*
X011277Y007023D01*
X011277Y007100D02*
X011277Y007100D01*
X011277Y007177D02*
X011277Y007177D01*
X011277Y007255D02*
X011277Y007255D01*
X011277Y007332D02*
X011277Y007332D01*
X012123Y007111D02*
X012168Y007111D01*
X012989Y007640D02*
X012989Y008167D01*
X012989Y008371D01*
X013107Y008489D01*
X015095Y008489D01*
X014741Y008213D02*
X014741Y007820D01*
X014741Y007426D01*
X014563Y007409D02*
X013764Y007409D01*
X013764Y007332D02*
X014563Y007332D01*
X014575Y007255D02*
X013750Y007255D01*
X013764Y007486D02*
X014563Y007486D01*
X014563Y007564D02*
X013764Y007564D01*
X013489Y007590D02*
X013989Y008017D01*
X013989Y007820D01*
X014741Y007820D01*
X014583Y007641D02*
X014439Y007641D01*
X015430Y007603D02*
X015430Y007820D01*
X015430Y007249D02*
X015430Y007190D01*
X015273Y007032D01*
X015095Y007032D01*
X015095Y006888D01*
X015095Y006888D01*
X015095Y007032D01*
X015095Y007032D01*
X015095Y006934D01*
X014840Y006678D01*
X014761Y006678D01*
X014921Y006559D02*
X015003Y006559D01*
X014975Y006637D02*
X014439Y006637D01*
X014439Y006714D02*
X014975Y006714D01*
X014951Y006791D02*
X014402Y006791D01*
X014568Y006868D02*
X013764Y006868D01*
X013764Y006946D02*
X014563Y006946D01*
X015095Y006946D02*
X015095Y006946D01*
X015095Y007023D02*
X015095Y007023D01*
X015095Y007032D02*
X015095Y007032D01*
X015288Y007032D01*
X015288Y007032D01*
X015095Y007032D01*
X015430Y007071D02*
X015430Y007249D01*
X015430Y007249D01*
X015430Y007071D01*
X015430Y007071D01*
X015430Y007100D02*
X015430Y007100D01*
X015430Y007177D02*
X015430Y007177D01*
X015706Y006835D02*
X015588Y006717D01*
X015588Y006481D01*
X015784Y006284D01*
X015981Y006284D01*
X016033Y006336D01*
X016246Y006336D01*
X016537Y006206D02*
X016555Y006224D01*
X016555Y006245D01*
X017517Y006245D01*
X017517Y006166D01*
X016555Y006166D01*
X016555Y006187D01*
X016537Y006206D01*
X016555Y006173D02*
X017517Y006173D01*
X017517Y006096D02*
X017595Y006096D01*
X017595Y006019D02*
X017517Y006019D01*
X017517Y005942D02*
X017595Y005942D01*
X017595Y005864D02*
X017517Y005864D01*
X017517Y005787D02*
X017595Y005787D01*
X017595Y005710D02*
X017517Y005710D01*
X017517Y005633D02*
X017595Y005633D01*
X017595Y005555D02*
X017517Y005555D01*
X017517Y005478D02*
X017595Y005478D01*
X017595Y005401D02*
X017517Y005401D01*
X017517Y005324D02*
X017595Y005324D01*
X017595Y005246D02*
X017517Y005246D01*
X015155Y004454D02*
X015155Y004454D01*
X014761Y004454D01*
X014761Y004454D01*
X014897Y004454D01*
X015155Y004454D01*
X014367Y004473D02*
X014367Y004454D01*
X014338Y004129D02*
X013905Y004129D01*
X014338Y004129D02*
X014367Y004099D01*
X014761Y004099D01*
X015155Y004099D01*
X012517Y005103D02*
X012477Y005064D01*
X012517Y005103D02*
X012517Y006245D01*
X012556Y006284D01*
X012655Y006019D02*
X012665Y006019D01*
X012655Y005942D02*
X012670Y005942D01*
X012182Y005497D02*
X012182Y005083D01*
X012123Y005024D01*
X014439Y006559D02*
X014600Y006559D01*
X015863Y006560D02*
X015889Y006586D01*
X016246Y006586D01*
X016246Y006846D02*
X016050Y006846D01*
X019175Y006447D02*
X019366Y006638D01*
X019444Y006638D01*
X019458Y006623D01*
X019439Y006612D01*
X019413Y006586D01*
X019395Y006555D01*
X019385Y006519D01*
X019385Y006422D01*
X019385Y006325D01*
X019395Y006290D01*
X019409Y006266D01*
X019188Y006266D01*
X019175Y006253D01*
X019175Y006447D01*
X019175Y006447D01*
X019175Y006405D02*
X019385Y006405D01*
X019385Y006422D02*
X019643Y006422D01*
X019643Y006422D01*
X019385Y006422D01*
X019385Y006482D02*
X019210Y006482D01*
X019287Y006559D02*
X019398Y006559D01*
X019365Y006637D02*
X019445Y006637D01*
X019385Y006328D02*
X019175Y006328D01*
X019929Y007100D02*
X019992Y007100D01*
X020903Y007879D02*
X020942Y007879D01*
X022005Y007583D02*
X022123Y007583D01*
X022399Y007859D01*
X022399Y008135D01*
X024092Y008174D02*
X024092Y008628D01*
X024058Y008628D01*
X024072Y008636D01*
X024072Y008636D01*
X024072Y008636D01*
X024101Y008686D01*
X024307Y008686D01*
X024307Y008628D01*
X024307Y008628D01*
X024170Y008628D01*
X024170Y008174D01*
X024092Y008174D01*
X024092Y008182D02*
X024170Y008182D01*
X024170Y008259D02*
X024092Y008259D01*
X024092Y008336D02*
X024170Y008336D01*
X024170Y008413D02*
X024092Y008413D01*
X024092Y008490D02*
X024170Y008490D01*
X024170Y008568D02*
X024092Y008568D01*
X024077Y008645D02*
X024307Y008645D01*
X024821Y008628D02*
X024821Y008628D01*
X024170Y008027D02*
X024092Y008027D01*
X024092Y007950D02*
X024170Y007950D01*
X024170Y007873D02*
X024092Y007873D01*
X024092Y007795D02*
X024170Y007795D01*
X024170Y007718D02*
X024092Y007718D01*
X024538Y007564D02*
X025252Y007564D01*
X025252Y007486D02*
X024616Y007486D01*
X024664Y007409D02*
X025252Y007409D01*
X025252Y007332D02*
X024664Y007332D01*
X024662Y007255D02*
X025252Y007255D01*
X025252Y007177D02*
X024585Y007177D01*
X024479Y007100D02*
X025252Y007100D01*
X025252Y007023D02*
X024401Y007023D01*
X024324Y006946D02*
X025252Y006946D01*
X025252Y006868D02*
X024247Y006868D01*
X024170Y006791D02*
X025252Y006791D01*
X025252Y006714D02*
X024092Y006714D01*
X024015Y006637D02*
X025252Y006637D01*
X025252Y006559D02*
X023938Y006559D01*
X023861Y006482D02*
X025252Y006482D01*
X025252Y006405D02*
X023783Y006405D01*
X023706Y006328D02*
X025252Y006328D01*
X025252Y006251D02*
X023629Y006251D01*
X008403Y008410D02*
X008186Y008410D01*
X008147Y008371D01*
X006630Y005633D02*
X005824Y005633D01*
X005824Y005555D02*
X006630Y005555D01*
D50*
X007202Y005339D03*
X007595Y005261D03*
X008186Y005930D03*
X007753Y006048D03*
X007241Y006087D03*
X008737Y005891D03*
X009249Y005851D03*
X010155Y005497D03*
X009603Y004946D03*
X009131Y004631D03*
X010312Y004709D03*
X010588Y004434D03*
X012084Y004434D03*
X012753Y004631D03*
X013225Y004631D03*
X012477Y005064D03*
X012123Y005024D03*
X013422Y005339D03*
X013383Y005772D03*
X012792Y005772D03*
X013422Y006127D03*
X014052Y005772D03*
X015155Y006048D03*
X015824Y005812D03*
X015194Y005457D03*
X016926Y005576D03*
X017556Y005576D03*
X018186Y005576D03*
X018186Y006206D03*
X017556Y006206D03*
X016926Y006206D03*
X015863Y006560D03*
X015706Y006835D03*
X015194Y006678D03*
X014761Y006678D03*
X016926Y006835D03*
X017556Y006835D03*
X018186Y006835D03*
X019308Y006402D03*
X019958Y006166D03*
X020076Y006481D03*
X020588Y006560D03*
X020194Y006993D03*
X020863Y007229D03*
X021611Y007269D03*
X022123Y007229D03*
X022241Y006875D03*
X022438Y007505D03*
X022005Y007583D03*
X021532Y007583D03*
X022989Y007505D03*
X023501Y007505D03*
X024092Y007505D03*
X024446Y007347D03*
X022044Y006206D03*
X021493Y006324D03*
X021414Y005536D03*
X021847Y005536D03*
X022714Y005300D03*
X022556Y004946D03*
X022241Y004946D03*
X023698Y005300D03*
X024564Y004946D03*
X024958Y004946D03*
X025036Y005457D03*
X020548Y004985D03*
X020588Y004670D03*
X019603Y004670D03*
X019052Y004670D03*
X018777Y004828D03*
X019052Y004985D03*
X020036Y005418D03*
X017714Y004513D03*
X017399Y004552D03*
X018068Y004473D03*
X018422Y004473D03*
X017202Y004237D03*
X016296Y004709D03*
X015863Y004709D03*
X014997Y004788D03*
X015469Y004237D03*
X015942Y004237D03*
X019407Y003174D03*
X020194Y002190D03*
X019446Y001363D03*
X019210Y001048D03*
X018698Y001206D03*
X018029Y001127D03*
X017438Y000969D03*
X019446Y000812D03*
X007753Y004119D03*
X007399Y004355D03*
X007753Y004591D03*
X006178Y004355D03*
X005273Y004552D03*
X006178Y004867D03*
X010273Y006402D03*
X010942Y006402D03*
X010666Y006835D03*
X011651Y006973D03*
X012123Y007111D03*
X011080Y007682D03*
X010962Y007977D03*
X011414Y008292D03*
X012556Y008292D03*
X009485Y008410D03*
X009131Y008410D03*
X008540Y008095D03*
X008225Y008095D03*
X007359Y008292D03*
X007674Y007780D03*
X007753Y007465D03*
X007044Y007505D03*
X006178Y007702D03*
X006178Y008213D03*
X007084Y006954D03*
X008855Y006481D03*
X011296Y006009D03*
X012556Y006284D03*
X016454Y007957D03*
X016769Y007957D03*
X017084Y007938D03*
X017399Y007938D03*
X017871Y007938D03*
X018225Y007938D03*
X019151Y007623D03*
X018875Y007465D03*
X019347Y007347D03*
X019761Y007347D03*
X020430Y008371D03*
X021021Y008371D03*
X018855Y008410D03*
X017202Y008371D03*
X016277Y008233D03*
X015981Y008095D03*
D51*
X020942Y006580D02*
X020942Y005891D01*
X022123Y005891D01*
X022714Y005300D01*
X020942Y005457D02*
X020942Y005891D01*
X020942Y005457D02*
X020903Y005418D01*
X024564Y004946D02*
X024564Y004394D01*
X010273Y006442D02*
X009781Y006934D01*
X009525Y007190D01*
X009781Y007446D01*
X009269Y007446D02*
X008796Y007918D01*
X008796Y008371D01*
X008757Y008410D01*
D52*
X011277Y006954D02*
X011277Y006520D01*
X011237Y006481D01*
X010273Y006442D02*
X010273Y006402D01*
X010194Y005969D02*
X010155Y005950D01*
X009761Y005950D01*
X009761Y005595D02*
X009672Y005270D01*
X009318Y005270D02*
X009170Y005123D01*
X008855Y005123D01*
X008845Y005113D01*
X008845Y004877D01*
X008855Y005123D02*
X008708Y005270D01*
X006847Y005517D02*
X006847Y005694D01*
X006847Y006186D02*
X006764Y006269D01*
X006178Y006269D01*
X006808Y006186D02*
X006808Y006560D01*
X006808Y006186D02*
X006847Y006186D01*
D53*
X011601Y004641D02*
X011897Y004641D01*
X012123Y004749D01*
X012320Y004591D01*
X012714Y004591D01*
X012753Y004631D01*
D54*
X006178Y005379D03*
X005233Y005576D03*
X005233Y006269D03*
X005233Y006954D03*
X006178Y007190D03*
D55*
X009525Y007977D02*
X009525Y008135D01*
X009899Y008509D01*
X012379Y008509D01*
X012556Y008331D01*
X012556Y008292D01*
X011414Y008292D02*
X011336Y008371D01*
X009977Y008371D01*
X009721Y008115D01*
X009721Y007977D01*
X009918Y007977D02*
X009918Y008115D01*
X009997Y008194D01*
X011040Y008194D01*
X011513Y007721D01*
X011513Y007111D01*
X011651Y006973D01*
X010883Y007682D02*
X010588Y007387D01*
X010312Y007387D01*
X010312Y007583D02*
X010568Y007583D01*
X010962Y007977D01*
X010883Y007682D02*
X011080Y007682D01*
X018866Y007456D02*
X018866Y007106D01*
X018866Y007456D02*
X018875Y007465D01*
D56*
X020588Y006560D02*
X020588Y006343D01*
X020686Y006245D01*
X020686Y006028D01*
X020469Y005812D01*
X020469Y005438D01*
X020076Y005044D01*
X020076Y004985D01*
X019702Y004985D01*
X019702Y004769D01*
X019603Y004670D01*
X019052Y004670D02*
X018540Y004158D01*
X018383Y004158D01*
X017950Y004158D01*
X017714Y004394D01*
X017714Y004513D01*
X014997Y004788D02*
X014584Y004788D01*
X014367Y004572D01*
X014180Y004385D01*
X013905Y004385D01*
X013895Y004394D01*
X013501Y004394D01*
X013422Y004316D01*
X012241Y004316D01*
X012054Y004129D01*
X011601Y004129D01*
X012084Y004434D02*
X012202Y004316D01*
X012241Y004316D01*
X010627Y004473D02*
X010588Y004434D01*
X010627Y004473D02*
X010627Y004828D01*
X010548Y004906D01*
X010548Y005477D01*
X010568Y005497D01*
X010568Y005635D01*
X010903Y005969D01*
X010903Y006363D01*
X010942Y006402D01*
X010725Y006402D01*
X010647Y006481D01*
X010647Y006796D01*
X010666Y006796D01*
X010666Y006835D02*
X010784Y006954D01*
X010922Y006954D01*
X010922Y007150D01*
X010922Y007347D01*
X010903Y005969D02*
X010863Y005831D01*
X009998Y004631D02*
X009131Y004631D01*
X009998Y004631D02*
X009998Y004130D01*
X013905Y004385D02*
X013905Y004641D01*
X014367Y004572D02*
X014367Y004454D01*
X014584Y004788D02*
X014564Y004808D01*
X022241Y006875D02*
X023107Y006009D01*
X024446Y007347D01*
X023107Y006009D02*
X023698Y005418D01*
X023698Y005300D01*
X023698Y004394D01*
X024131Y004394D02*
X024564Y004394D01*
D57*
X010922Y007150D02*
X010922Y007190D01*
X010312Y007190D01*
X010312Y006796D02*
X010666Y006796D01*
X010666Y006835D01*
X009721Y006402D02*
X009721Y005950D01*
X009761Y005950D01*
D58*
X010048Y004631D02*
X010048Y004296D01*
D59*
X024564Y008135D02*
X024564Y009119D01*
X024702Y009119D01*
D60*
X008353Y005270D02*
X008058Y005270D01*
X007635Y005694D01*
X006847Y005694D01*
X006847Y005831D01*
M02*
