G75*
%MOIN*%
%OFA0B0*%
%FSLAX24Y24*%
%IPPOS*%
%LPD*%
%AMOC8*
5,1,8,0,0,1.08239X$1,22.5*
%
%ADD10C,0.0000*%
D10*
X004840Y003883D02*
X004840Y008656D01*
X023855Y008656D01*
X023881Y008658D01*
X023906Y008663D01*
X023930Y008671D01*
X023954Y008682D01*
X023975Y008697D01*
X023994Y008714D01*
X024011Y008733D01*
X024026Y008755D01*
X024037Y008778D01*
X024045Y008802D01*
X024050Y008827D01*
X024052Y008853D01*
X024052Y009513D01*
X025351Y009513D01*
X025351Y003883D01*
X020706Y003883D01*
X020680Y003881D01*
X020655Y003876D01*
X020631Y003868D01*
X020608Y003857D01*
X020586Y003842D01*
X020567Y003825D01*
X020550Y003806D01*
X020535Y003785D01*
X020524Y003761D01*
X020516Y003737D01*
X020511Y003712D01*
X020509Y003686D01*
X020511Y003660D01*
X020516Y003635D01*
X020524Y003611D01*
X020535Y003588D01*
X020550Y003566D01*
X020567Y003547D01*
X020586Y003530D01*
X020608Y003515D01*
X020631Y003504D01*
X020655Y003496D01*
X020680Y003491D01*
X020706Y003489D01*
X021532Y003489D01*
X021532Y000576D01*
X015312Y000576D01*
X015312Y003686D01*
X015310Y003712D01*
X015305Y003737D01*
X015297Y003761D01*
X015286Y003785D01*
X015271Y003806D01*
X015254Y003825D01*
X015235Y003842D01*
X015214Y003857D01*
X015190Y003868D01*
X015166Y003876D01*
X015141Y003881D01*
X015115Y003883D01*
X004840Y003883D01*
M02*
