G75*
%MOIN*%
%OFA0B0*%
%FSLAX24Y24*%
%IPPOS*%
%LPD*%
%AMOC8*
5,1,8,0,0,1.08239X$1,22.5*
%
%ADD10R,0.0700X0.0700*%
%ADD11R,0.0450X0.0450*%
%ADD12R,0.0280X0.0700*%
%ADD13R,0.0350X0.0560*%
%ADD14R,0.0098X0.0276*%
%ADD15R,0.0276X0.0098*%
%ADD16R,0.1024X0.1024*%
%ADD17R,0.0197X0.0236*%
%ADD18R,0.0236X0.0197*%
%ADD19R,0.0315X0.0709*%
%ADD20R,0.0276X0.0709*%
%ADD21R,0.0315X0.0315*%
%ADD22R,0.0472X0.0138*%
%ADD23R,0.0300X0.1000*%
%ADD24R,0.0350X0.0100*%
%ADD25R,0.0150X0.0175*%
%ADD26R,0.0141X0.0141*%
%ADD27R,0.0212X0.0212*%
%ADD28R,0.0315X0.0472*%
%ADD29R,0.0420X0.0140*%
%ADD30R,0.0140X0.0420*%
%ADD31R,0.1850X0.1850*%
%ADD32R,0.0276X0.0512*%
%ADD33R,0.0236X0.0157*%
%ADD34R,0.0157X0.0236*%
%ADD35R,0.0512X0.0276*%
%ADD36R,0.0197X0.0354*%
%ADD37R,0.0354X0.0197*%
%ADD38R,0.0315X0.0157*%
%ADD39R,0.0354X0.0315*%
%ADD40R,0.0591X0.1102*%
%ADD41R,0.1102X0.0591*%
D10*
X011989Y006363D03*
X013989Y006363D03*
X013989Y008017D03*
X011989Y008017D03*
D11*
X012989Y008167D03*
X012989Y006213D03*
D12*
X012989Y006740D03*
X012989Y007640D03*
D13*
X012489Y007590D03*
X013489Y007590D03*
X013489Y006790D03*
X012489Y006790D03*
D14*
X009918Y006402D03*
X009721Y006402D03*
X009525Y006402D03*
X009328Y006402D03*
X009131Y006402D03*
X009131Y007977D03*
X009328Y007977D03*
X009525Y007977D03*
X009721Y007977D03*
X009918Y007977D03*
D15*
X010312Y007583D03*
X010312Y007387D03*
X010312Y007190D03*
X010312Y006993D03*
X010312Y006796D03*
X008737Y006796D03*
X008737Y006993D03*
X008737Y007190D03*
X008737Y007387D03*
X008737Y007583D03*
D16*
X009525Y007190D03*
D17*
X007969Y007190D03*
X006828Y007190D03*
X006828Y007780D03*
X007969Y007780D03*
X007969Y008371D03*
X006828Y008371D03*
D18*
X007399Y007190D03*
D19*
X021966Y008135D03*
X022399Y008135D03*
X022832Y008135D03*
X023265Y008135D03*
X023698Y008135D03*
X024131Y008135D03*
X024564Y008135D03*
X024564Y004394D03*
X024131Y004394D03*
X023698Y004394D03*
X023265Y004394D03*
X022832Y004394D03*
X022399Y004394D03*
X021966Y004394D03*
D20*
X021552Y004394D03*
X024977Y004394D03*
X024977Y008135D03*
X021552Y008135D03*
D21*
X020548Y007524D03*
X020548Y006934D03*
X008481Y006481D03*
X007891Y006481D03*
D22*
X011601Y004896D03*
X011601Y004641D03*
X011601Y004385D03*
X011601Y004129D03*
X013905Y004129D03*
X013905Y004385D03*
X013905Y004641D03*
X013905Y004896D03*
D23*
X011048Y004631D03*
X010048Y004631D03*
D24*
X010173Y004081D03*
X010923Y004081D03*
X010923Y005181D03*
X010173Y005181D03*
D25*
X010273Y005043D03*
X010823Y005043D03*
X010823Y004218D03*
X010273Y004218D03*
D26*
G36*
X010096Y004130D02*
X009998Y004032D01*
X009900Y004130D01*
X009998Y004228D01*
X010096Y004130D01*
G37*
G36*
X011001Y004130D02*
X011099Y004228D01*
X011197Y004130D01*
X011099Y004032D01*
X011001Y004130D01*
G37*
G36*
X011001Y005131D02*
X011099Y005229D01*
X011197Y005131D01*
X011099Y005033D01*
X011001Y005131D01*
G37*
G36*
X010096Y005131D02*
X009998Y005033D01*
X009900Y005131D01*
X009998Y005229D01*
X010096Y005131D01*
G37*
D27*
G36*
X010347Y004955D02*
X010198Y004806D01*
X010049Y004955D01*
X010198Y005104D01*
X010347Y004955D01*
G37*
G36*
X010749Y004955D02*
X010898Y005104D01*
X011047Y004955D01*
X010898Y004806D01*
X010749Y004955D01*
G37*
G36*
X010749Y004307D02*
X010898Y004456D01*
X011047Y004307D01*
X010898Y004158D01*
X010749Y004307D01*
G37*
G36*
X010347Y004307D02*
X010198Y004158D01*
X010049Y004307D01*
X010198Y004456D01*
X010347Y004307D01*
G37*
D28*
X010194Y005969D03*
X010903Y005969D03*
D29*
X016246Y006076D03*
X016246Y006336D03*
X016246Y006586D03*
X016246Y006846D03*
X016246Y007106D03*
X018866Y007106D03*
X018866Y006846D03*
X018866Y006586D03*
X018866Y006336D03*
X018866Y006076D03*
X018866Y005826D03*
X018866Y005566D03*
X018866Y005306D03*
X016246Y005306D03*
X016246Y005566D03*
X016246Y005826D03*
D30*
X016656Y004896D03*
X016916Y004896D03*
X017176Y004896D03*
X017426Y004896D03*
X017686Y004896D03*
X017936Y004896D03*
X018196Y004896D03*
X018456Y004896D03*
X018456Y007516D03*
X018196Y007516D03*
X017936Y007516D03*
X017686Y007516D03*
X017426Y007516D03*
X017176Y007516D03*
X016916Y007516D03*
X016656Y007516D03*
D31*
X017556Y006206D03*
D32*
X012182Y005497D03*
X011513Y005497D03*
D33*
X009761Y005595D03*
X009761Y005950D03*
X007517Y006422D03*
X006847Y006186D03*
X006847Y005831D03*
X006847Y005517D03*
X006847Y005162D03*
X007517Y006776D03*
X014367Y004454D03*
X014761Y004454D03*
X015155Y004454D03*
X015155Y004099D03*
X014761Y004099D03*
X014367Y004099D03*
X014761Y006028D03*
X014761Y006383D03*
X015430Y007249D03*
X015430Y007603D03*
X015430Y007918D03*
X015430Y008272D03*
X019643Y006776D03*
X019643Y006422D03*
X020942Y006580D03*
X020942Y006934D03*
X020942Y007524D03*
X020942Y007879D03*
D34*
X018560Y008253D03*
X018206Y008253D03*
X017891Y008253D03*
X017536Y008253D03*
X015095Y008213D03*
X014741Y008213D03*
X014741Y007820D03*
X015095Y007820D03*
X015095Y007426D03*
X014741Y007426D03*
X014741Y007032D03*
X015095Y007032D03*
X011277Y006954D03*
X010922Y006954D03*
X010922Y007347D03*
X011277Y007347D03*
X008757Y008410D03*
X008403Y008410D03*
X007162Y006560D03*
X006808Y006560D03*
X008353Y005270D03*
X008708Y005270D03*
X009318Y005270D03*
X009672Y005270D03*
X010568Y005497D03*
X010922Y005497D03*
X012812Y005339D03*
X013166Y005339D03*
X013678Y005339D03*
X014032Y005339D03*
X017418Y004237D03*
X017773Y004237D03*
X019347Y004985D03*
X019702Y004985D03*
X019899Y004631D03*
X020253Y004631D03*
X019662Y006048D03*
X019308Y006048D03*
X020332Y006245D03*
X020686Y006245D03*
X008845Y004877D03*
X008491Y004877D03*
X018442Y000851D03*
X018796Y000851D03*
X019741Y000851D03*
X020095Y000851D03*
D35*
X014564Y004808D03*
X014564Y005477D03*
D36*
X011237Y006481D03*
X010647Y006481D03*
D37*
X006926Y004769D03*
X006926Y004178D03*
D38*
X007399Y004134D03*
X008107Y004134D03*
X008107Y004394D03*
X008107Y004654D03*
X007399Y004654D03*
D39*
X020076Y005044D03*
X020903Y005418D03*
X020076Y005792D03*
D40*
X005273Y004552D03*
X005273Y007977D03*
D41*
X024702Y009119D03*
M02*
