G75*
%MOIN*%
%OFA0B0*%
%FSLAX24Y24*%
%IPPOS*%
%LPD*%
%AMOC8*
5,1,8,0,0,1.08239X$1,22.5*
%
%ADD10OC8,0.0476*%
%ADD11R,0.0270X0.0355*%
%ADD12R,0.0060X0.0720*%
%ADD13R,0.0827X0.4528*%
%ADD14R,0.2796X0.1418*%
%ADD15OC8,0.0640*%
D10*
X015667Y003686D03*
X016167Y003686D03*
X016667Y003686D03*
X017167Y003686D03*
X017667Y003686D03*
X018167Y003686D03*
X018667Y003686D03*
X019167Y003686D03*
X019667Y003686D03*
X020167Y003686D03*
X021553Y005333D03*
X021553Y005833D03*
X021553Y006333D03*
D11*
X024047Y005300D03*
X024387Y005300D03*
X021867Y004670D03*
X021527Y004670D03*
X021527Y004198D03*
X021867Y004198D03*
X024755Y007387D03*
X025095Y007387D03*
X019898Y007859D03*
X019558Y007859D03*
X019558Y008331D03*
X019898Y008331D03*
X013744Y006481D03*
X013429Y006481D03*
X013114Y006481D03*
D12*
X019728Y007859D03*
X019728Y008331D03*
X024925Y007387D03*
X024217Y005300D03*
X021697Y004670D03*
X021697Y004198D03*
D13*
X006185Y006269D03*
D14*
X023823Y006442D03*
D15*
X020929Y002690D03*
X019929Y002690D03*
X018929Y002690D03*
X017929Y002690D03*
X016929Y002690D03*
X015929Y002690D03*
X015929Y001690D03*
X016929Y001690D03*
X017929Y001690D03*
X018929Y001690D03*
X019929Y001690D03*
X020929Y001690D03*
M02*
