G75*
%MOIN*%
%OFA0B0*%
%FSLAX24Y24*%
%IPPOS*%
%LPD*%
%AMOC8*
5,1,8,0,0,1.08239X$1,22.5*
%
%ADD10C,0.0050*%
%ADD11C,0.0010*%
%ADD12C,0.0240*%
%ADD13C,0.0039*%
%ADD14C,0.0020*%
%ADD15C,0.0080*%
%ADD16C,0.0256*%
%ADD17R,0.0394X0.0098*%
%ADD18C,0.0059*%
%ADD19C,0.0060*%
%ADD20C,0.0030*%
%ADD21C,0.0000*%
%ADD22R,0.0197X0.0098*%
%ADD23R,0.0039X0.0197*%
%ADD24R,0.0118X0.0492*%
%ADD25R,0.0551X0.0079*%
%ADD26R,0.0098X0.0197*%
%ADD27R,0.0197X0.0039*%
%ADD28R,0.0492X0.0118*%
%ADD29R,0.0079X0.0551*%
%ADD30R,0.0118X0.0335*%
%ADD31R,0.0394X0.0059*%
%ADD32R,0.0335X0.0118*%
%ADD33R,0.0059X0.0394*%
%ADD34C,0.0079*%
%ADD35R,0.0200X0.0200*%
%ADD36R,0.0236X0.0591*%
D10*
X007356Y005261D02*
X007849Y005261D01*
X007849Y006048D01*
X007356Y006048D01*
X007356Y005261D01*
X008744Y006402D02*
X010319Y006402D01*
X010083Y006402D01*
X010319Y006402D02*
X010319Y006639D01*
X010319Y006402D02*
X010319Y007977D01*
X010319Y007741D01*
X010319Y007977D02*
X010083Y007977D01*
X010319Y007977D02*
X008744Y007977D01*
X008980Y007977D01*
X008744Y007977D02*
X008744Y007741D01*
X008744Y007977D02*
X008744Y006402D01*
X009000Y006402D02*
X008744Y006658D01*
X008144Y006993D02*
X008144Y008568D01*
X006667Y008568D01*
X006667Y006993D01*
X008144Y006993D01*
X008114Y007032D02*
X008114Y008528D01*
X006697Y008528D01*
X006697Y007032D01*
X008114Y007032D01*
X007799Y007190D02*
X007012Y007190D01*
X006986Y007192D01*
X006961Y007197D01*
X006937Y007205D01*
X006914Y007216D01*
X006892Y007231D01*
X006873Y007248D01*
X006856Y007267D01*
X006841Y007289D01*
X006830Y007312D01*
X006822Y007336D01*
X006817Y007361D01*
X006815Y007387D01*
X006815Y008174D01*
X006817Y008200D01*
X006822Y008225D01*
X006830Y008249D01*
X006841Y008273D01*
X006856Y008294D01*
X006873Y008313D01*
X006892Y008330D01*
X006914Y008345D01*
X006937Y008356D01*
X006961Y008364D01*
X006986Y008369D01*
X007012Y008371D01*
X007799Y008371D01*
X007825Y008369D01*
X007850Y008364D01*
X007874Y008356D01*
X007898Y008345D01*
X007919Y008330D01*
X007938Y008313D01*
X007955Y008294D01*
X007970Y008273D01*
X007981Y008249D01*
X007989Y008225D01*
X007994Y008200D01*
X007996Y008174D01*
X007996Y007387D01*
X007994Y007361D01*
X007989Y007336D01*
X007981Y007312D01*
X007970Y007289D01*
X007955Y007267D01*
X007938Y007248D01*
X007919Y007231D01*
X007898Y007216D01*
X007874Y007205D01*
X007850Y007197D01*
X007825Y007192D01*
X007799Y007190D01*
X011500Y006245D02*
X011500Y008135D01*
X011520Y008213D02*
X011520Y006166D01*
X014473Y006166D01*
X014473Y008213D01*
X011520Y008213D01*
X014035Y007387D02*
X014037Y007410D01*
X014043Y007433D01*
X014052Y007455D01*
X014065Y007474D01*
X014081Y007491D01*
X014099Y007506D01*
X014120Y007517D01*
X014142Y007525D01*
X014165Y007529D01*
X014189Y007529D01*
X014212Y007525D01*
X014234Y007517D01*
X014255Y007506D01*
X014273Y007491D01*
X014289Y007474D01*
X014302Y007455D01*
X014311Y007433D01*
X014317Y007410D01*
X014319Y007387D01*
X014317Y007364D01*
X014311Y007341D01*
X014302Y007319D01*
X014289Y007300D01*
X014273Y007283D01*
X014255Y007268D01*
X014234Y007257D01*
X014212Y007249D01*
X014189Y007245D01*
X014165Y007245D01*
X014142Y007249D01*
X014120Y007257D01*
X014099Y007268D01*
X014081Y007283D01*
X014065Y007300D01*
X014052Y007319D01*
X014043Y007341D01*
X014037Y007364D01*
X014035Y007387D01*
X014492Y008135D02*
X014492Y006245D01*
X015542Y003936D02*
X015417Y003811D01*
X015417Y003561D01*
X015542Y003436D01*
X020292Y003436D01*
X020417Y003561D01*
X020417Y003811D01*
X020292Y003936D01*
X015542Y003936D01*
X021303Y005208D02*
X021303Y006458D01*
X021428Y006583D01*
X021678Y006583D01*
X021803Y006458D01*
X021803Y005208D01*
X021678Y005083D01*
X021428Y005083D01*
X021303Y005208D01*
X021577Y005221D02*
X021579Y005246D01*
X021585Y005270D01*
X021594Y005293D01*
X021607Y005314D01*
X021624Y005333D01*
X021643Y005350D01*
X021664Y005363D01*
X021687Y005372D01*
X021711Y005378D01*
X021736Y005380D01*
X021761Y005378D01*
X021785Y005372D01*
X021808Y005363D01*
X021829Y005350D01*
X021848Y005333D01*
X021865Y005314D01*
X021878Y005293D01*
X021887Y005270D01*
X021893Y005246D01*
X021895Y005221D01*
X021893Y005196D01*
X021887Y005172D01*
X021878Y005149D01*
X021865Y005128D01*
X021848Y005109D01*
X021829Y005092D01*
X021808Y005079D01*
X021785Y005070D01*
X021761Y005064D01*
X021736Y005062D01*
X021711Y005064D01*
X021687Y005070D01*
X021664Y005079D01*
X021643Y005092D01*
X021624Y005109D01*
X021607Y005128D01*
X021594Y005149D01*
X021585Y005172D01*
X021579Y005196D01*
X021577Y005221D01*
D11*
X015633Y008820D02*
X015622Y008809D01*
X015599Y008809D01*
X015587Y008820D01*
X015587Y008832D01*
X015599Y008843D01*
X015622Y008843D01*
X015633Y008832D01*
X015633Y008820D01*
X015622Y008843D02*
X015633Y008855D01*
X015633Y008866D01*
X015622Y008878D01*
X015599Y008878D01*
X015587Y008866D01*
X015587Y008855D01*
X015599Y008843D01*
X015561Y008809D02*
X015515Y008809D01*
X015538Y008809D02*
X015538Y008878D01*
X015515Y008855D01*
X015488Y008866D02*
X015477Y008878D01*
X015454Y008878D01*
X015442Y008866D01*
X015442Y008820D01*
X015454Y008809D01*
X015477Y008809D01*
X015488Y008820D01*
X015346Y008848D02*
X015346Y008917D01*
X015312Y008883D01*
X015357Y008883D01*
X015285Y008848D02*
X015239Y008848D01*
X015262Y008848D02*
X015262Y008917D01*
X015239Y008894D01*
X015212Y008906D02*
X015201Y008917D01*
X015178Y008917D01*
X015167Y008906D01*
X015167Y008860D01*
X015178Y008848D01*
X015201Y008848D01*
X015212Y008860D01*
X015442Y008966D02*
X015442Y009035D01*
X015477Y009035D01*
X015488Y009024D01*
X015488Y009001D01*
X015477Y008989D01*
X015442Y008989D01*
X015465Y008989D02*
X015488Y008966D01*
X015515Y008966D02*
X015561Y008966D01*
X015538Y008966D02*
X015538Y009035D01*
X015515Y009012D01*
X015587Y009024D02*
X015599Y009035D01*
X015622Y009035D01*
X015633Y009024D01*
X015587Y008978D01*
X015599Y008966D01*
X015622Y008966D01*
X015633Y008978D01*
X015633Y009024D01*
X015587Y009024D02*
X015587Y008978D01*
X015121Y009321D02*
X015075Y009321D01*
X015121Y009367D01*
X015121Y009378D01*
X015110Y009390D01*
X015087Y009390D01*
X015075Y009378D01*
X015026Y009390D02*
X015026Y009321D01*
X015003Y009321D02*
X015049Y009321D01*
X015003Y009367D02*
X015026Y009390D01*
X014976Y009378D02*
X014976Y009355D01*
X014965Y009344D01*
X014930Y009344D01*
X014930Y009321D02*
X014930Y009390D01*
X014965Y009390D01*
X014976Y009378D01*
X014953Y009344D02*
X014976Y009321D01*
X014941Y009232D02*
X014941Y009163D01*
X014918Y009163D02*
X014964Y009163D01*
X014918Y009209D02*
X014941Y009232D01*
X014891Y009221D02*
X014880Y009232D01*
X014857Y009232D01*
X014845Y009221D01*
X014819Y009221D02*
X014807Y009232D01*
X014784Y009232D01*
X014773Y009221D01*
X014773Y009175D01*
X014784Y009163D01*
X014807Y009163D01*
X014819Y009175D01*
X014845Y009163D02*
X014891Y009209D01*
X014891Y009221D01*
X014891Y009163D02*
X014845Y009163D01*
X014755Y009075D02*
X014767Y009063D01*
X014767Y009052D01*
X014755Y009040D01*
X014767Y009029D01*
X014767Y009017D01*
X014755Y009006D01*
X014732Y009006D01*
X014721Y009017D01*
X014694Y009006D02*
X014649Y009006D01*
X014671Y009006D02*
X014671Y009075D01*
X014649Y009052D01*
X014622Y009063D02*
X014610Y009075D01*
X014587Y009075D01*
X014576Y009063D01*
X014576Y009017D01*
X014587Y009006D01*
X014610Y009006D01*
X014622Y009017D01*
X014721Y009063D02*
X014732Y009075D01*
X014755Y009075D01*
X014755Y009040D02*
X014744Y009040D01*
X014773Y008917D02*
X014807Y008917D01*
X014819Y008906D01*
X014819Y008883D01*
X014807Y008871D01*
X014773Y008871D01*
X014773Y008848D02*
X014773Y008917D01*
X014796Y008871D02*
X014819Y008848D01*
X014845Y008848D02*
X014891Y008894D01*
X014891Y008906D01*
X014880Y008917D01*
X014857Y008917D01*
X014845Y008906D01*
X014845Y008848D02*
X014891Y008848D01*
X014537Y008848D02*
X014491Y008848D01*
X014514Y008848D02*
X014514Y008917D01*
X014491Y008894D01*
X014464Y008883D02*
X014453Y008871D01*
X014419Y008871D01*
X014441Y008871D02*
X014464Y008848D01*
X014464Y008883D02*
X014464Y008906D01*
X014453Y008917D01*
X014419Y008917D01*
X014419Y008848D01*
X014058Y008906D02*
X014012Y008860D01*
X014012Y008848D01*
X013986Y008848D02*
X013940Y008848D01*
X013963Y008848D02*
X013963Y008917D01*
X013940Y008894D01*
X013913Y008883D02*
X013902Y008871D01*
X013867Y008871D01*
X013867Y008848D02*
X013867Y008917D01*
X013902Y008917D01*
X013913Y008906D01*
X013913Y008883D01*
X013890Y008871D02*
X013913Y008848D01*
X014012Y008917D02*
X014058Y008917D01*
X014058Y008906D01*
X013265Y009017D02*
X013265Y009063D01*
X013253Y009075D01*
X013230Y009075D01*
X013219Y009063D01*
X013219Y009017D01*
X013230Y009006D01*
X013253Y009006D01*
X013265Y009017D01*
X013192Y009006D02*
X013146Y009075D01*
X013120Y009063D02*
X013108Y009075D01*
X013085Y009075D01*
X013074Y009063D01*
X013074Y009017D01*
X013085Y009006D01*
X013108Y009006D01*
X013120Y009017D01*
X013146Y009006D02*
X013192Y009075D01*
X013047Y009075D02*
X013047Y009029D01*
X013024Y009006D01*
X013001Y009029D01*
X013001Y009075D01*
X013001Y008917D02*
X013036Y008917D01*
X013047Y008906D01*
X013047Y008883D01*
X013036Y008871D01*
X013001Y008871D01*
X013001Y008848D02*
X013001Y008917D01*
X013024Y008871D02*
X013047Y008848D01*
X013074Y008848D02*
X013120Y008848D01*
X013097Y008848D02*
X013097Y008917D01*
X013074Y008894D01*
X013146Y008894D02*
X013146Y008906D01*
X013158Y008917D01*
X013181Y008917D01*
X013192Y008906D01*
X013192Y008894D01*
X013181Y008883D01*
X013158Y008883D01*
X013146Y008894D01*
X013158Y008883D02*
X013146Y008871D01*
X013146Y008860D01*
X013158Y008848D01*
X013181Y008848D01*
X013192Y008860D01*
X013192Y008871D01*
X013181Y008883D01*
X012932Y008883D02*
X012932Y008860D01*
X012920Y008848D01*
X012897Y008848D01*
X012886Y008860D01*
X012886Y008883D02*
X012909Y008894D01*
X012920Y008894D01*
X012932Y008883D01*
X012932Y008917D02*
X012886Y008917D01*
X012886Y008883D01*
X012859Y008906D02*
X012848Y008917D01*
X012825Y008917D01*
X012813Y008906D01*
X012813Y008860D01*
X012825Y008848D01*
X012848Y008848D01*
X012859Y008860D01*
X012788Y008848D02*
X012765Y008848D01*
X012776Y008848D02*
X012776Y008917D01*
X012765Y008917D02*
X012788Y008917D01*
X012050Y008906D02*
X012039Y008917D01*
X012016Y008917D01*
X012004Y008906D01*
X012050Y008906D02*
X012050Y008894D01*
X012004Y008848D01*
X012050Y008848D01*
X011978Y008848D02*
X011932Y008848D01*
X011955Y008848D02*
X011955Y008917D01*
X011932Y008894D01*
X011905Y008906D02*
X011894Y008917D01*
X011871Y008917D01*
X011859Y008906D01*
X011859Y008860D01*
X011871Y008848D01*
X011894Y008848D01*
X011905Y008860D01*
X011302Y009017D02*
X011291Y009006D01*
X011268Y009006D01*
X011256Y009017D01*
X011256Y009040D02*
X011279Y009052D01*
X011291Y009052D01*
X011302Y009040D01*
X011302Y009017D01*
X011256Y009040D02*
X011256Y009075D01*
X011302Y009075D01*
X011291Y009163D02*
X011302Y009175D01*
X011302Y009186D01*
X011291Y009198D01*
X011256Y009198D01*
X011256Y009175D01*
X011268Y009163D01*
X011291Y009163D01*
X011256Y009198D02*
X011279Y009221D01*
X011302Y009232D01*
X011207Y009232D02*
X011207Y009163D01*
X011184Y009163D02*
X011230Y009163D01*
X011184Y009209D02*
X011207Y009232D01*
X011157Y009221D02*
X011146Y009232D01*
X011123Y009232D01*
X011111Y009221D01*
X011111Y009175D01*
X011123Y009163D01*
X011146Y009163D01*
X011157Y009175D01*
X011146Y009075D02*
X011123Y009075D01*
X011111Y009063D01*
X011111Y009017D01*
X011123Y009006D01*
X011146Y009006D01*
X011157Y009017D01*
X011184Y009006D02*
X011230Y009006D01*
X011207Y009006D02*
X011207Y009075D01*
X011184Y009052D01*
X011157Y009063D02*
X011146Y009075D01*
X010679Y009075D02*
X010633Y009075D01*
X010633Y009040D01*
X010656Y009052D01*
X010667Y009052D01*
X010679Y009040D01*
X010679Y009017D01*
X010667Y009006D01*
X010644Y009006D01*
X010633Y009017D01*
X010606Y009006D02*
X010560Y009006D01*
X010560Y009075D01*
X010560Y008917D02*
X010560Y008848D01*
X010606Y008848D01*
X010633Y008848D02*
X010679Y008848D01*
X010656Y008848D02*
X010656Y008917D01*
X010633Y008894D01*
X010757Y008906D02*
X010757Y008860D01*
X010769Y008848D01*
X010792Y008848D01*
X010803Y008860D01*
X010830Y008848D02*
X010875Y008848D01*
X010853Y008848D02*
X010853Y008917D01*
X010830Y008894D01*
X010803Y008906D02*
X010792Y008917D01*
X010769Y008917D01*
X010757Y008906D01*
X010902Y008894D02*
X010925Y008917D01*
X010925Y008848D01*
X010902Y008848D02*
X010948Y008848D01*
X010993Y008860D02*
X011005Y008848D01*
X011028Y008848D01*
X011039Y008860D01*
X011066Y008848D02*
X011112Y008848D01*
X011089Y008848D02*
X011089Y008917D01*
X011066Y008894D01*
X011039Y008906D02*
X011028Y008917D01*
X011005Y008917D01*
X010993Y008906D01*
X010993Y008860D01*
X011138Y008860D02*
X011138Y008848D01*
X011138Y008860D02*
X011184Y008906D01*
X011184Y008917D01*
X011138Y008917D01*
X009964Y008906D02*
X009918Y008860D01*
X009929Y008848D01*
X009952Y008848D01*
X009964Y008860D01*
X009964Y008906D01*
X009952Y008917D01*
X009929Y008917D01*
X009918Y008906D01*
X009918Y008860D01*
X009891Y008848D02*
X009845Y008848D01*
X009868Y008848D02*
X009868Y008917D01*
X009845Y008894D01*
X009819Y008906D02*
X009807Y008917D01*
X009784Y008917D01*
X009773Y008906D01*
X009773Y008860D01*
X009784Y008848D01*
X009807Y008848D01*
X009819Y008860D01*
X009694Y008860D02*
X009683Y008848D01*
X009660Y008848D01*
X009649Y008860D01*
X009649Y008871D01*
X009660Y008883D01*
X009683Y008883D01*
X009694Y008871D01*
X009694Y008860D01*
X009683Y008883D02*
X009694Y008894D01*
X009694Y008906D01*
X009683Y008917D01*
X009660Y008917D01*
X009649Y008906D01*
X009649Y008894D01*
X009660Y008883D01*
X009622Y008848D02*
X009576Y008848D01*
X009576Y008917D01*
X009604Y009006D02*
X009604Y009075D01*
X009570Y009040D01*
X009616Y009040D01*
X009543Y009006D02*
X009497Y009006D01*
X009497Y009075D01*
X009498Y009163D02*
X009452Y009163D01*
X009498Y009209D01*
X009498Y009221D01*
X009486Y009232D01*
X009463Y009232D01*
X009452Y009221D01*
X009425Y009221D02*
X009414Y009232D01*
X009391Y009232D01*
X009379Y009221D01*
X009379Y009175D01*
X009391Y009163D01*
X009414Y009163D01*
X009425Y009175D01*
X009524Y009175D02*
X009524Y009163D01*
X009524Y009175D02*
X009570Y009221D01*
X009570Y009232D01*
X009524Y009232D01*
X009537Y009321D02*
X009560Y009321D01*
X009548Y009321D02*
X009548Y009390D01*
X009537Y009390D02*
X009560Y009390D01*
X009585Y009378D02*
X009585Y009332D01*
X009596Y009321D01*
X009619Y009321D01*
X009631Y009332D01*
X009657Y009321D02*
X009703Y009367D01*
X009703Y009378D01*
X009692Y009390D01*
X009669Y009390D01*
X009657Y009378D01*
X009631Y009378D02*
X009619Y009390D01*
X009596Y009390D01*
X009585Y009378D01*
X009657Y009321D02*
X009703Y009321D01*
X008789Y009063D02*
X008789Y009017D01*
X008777Y009006D01*
X008754Y009006D01*
X008743Y009017D01*
X008754Y009040D02*
X008789Y009040D01*
X008789Y009063D02*
X008777Y009075D01*
X008754Y009075D01*
X008743Y009063D01*
X008743Y009052D01*
X008754Y009040D01*
X008716Y009017D02*
X008705Y009006D01*
X008682Y009006D01*
X008670Y009017D01*
X008670Y009063D01*
X008682Y009075D01*
X008705Y009075D01*
X008716Y009063D01*
X008631Y009040D02*
X008586Y009040D01*
X008620Y009075D01*
X008620Y009006D01*
X008559Y009017D02*
X008547Y009006D01*
X008524Y009006D01*
X008513Y009017D01*
X008513Y009063D01*
X008524Y009075D01*
X008547Y009075D01*
X008559Y009063D01*
X008559Y009163D02*
X008513Y009163D01*
X008513Y009232D01*
X008586Y009221D02*
X008597Y009232D01*
X008620Y009232D01*
X008631Y009221D01*
X008631Y009209D01*
X008620Y009198D01*
X008631Y009186D01*
X008631Y009175D01*
X008620Y009163D01*
X008597Y009163D01*
X008586Y009175D01*
X008608Y009198D02*
X008620Y009198D01*
X008574Y009321D02*
X008574Y009390D01*
X008540Y009355D01*
X008586Y009355D01*
X008513Y009367D02*
X008513Y009378D01*
X008502Y009390D01*
X008479Y009390D01*
X008467Y009378D01*
X008441Y009378D02*
X008429Y009390D01*
X008406Y009390D01*
X008395Y009378D01*
X008395Y009332D01*
X008406Y009321D01*
X008429Y009321D01*
X008441Y009332D01*
X008467Y009321D02*
X008513Y009367D01*
X008513Y009321D02*
X008467Y009321D01*
X008603Y009478D02*
X008626Y009478D01*
X008638Y009490D01*
X008664Y009478D02*
X008710Y009524D01*
X008710Y009536D01*
X008699Y009547D01*
X008676Y009547D01*
X008664Y009536D01*
X008638Y009536D02*
X008626Y009547D01*
X008603Y009547D01*
X008592Y009536D01*
X008592Y009490D01*
X008603Y009478D01*
X008664Y009478D02*
X008710Y009478D01*
X007909Y009075D02*
X007909Y009006D01*
X007886Y009006D02*
X007932Y009006D01*
X007886Y009052D02*
X007909Y009075D01*
X007859Y009063D02*
X007848Y009075D01*
X007825Y009075D01*
X007813Y009063D01*
X007813Y009017D01*
X007825Y009006D01*
X007848Y009006D01*
X007859Y009017D01*
X007788Y009006D02*
X007765Y009006D01*
X007776Y009006D02*
X007776Y009075D01*
X007765Y009075D02*
X007788Y009075D01*
X007720Y009063D02*
X007720Y009052D01*
X007708Y009040D01*
X007720Y009029D01*
X007720Y009017D01*
X007708Y009006D01*
X007685Y009006D01*
X007674Y009017D01*
X007647Y009006D02*
X007601Y009006D01*
X007624Y009006D02*
X007624Y009075D01*
X007601Y009052D01*
X007575Y009063D02*
X007575Y009040D01*
X007563Y009029D01*
X007529Y009029D01*
X007552Y009029D02*
X007575Y009006D01*
X007529Y009006D02*
X007529Y009075D01*
X007563Y009075D01*
X007575Y009063D01*
X007674Y009063D02*
X007685Y009075D01*
X007708Y009075D01*
X007720Y009063D01*
X007708Y009040D02*
X007697Y009040D01*
X007690Y008917D02*
X007667Y008917D01*
X007656Y008906D01*
X007656Y008860D01*
X007667Y008848D01*
X007690Y008848D01*
X007702Y008860D01*
X007728Y008860D02*
X007740Y008848D01*
X007763Y008848D01*
X007774Y008860D01*
X007774Y008871D01*
X007763Y008883D01*
X007728Y008883D01*
X007728Y008860D01*
X007728Y008883D02*
X007751Y008906D01*
X007774Y008917D01*
X007702Y008906D02*
X007690Y008917D01*
X007630Y008917D02*
X007608Y008917D01*
X007619Y008917D02*
X007619Y008848D01*
X007608Y008848D02*
X007630Y008848D01*
X007531Y009163D02*
X007531Y009175D01*
X007577Y009221D01*
X007577Y009232D01*
X007531Y009232D01*
X007505Y009221D02*
X007493Y009232D01*
X007470Y009232D01*
X007459Y009221D01*
X007459Y009175D01*
X007470Y009163D01*
X007493Y009163D01*
X007505Y009175D01*
X007434Y009163D02*
X007411Y009163D01*
X007422Y009163D02*
X007422Y009232D01*
X007411Y009232D02*
X007434Y009232D01*
X007096Y009332D02*
X007084Y009321D01*
X007062Y009321D01*
X007050Y009332D01*
X007050Y009355D02*
X007073Y009367D01*
X007084Y009367D01*
X007096Y009355D01*
X007096Y009332D01*
X007050Y009355D02*
X007050Y009390D01*
X007096Y009390D01*
X007023Y009378D02*
X007012Y009390D01*
X006989Y009390D01*
X006978Y009378D01*
X006978Y009332D01*
X006989Y009321D01*
X007012Y009321D01*
X007023Y009332D01*
X006966Y009232D02*
X006943Y009232D01*
X006932Y009221D01*
X006966Y009232D02*
X006978Y009221D01*
X006978Y009209D01*
X006932Y009163D01*
X006978Y009163D01*
X006905Y009163D02*
X006859Y009163D01*
X006859Y009232D01*
X006871Y009075D02*
X006859Y009063D01*
X006859Y009017D01*
X006871Y009006D01*
X006894Y009006D01*
X006905Y009017D01*
X006932Y009017D02*
X006932Y009006D01*
X006932Y009017D02*
X006978Y009063D01*
X006978Y009075D01*
X006932Y009075D01*
X006905Y009063D02*
X006894Y009075D01*
X006871Y009075D01*
X006950Y008917D02*
X006938Y008906D01*
X006938Y008860D01*
X006950Y008848D01*
X006973Y008848D01*
X006984Y008860D01*
X007011Y008848D02*
X007057Y008848D01*
X007034Y008848D02*
X007034Y008917D01*
X007011Y008894D01*
X006984Y008906D02*
X006973Y008917D01*
X006950Y008917D01*
X008198Y008917D02*
X008198Y008848D01*
X008244Y008848D01*
X008271Y008848D02*
X008316Y008848D01*
X008343Y008848D02*
X008377Y008848D01*
X008389Y008860D01*
X008389Y008906D01*
X008377Y008917D01*
X008343Y008917D01*
X008343Y008848D01*
X008293Y008883D02*
X008271Y008883D01*
X008271Y008917D02*
X008271Y008848D01*
X008271Y008917D02*
X008316Y008917D01*
X008416Y008906D02*
X008427Y008917D01*
X008450Y008917D01*
X008461Y008906D01*
X008461Y008894D01*
X008450Y008883D01*
X008461Y008871D01*
X008461Y008860D01*
X008450Y008848D01*
X008427Y008848D01*
X008416Y008860D01*
X008438Y008883D02*
X008450Y008883D01*
X008513Y008917D02*
X008513Y008848D01*
X008559Y008848D01*
X008586Y008848D02*
X008586Y008860D01*
X008631Y008906D01*
X008631Y008917D01*
X008586Y008917D01*
X008670Y008917D02*
X008705Y008917D01*
X008716Y008906D01*
X008716Y008883D01*
X008705Y008871D01*
X008670Y008871D01*
X008670Y008848D02*
X008670Y008917D01*
X008693Y008871D02*
X008716Y008848D01*
X008743Y008848D02*
X008789Y008848D01*
X008766Y008848D02*
X008766Y008917D01*
X008743Y008894D01*
X008816Y008894D02*
X008827Y008883D01*
X008861Y008883D01*
X008861Y008906D02*
X008850Y008917D01*
X008827Y008917D01*
X008816Y008906D01*
X008816Y008894D01*
X008816Y008860D02*
X008827Y008848D01*
X008850Y008848D01*
X008861Y008860D01*
X008861Y008906D01*
X008985Y008917D02*
X008985Y008848D01*
X009031Y008848D01*
X009058Y008860D02*
X009069Y008848D01*
X009092Y008848D01*
X009104Y008860D01*
X009104Y008871D01*
X009092Y008883D01*
X009058Y008883D01*
X009058Y008860D01*
X009058Y008883D02*
X009081Y008906D01*
X009104Y008917D01*
X009143Y008906D02*
X009143Y008860D01*
X009154Y008848D01*
X009177Y008848D01*
X009189Y008860D01*
X009215Y008860D02*
X009227Y008848D01*
X009250Y008848D01*
X009261Y008860D01*
X009261Y008871D01*
X009250Y008883D01*
X009238Y008883D01*
X009250Y008883D02*
X009261Y008894D01*
X009261Y008906D01*
X009250Y008917D01*
X009227Y008917D01*
X009215Y008906D01*
X009189Y008906D02*
X009177Y008917D01*
X009154Y008917D01*
X009143Y008906D01*
X014930Y009490D02*
X014942Y009478D01*
X014965Y009478D01*
X014976Y009490D01*
X015003Y009478D02*
X015049Y009478D01*
X015026Y009478D02*
X015026Y009547D01*
X015003Y009524D01*
X014976Y009536D02*
X014965Y009547D01*
X014942Y009547D01*
X014930Y009536D01*
X014930Y009490D01*
X015075Y009490D02*
X015087Y009478D01*
X015110Y009478D01*
X015121Y009490D01*
X015121Y009536D01*
X015110Y009547D01*
X015087Y009547D01*
X015075Y009536D01*
X015075Y009524D01*
X015087Y009513D01*
X015121Y009513D01*
X015121Y009636D02*
X015075Y009636D01*
X015098Y009636D02*
X015098Y009705D01*
X015075Y009682D01*
X015049Y009636D02*
X015003Y009636D01*
X015026Y009636D02*
X015026Y009705D01*
X015003Y009682D01*
X014976Y009693D02*
X014976Y009670D01*
X014965Y009659D01*
X014930Y009659D01*
X014953Y009659D02*
X014976Y009636D01*
X014930Y009636D02*
X014930Y009705D01*
X014965Y009705D01*
X014976Y009693D01*
X014976Y009793D02*
X014953Y009816D01*
X014965Y009816D02*
X014930Y009816D01*
X014930Y009793D02*
X014930Y009862D01*
X014965Y009862D01*
X014976Y009851D01*
X014976Y009828D01*
X014965Y009816D01*
X015003Y009793D02*
X015049Y009793D01*
X015026Y009793D02*
X015026Y009862D01*
X015003Y009839D01*
X015075Y009828D02*
X015110Y009828D01*
X015121Y009816D01*
X015121Y009805D01*
X015110Y009793D01*
X015087Y009793D01*
X015075Y009805D01*
X015075Y009828D01*
X015098Y009851D01*
X015121Y009862D01*
X017625Y009224D02*
X017648Y009224D01*
X017637Y009224D02*
X017637Y009155D01*
X017648Y009155D02*
X017625Y009155D01*
X017674Y009167D02*
X017685Y009155D01*
X017708Y009155D01*
X017720Y009167D01*
X017746Y009190D02*
X017792Y009190D01*
X017781Y009224D02*
X017746Y009190D01*
X017720Y009213D02*
X017708Y009224D01*
X017685Y009224D01*
X017674Y009213D01*
X017674Y009167D01*
X017726Y009075D02*
X017726Y009006D01*
X017726Y009029D02*
X017760Y009029D01*
X017771Y009040D01*
X017771Y009063D01*
X017760Y009075D01*
X017726Y009075D01*
X017749Y009029D02*
X017771Y009006D01*
X017798Y009017D02*
X017810Y009006D01*
X017833Y009006D01*
X017844Y009017D01*
X017844Y009029D01*
X017833Y009040D01*
X017821Y009040D01*
X017833Y009040D02*
X017844Y009052D01*
X017844Y009063D01*
X017833Y009075D01*
X017810Y009075D01*
X017798Y009063D01*
X017781Y009155D02*
X017781Y009224D01*
X017787Y008917D02*
X017798Y008906D01*
X017753Y008860D01*
X017764Y008848D01*
X017787Y008848D01*
X017798Y008860D01*
X017798Y008906D01*
X017787Y008917D02*
X017764Y008917D01*
X017753Y008906D01*
X017753Y008860D01*
X017726Y008848D02*
X017680Y008848D01*
X017726Y008894D01*
X017726Y008906D01*
X017714Y008917D01*
X017691Y008917D01*
X017680Y008906D01*
X017653Y008906D02*
X017642Y008917D01*
X017619Y008917D01*
X017608Y008906D01*
X017608Y008860D01*
X017619Y008848D01*
X017642Y008848D01*
X017653Y008860D01*
X018395Y008871D02*
X018429Y008871D01*
X018441Y008883D01*
X018441Y008906D01*
X018429Y008917D01*
X018395Y008917D01*
X018395Y008848D01*
X018418Y008871D02*
X018441Y008848D01*
X018467Y008883D02*
X018513Y008883D01*
X018502Y008917D02*
X018467Y008883D01*
X018502Y008917D02*
X018502Y008848D01*
X019537Y008848D02*
X019537Y008917D01*
X019571Y008917D01*
X019583Y008906D01*
X019583Y008883D01*
X019571Y008871D01*
X019537Y008871D01*
X019560Y008871D02*
X019583Y008848D01*
X019609Y008848D02*
X019655Y008848D01*
X019632Y008848D02*
X019632Y008917D01*
X019609Y008894D01*
X019682Y008883D02*
X019705Y008894D01*
X019716Y008894D01*
X019728Y008883D01*
X019728Y008860D01*
X019716Y008848D01*
X019693Y008848D01*
X019682Y008860D01*
X019682Y008883D02*
X019682Y008917D01*
X019728Y008917D01*
X019717Y009006D02*
X019717Y009075D01*
X019694Y009075D02*
X019740Y009075D01*
X019767Y009075D02*
X019801Y009075D01*
X019812Y009063D01*
X019812Y009040D01*
X019801Y009029D01*
X019767Y009029D01*
X019767Y009006D02*
X019767Y009075D01*
X019839Y009063D02*
X019851Y009075D01*
X019874Y009075D01*
X019885Y009063D01*
X019885Y009052D01*
X019839Y009006D01*
X019885Y009006D01*
X019930Y008917D02*
X019965Y008917D01*
X019976Y008906D01*
X019976Y008883D01*
X019965Y008871D01*
X019930Y008871D01*
X019930Y008848D02*
X019930Y008917D01*
X019953Y008871D02*
X019976Y008848D01*
X020003Y008848D02*
X020049Y008848D01*
X020026Y008848D02*
X020026Y008917D01*
X020003Y008894D01*
X020075Y008883D02*
X020121Y008883D01*
X020110Y008917D02*
X020075Y008883D01*
X020110Y008917D02*
X020110Y008848D01*
X020088Y009006D02*
X020088Y009075D01*
X020122Y009075D01*
X020134Y009063D01*
X020134Y009040D01*
X020122Y009029D01*
X020088Y009029D01*
X020111Y009029D02*
X020134Y009006D01*
X020160Y009006D02*
X020160Y009017D01*
X020206Y009063D01*
X020206Y009075D01*
X020160Y009075D01*
X020521Y009075D02*
X020521Y009006D01*
X020521Y009029D02*
X020555Y009029D01*
X020567Y009040D01*
X020567Y009063D01*
X020555Y009075D01*
X020521Y009075D01*
X020544Y009029D02*
X020567Y009006D01*
X020593Y009017D02*
X020605Y009006D01*
X020628Y009006D01*
X020639Y009017D01*
X020639Y009029D01*
X020628Y009040D01*
X020593Y009040D01*
X020593Y009017D01*
X020593Y009040D02*
X020616Y009063D01*
X020639Y009075D01*
X020633Y009163D02*
X020679Y009163D01*
X020705Y009163D02*
X020705Y009232D01*
X020740Y009232D01*
X020751Y009221D01*
X020751Y009175D01*
X020740Y009163D01*
X020705Y009163D01*
X020656Y009198D02*
X020633Y009198D01*
X020633Y009232D02*
X020633Y009163D01*
X020606Y009163D02*
X020560Y009163D01*
X020560Y009232D01*
X020633Y009232D02*
X020679Y009232D01*
X020778Y009221D02*
X020789Y009232D01*
X020812Y009232D01*
X020824Y009221D01*
X020824Y009209D01*
X020778Y009163D01*
X020824Y009163D01*
X020954Y009075D02*
X020988Y009075D01*
X021000Y009063D01*
X021000Y009040D01*
X020988Y009029D01*
X020954Y009029D01*
X020977Y009029D02*
X021000Y009006D01*
X021026Y009017D02*
X021038Y009006D01*
X021061Y009006D01*
X021072Y009017D01*
X021072Y009040D01*
X021061Y009052D01*
X021049Y009052D01*
X021026Y009040D01*
X021026Y009075D01*
X021072Y009075D01*
X020954Y009075D02*
X020954Y009006D01*
X020965Y008917D02*
X020954Y008906D01*
X020954Y008860D01*
X020965Y008848D01*
X020988Y008848D01*
X021000Y008860D01*
X021026Y008848D02*
X021072Y008894D01*
X021072Y008906D01*
X021061Y008917D01*
X021038Y008917D01*
X021026Y008906D01*
X021000Y008906D02*
X020988Y008917D01*
X020965Y008917D01*
X021026Y008848D02*
X021072Y008848D01*
X021099Y008860D02*
X021110Y008848D01*
X021133Y008848D01*
X021145Y008860D01*
X021145Y008883D01*
X021133Y008894D01*
X021122Y008894D01*
X021099Y008883D01*
X021099Y008917D01*
X021145Y008917D01*
X020600Y008906D02*
X020588Y008917D01*
X020565Y008917D01*
X020554Y008906D01*
X020527Y008906D02*
X020527Y008860D01*
X020516Y008848D01*
X020493Y008848D01*
X020482Y008860D01*
X020482Y008906D01*
X020493Y008917D01*
X020516Y008917D01*
X020527Y008906D01*
X020504Y008871D02*
X020527Y008848D01*
X020554Y008848D02*
X020600Y008894D01*
X020600Y008906D01*
X020600Y008848D02*
X020554Y008848D01*
X019688Y009163D02*
X019642Y009163D01*
X019665Y009163D02*
X019665Y009232D01*
X019642Y009209D01*
X019616Y009198D02*
X019604Y009186D01*
X019570Y009186D01*
X019570Y009163D02*
X019570Y009232D01*
X019604Y009232D01*
X019616Y009221D01*
X019616Y009198D01*
X019543Y009232D02*
X019497Y009232D01*
X019520Y009232D02*
X019520Y009163D01*
X019509Y009321D02*
X019532Y009321D01*
X019543Y009332D01*
X019570Y009321D02*
X019616Y009367D01*
X019616Y009378D01*
X019604Y009390D01*
X019581Y009390D01*
X019570Y009378D01*
X019543Y009378D02*
X019532Y009390D01*
X019509Y009390D01*
X019497Y009378D01*
X019497Y009332D01*
X019509Y009321D01*
X019570Y009321D02*
X019616Y009321D01*
X019642Y009321D02*
X019688Y009367D01*
X019688Y009378D01*
X019677Y009390D01*
X019654Y009390D01*
X019642Y009378D01*
X019642Y009321D02*
X019688Y009321D01*
X019689Y009478D02*
X019701Y009490D01*
X019689Y009478D02*
X019666Y009478D01*
X019655Y009490D01*
X019655Y009536D01*
X019666Y009547D01*
X019689Y009547D01*
X019701Y009536D01*
X019727Y009513D02*
X019762Y009513D01*
X019773Y009501D01*
X019773Y009490D01*
X019762Y009478D01*
X019739Y009478D01*
X019727Y009490D01*
X019727Y009513D01*
X019750Y009536D01*
X019773Y009547D01*
X019682Y009636D02*
X019636Y009636D01*
X019659Y009636D02*
X019659Y009705D01*
X019636Y009682D01*
X019609Y009693D02*
X019598Y009705D01*
X019564Y009705D01*
X019564Y009636D01*
X019598Y009636D01*
X019609Y009647D01*
X019609Y009693D01*
X019537Y009705D02*
X019491Y009705D01*
X019491Y009636D01*
X019537Y009636D01*
X019514Y009670D02*
X019491Y009670D01*
X019464Y009636D02*
X019419Y009636D01*
X019419Y009705D01*
X019930Y000374D02*
X019965Y000374D01*
X019976Y000362D01*
X019976Y000339D01*
X019965Y000328D01*
X019930Y000328D01*
X019930Y000305D02*
X019930Y000374D01*
X019953Y000328D02*
X019976Y000305D01*
X020003Y000316D02*
X020014Y000305D01*
X020037Y000305D01*
X020049Y000316D01*
X020049Y000362D01*
X020037Y000374D01*
X020014Y000374D01*
X020003Y000362D01*
X020003Y000351D01*
X020014Y000339D01*
X020049Y000339D01*
X018749Y000328D02*
X018749Y000316D01*
X018738Y000305D01*
X018715Y000305D01*
X018704Y000316D01*
X018704Y000328D01*
X018715Y000339D01*
X018738Y000339D01*
X018749Y000328D01*
X018738Y000339D02*
X018749Y000351D01*
X018749Y000362D01*
X018738Y000374D01*
X018715Y000374D01*
X018704Y000362D01*
X018704Y000351D01*
X018715Y000339D01*
X018677Y000339D02*
X018666Y000328D01*
X018631Y000328D01*
X018631Y000305D02*
X018631Y000374D01*
X018666Y000374D01*
X018677Y000362D01*
X018677Y000339D01*
X018654Y000328D02*
X018677Y000305D01*
X018586Y000316D02*
X018574Y000305D01*
X018551Y000305D01*
X018540Y000316D01*
X018540Y000339D02*
X018563Y000351D01*
X018574Y000351D01*
X018586Y000339D01*
X018586Y000316D01*
X018540Y000339D02*
X018540Y000374D01*
X018586Y000374D01*
X018513Y000362D02*
X018513Y000339D01*
X018502Y000328D01*
X018467Y000328D01*
X018467Y000305D02*
X018467Y000374D01*
X018502Y000374D01*
X018513Y000362D01*
X018441Y000374D02*
X018418Y000374D01*
X018429Y000374D02*
X018429Y000316D01*
X018418Y000305D01*
X018406Y000305D01*
X018395Y000316D01*
D12*
X007652Y007485D02*
X007654Y007498D01*
X007659Y007510D01*
X007668Y007521D01*
X007678Y007529D01*
X007691Y007533D01*
X007704Y007534D01*
X007717Y007531D01*
X007729Y007525D01*
X007739Y007516D01*
X007746Y007505D01*
X007750Y007492D01*
X007750Y007478D01*
X007746Y007465D01*
X007739Y007454D01*
X007729Y007445D01*
X007717Y007439D01*
X007704Y007436D01*
X007691Y007437D01*
X007678Y007441D01*
X007668Y007449D01*
X007659Y007460D01*
X007654Y007472D01*
X007652Y007485D01*
X007654Y007498D01*
X007659Y007510D01*
X007668Y007521D01*
X007678Y007529D01*
X007691Y007533D01*
X007704Y007534D01*
X007717Y007531D01*
X007729Y007525D01*
X007739Y007516D01*
X007746Y007505D01*
X007750Y007492D01*
X007750Y007478D01*
X007746Y007465D01*
X007739Y007454D01*
X007729Y007445D01*
X007717Y007439D01*
X007704Y007436D01*
X007691Y007437D01*
X007678Y007441D01*
X007668Y007449D01*
X007659Y007460D01*
X007654Y007472D01*
X007652Y007485D01*
X007654Y007498D01*
X007659Y007510D01*
X007668Y007521D01*
X007678Y007529D01*
X007691Y007533D01*
X007704Y007534D01*
X007717Y007531D01*
X007729Y007525D01*
X007739Y007516D01*
X007746Y007505D01*
X007750Y007492D01*
X007750Y007478D01*
X007746Y007465D01*
X007739Y007454D01*
X007729Y007445D01*
X007717Y007439D01*
X007704Y007436D01*
X007691Y007437D01*
X007678Y007441D01*
X007668Y007449D01*
X007659Y007460D01*
X007654Y007472D01*
X007652Y007485D01*
D13*
X007150Y004040D02*
X006717Y004040D01*
X006717Y004906D01*
X007150Y004906D01*
X007150Y004040D01*
X008380Y004326D02*
X008971Y004326D01*
X008971Y004641D01*
X008380Y004641D01*
X008380Y004326D01*
X009020Y004394D02*
X009020Y004985D01*
X009335Y004985D01*
X009335Y004394D01*
X009020Y004394D01*
X009414Y004394D02*
X009414Y004985D01*
X009728Y004985D01*
X009728Y004394D01*
X009414Y004394D01*
X009866Y004113D02*
X009988Y003991D01*
X011122Y003991D01*
X011244Y004113D01*
X011244Y005148D01*
X011122Y005270D01*
X009988Y005270D01*
X009866Y005148D01*
X009866Y004113D01*
X008971Y004719D02*
X008971Y005034D01*
X008380Y005034D01*
X008380Y004719D01*
X008971Y004719D01*
X008833Y005113D02*
X008242Y005113D01*
X008242Y005428D01*
X008833Y005428D01*
X008833Y005113D01*
X009207Y005113D02*
X009797Y005113D01*
X009797Y005428D01*
X009207Y005428D01*
X009207Y005113D01*
X009217Y005477D02*
X009532Y005477D01*
X009532Y006068D01*
X009217Y006068D01*
X009217Y005477D01*
X009158Y005556D02*
X009158Y006146D01*
X008843Y006146D01*
X008843Y005556D01*
X009158Y005556D01*
X008793Y005507D02*
X008203Y005507D01*
X008203Y005822D01*
X008793Y005822D01*
X008793Y005507D01*
X008793Y005900D02*
X008203Y005900D01*
X008203Y006215D01*
X008793Y006215D01*
X008793Y005900D01*
X009610Y006068D02*
X009610Y005477D01*
X009925Y005477D01*
X009925Y006068D01*
X009610Y006068D01*
X010516Y006265D02*
X011382Y006265D01*
X011382Y006698D01*
X010516Y006698D01*
X010516Y006265D01*
X010811Y006796D02*
X011402Y006796D01*
X011402Y007111D01*
X010811Y007111D01*
X010811Y006796D01*
X010811Y007190D02*
X011402Y007190D01*
X011402Y007505D01*
X010811Y007505D01*
X010811Y007190D01*
X008547Y007367D02*
X008547Y007957D01*
X008232Y007957D01*
X008232Y007367D01*
X008547Y007367D01*
X007681Y006894D02*
X007366Y006894D01*
X007366Y006304D01*
X007681Y006304D01*
X007681Y006894D01*
X007288Y006717D02*
X006697Y006717D01*
X006697Y006402D01*
X007288Y006402D01*
X007288Y006717D01*
X007012Y006304D02*
X006697Y006304D01*
X006697Y005713D01*
X007012Y005713D01*
X007012Y006304D01*
X007012Y005635D02*
X006697Y005635D01*
X006697Y005044D01*
X007012Y005044D01*
X007012Y005635D01*
X010457Y005654D02*
X010457Y005339D01*
X011047Y005339D01*
X011047Y005654D01*
X010457Y005654D01*
X011343Y005792D02*
X011343Y005202D01*
X012366Y005202D01*
X012366Y005792D01*
X011343Y005792D01*
X012701Y005497D02*
X012701Y005182D01*
X013291Y005182D01*
X013291Y005497D01*
X012701Y005497D01*
X013567Y005497D02*
X013567Y005182D01*
X014158Y005182D01*
X014158Y005497D01*
X013567Y005497D01*
X014276Y005654D02*
X014866Y005654D01*
X014866Y004631D01*
X014276Y004631D01*
X014276Y005654D01*
X014610Y005910D02*
X014610Y006501D01*
X014925Y006501D01*
X014925Y005910D01*
X014610Y005910D01*
X014630Y006875D02*
X015221Y006875D01*
X015221Y007190D01*
X014630Y007190D01*
X014630Y006875D01*
X014630Y007269D02*
X015221Y007269D01*
X015221Y007583D01*
X014630Y007583D01*
X014630Y007269D01*
X014630Y007662D02*
X015221Y007662D01*
X015221Y007977D01*
X014630Y007977D01*
X014630Y007662D01*
X014630Y008056D02*
X015221Y008056D01*
X015221Y008371D01*
X014630Y008371D01*
X014630Y008056D01*
X015280Y007800D02*
X015280Y008391D01*
X015595Y008391D01*
X015595Y007800D01*
X015280Y007800D01*
X015280Y007721D02*
X015280Y007131D01*
X015595Y007131D01*
X015595Y007721D01*
X015280Y007721D01*
X017425Y008095D02*
X018016Y008095D01*
X018016Y008410D01*
X017425Y008410D01*
X017425Y008095D01*
X018095Y008095D02*
X018685Y008095D01*
X018685Y008410D01*
X018095Y008410D01*
X018095Y008095D01*
X019768Y008036D02*
X019768Y007446D01*
X020083Y007446D01*
X020083Y008036D01*
X019768Y008036D01*
X020791Y007997D02*
X020791Y007406D01*
X021106Y007406D01*
X021106Y007997D01*
X020791Y007997D01*
X021264Y008174D02*
X021264Y004355D01*
X021362Y004355D01*
X020378Y004473D02*
X019788Y004473D01*
X019788Y004788D01*
X020378Y004788D01*
X020378Y004473D01*
X019827Y004828D02*
X019827Y005143D01*
X019236Y005143D01*
X019236Y004828D01*
X019827Y004828D01*
X017898Y004394D02*
X017898Y004080D01*
X017307Y004080D01*
X017307Y004394D01*
X017898Y004394D01*
X015319Y004572D02*
X015319Y003981D01*
X015004Y003981D01*
X015004Y004572D01*
X015319Y004572D01*
X014925Y004572D02*
X014925Y003981D01*
X014610Y003981D01*
X014610Y004572D01*
X014925Y004572D01*
X014532Y004572D02*
X014217Y004572D01*
X014217Y003981D01*
X014532Y003981D01*
X014532Y004572D01*
X019197Y005891D02*
X019788Y005891D01*
X019788Y006206D01*
X019197Y006206D01*
X019197Y005891D01*
X019492Y006304D02*
X019492Y006894D01*
X019807Y006894D01*
X019807Y006304D01*
X019492Y006304D01*
X020221Y006402D02*
X020221Y006087D01*
X020811Y006087D01*
X020811Y006402D01*
X020221Y006402D01*
X020791Y006461D02*
X021106Y006461D01*
X021106Y007052D01*
X020791Y007052D01*
X020791Y006461D01*
X021264Y008174D02*
X021362Y008174D01*
X025181Y008174D02*
X025240Y008174D01*
X025240Y004355D01*
X025181Y004355D01*
X020221Y001009D02*
X019630Y001009D01*
X019630Y000694D01*
X020221Y000694D01*
X020221Y001009D01*
X018921Y001009D02*
X018921Y000694D01*
X018331Y000694D01*
X018331Y001009D01*
X018921Y001009D01*
X008882Y008253D02*
X008291Y008253D01*
X008291Y008568D01*
X008882Y008568D01*
X008882Y008253D01*
D14*
X021766Y005240D02*
X021766Y005130D01*
X021803Y005093D01*
X021913Y005093D01*
X021913Y005240D01*
X021987Y005240D02*
X022097Y005240D01*
X022134Y005204D01*
X022134Y005130D01*
X022097Y005093D01*
X021987Y005093D01*
X021987Y005314D01*
X022208Y005314D02*
X022245Y005314D01*
X022245Y005093D01*
X022281Y005093D02*
X022208Y005093D01*
X022355Y005130D02*
X022392Y005093D01*
X022465Y005093D01*
X022502Y005130D01*
X022502Y005204D01*
X022465Y005240D01*
X022392Y005240D01*
X022355Y005204D01*
X022355Y005130D01*
X022576Y005093D02*
X022723Y005240D01*
X022576Y005240D02*
X022723Y005093D01*
X022750Y006216D02*
X022750Y006436D01*
X022824Y006362D01*
X022897Y006436D01*
X022897Y006216D01*
X022971Y006216D02*
X022971Y006362D01*
X023045Y006436D01*
X023118Y006362D01*
X023118Y006216D01*
X023192Y006216D02*
X023339Y006436D01*
X023413Y006326D02*
X023560Y006326D01*
X023634Y006326D02*
X023744Y006326D01*
X023781Y006289D01*
X023781Y006252D01*
X023744Y006216D01*
X023671Y006216D01*
X023634Y006252D01*
X023634Y006326D01*
X023708Y006399D01*
X023781Y006436D01*
X023339Y006216D02*
X023192Y006436D01*
X023118Y006326D02*
X022971Y006326D01*
D15*
X020752Y005969D02*
X020752Y005733D01*
X020752Y005969D02*
X020437Y005969D01*
X020752Y005103D02*
X020752Y004867D01*
X020437Y004867D01*
X020469Y007174D02*
X020545Y007290D01*
X020555Y007296D02*
X020647Y007174D01*
X020736Y007296D02*
X020555Y007296D01*
X020374Y007296D01*
X019595Y007690D02*
X019414Y007690D01*
X019506Y007568D01*
X019414Y007690D02*
X019232Y007690D01*
X019328Y007568D02*
X019404Y007684D01*
X013606Y005064D02*
X011914Y005064D01*
X011914Y003961D01*
X013606Y003961D01*
X013606Y005064D01*
X008248Y006395D02*
X008132Y006471D01*
X008126Y006481D02*
X008248Y006573D01*
X008126Y006662D02*
X008126Y006481D01*
X008126Y006300D01*
D16*
X012120Y004769D03*
D17*
X011697Y004896D03*
X011697Y004641D03*
X011697Y004385D03*
X011697Y004129D03*
X013823Y004129D03*
X013823Y004385D03*
X013823Y004641D03*
X013823Y004896D03*
D18*
X009788Y004355D02*
X009788Y004001D01*
X009787Y004001D02*
X009786Y003988D01*
X009781Y003975D01*
X009774Y003964D01*
X009765Y003955D01*
X009754Y003948D01*
X009741Y003943D01*
X009728Y003942D01*
X009020Y003942D01*
X009007Y003943D01*
X008994Y003948D01*
X008983Y003955D01*
X008974Y003964D01*
X008967Y003975D01*
X008962Y003988D01*
X008961Y004001D01*
X008961Y004355D01*
X008962Y004368D01*
X008967Y004381D01*
X008974Y004392D01*
X008983Y004401D01*
X008994Y004408D01*
X009007Y004413D01*
X009020Y004414D01*
X009728Y004414D01*
X009741Y004413D01*
X009754Y004408D01*
X009765Y004401D01*
X009774Y004392D01*
X009781Y004381D01*
X009786Y004368D01*
X009787Y004355D01*
X025930Y006260D02*
X026120Y006240D01*
X026141Y006176D01*
X026172Y006116D01*
X026051Y005968D01*
X026152Y005866D01*
X026301Y005987D01*
X026360Y005956D01*
X026445Y006161D01*
X026407Y006182D01*
X026376Y006212D01*
X026351Y006248D01*
X026336Y006288D01*
X026331Y006331D01*
X026337Y006375D01*
X026352Y006417D01*
X026377Y006453D01*
X026410Y006483D01*
X026449Y006503D01*
X026492Y006514D01*
X026536Y006515D01*
X026579Y006505D01*
X026618Y006485D01*
X026652Y006456D01*
X026678Y006420D01*
X026694Y006379D01*
X026700Y006336D01*
X026696Y006292D01*
X026681Y006250D01*
X026657Y006213D01*
X026625Y006183D01*
X026587Y006161D01*
X026671Y005956D01*
X026731Y005987D01*
X026879Y005866D01*
X026981Y005968D01*
X026860Y006116D01*
X026891Y006176D01*
X026912Y006240D01*
X027102Y006260D01*
X027102Y006403D01*
X026912Y006423D01*
X026891Y006487D01*
X026860Y006547D01*
X026981Y006695D01*
X026879Y006797D01*
X026731Y006676D01*
X026671Y006707D01*
X026607Y006727D01*
X026588Y006918D01*
X026444Y006918D01*
X026425Y006727D01*
X026361Y006707D01*
X026301Y006676D01*
X026152Y006797D01*
X026051Y006695D01*
X026172Y006547D01*
X026141Y006487D01*
X026120Y006423D01*
X025930Y006403D01*
X025930Y006260D01*
X025930Y006271D02*
X026343Y006271D01*
X026332Y006328D02*
X025930Y006328D01*
X025930Y006386D02*
X026341Y006386D01*
X026370Y006443D02*
X026127Y006443D01*
X026148Y006501D02*
X026444Y006501D01*
X026587Y006501D02*
X026884Y006501D01*
X026870Y006558D02*
X026162Y006558D01*
X026115Y006616D02*
X026917Y006616D01*
X026964Y006673D02*
X026068Y006673D01*
X026086Y006731D02*
X026233Y006731D01*
X026162Y006789D02*
X026144Y006789D01*
X026431Y006789D02*
X026601Y006789D01*
X026595Y006846D02*
X026437Y006846D01*
X026443Y006904D02*
X026589Y006904D01*
X026607Y006731D02*
X026425Y006731D01*
X026799Y006731D02*
X026945Y006731D01*
X026888Y006789D02*
X026869Y006789D01*
X026905Y006443D02*
X026661Y006443D01*
X026692Y006386D02*
X027102Y006386D01*
X027102Y006328D02*
X026700Y006328D01*
X026689Y006271D02*
X027102Y006271D01*
X026903Y006213D02*
X026657Y006213D01*
X026589Y006155D02*
X026880Y006155D01*
X026875Y006098D02*
X026613Y006098D01*
X026636Y006040D02*
X026922Y006040D01*
X026969Y005983D02*
X026736Y005983D01*
X026723Y005983D02*
X026660Y005983D01*
X026807Y005925D02*
X026939Y005925D01*
X026881Y005868D02*
X026878Y005868D01*
X026395Y006040D02*
X026110Y006040D01*
X026063Y005983D02*
X026295Y005983D01*
X026309Y005983D02*
X026371Y005983D01*
X026419Y006098D02*
X026157Y006098D01*
X026151Y006155D02*
X026443Y006155D01*
X026375Y006213D02*
X026129Y006213D01*
X026093Y005925D02*
X026225Y005925D01*
X026154Y005868D02*
X026151Y005868D01*
D19*
X020737Y005978D02*
X020737Y004858D01*
X020217Y004858D01*
X020217Y005978D01*
X020737Y005978D01*
X018963Y005106D02*
X018963Y004806D01*
X018663Y004806D01*
X018663Y005006D02*
X018763Y005106D01*
X017943Y004566D02*
X017943Y004166D01*
X016463Y004806D02*
X016163Y004806D01*
X016163Y005106D01*
X015923Y006346D02*
X015523Y006346D01*
X016163Y007306D02*
X016163Y007606D01*
X016463Y007606D01*
X018193Y007846D02*
X018193Y008246D01*
X018663Y007606D02*
X018963Y007606D01*
X018963Y007306D01*
X010673Y006206D02*
X010437Y006206D01*
X010437Y005733D02*
X010673Y005733D01*
X007850Y004814D02*
X007670Y004814D01*
X007480Y004454D02*
X007480Y004334D01*
X007670Y003974D02*
X007850Y003974D01*
X007810Y004085D02*
X007791Y004092D01*
X007770Y004096D01*
X007750Y004096D01*
X007729Y004092D01*
X007710Y004085D01*
X015429Y002940D02*
X015429Y001440D01*
X015679Y001190D01*
X016179Y001190D01*
X016429Y001440D01*
X016429Y002940D01*
X016179Y003190D01*
X015679Y003190D01*
X015429Y002940D01*
X016429Y002940D02*
X016679Y003190D01*
X017179Y003190D01*
X017429Y002940D01*
X017429Y001440D01*
X017179Y001190D01*
X016679Y001190D01*
X016429Y001440D01*
X017429Y001440D02*
X017679Y001190D01*
X018179Y001190D01*
X018429Y001440D01*
X018429Y002940D01*
X018179Y003190D01*
X017679Y003190D01*
X017429Y002940D01*
X018429Y002940D02*
X018679Y003190D01*
X019179Y003190D01*
X019429Y002940D01*
X019429Y001440D01*
X019179Y001190D01*
X018679Y001190D01*
X018429Y001440D01*
X019429Y001440D02*
X019679Y001190D01*
X020179Y001190D01*
X020429Y001440D01*
X020429Y002940D01*
X020179Y003190D01*
X019679Y003190D01*
X019429Y002940D01*
X020429Y002940D02*
X020679Y003190D01*
X021179Y003190D01*
X021429Y002940D01*
X021429Y001440D01*
X021179Y001190D01*
X020679Y001190D01*
X020429Y001440D01*
D20*
X019538Y004879D02*
X019225Y005192D01*
X019538Y004879D01*
X019538Y005035D02*
X019225Y005035D01*
X019538Y005035D01*
X019538Y005192D02*
X019225Y004879D01*
X019538Y005192D01*
X019381Y005192D02*
X019381Y004879D01*
X019381Y005192D01*
D21*
X018963Y005246D02*
X018963Y005376D01*
X018963Y005306D02*
X018463Y004806D01*
X018523Y004806D02*
X018393Y004806D01*
X018273Y004806D02*
X018133Y004806D01*
X018013Y004806D02*
X017873Y004806D01*
X017763Y004806D02*
X017623Y004806D01*
X017503Y004806D02*
X017363Y004806D01*
X017253Y004806D02*
X017113Y004806D01*
X016993Y004806D02*
X016853Y004806D01*
X016733Y004806D02*
X016603Y004806D01*
X016163Y004806D02*
X018963Y004806D01*
X018963Y007606D01*
X016163Y007606D01*
X016163Y004806D01*
X016163Y005246D02*
X016163Y005376D01*
X016163Y005496D02*
X016163Y005636D01*
X016163Y005756D02*
X016163Y005896D01*
X016163Y006006D02*
X016163Y006146D01*
X016163Y006266D02*
X016163Y006406D01*
X016163Y006516D02*
X016163Y006656D01*
X016163Y006776D02*
X016163Y006916D01*
X016163Y007036D02*
X016163Y007166D01*
X016603Y007606D02*
X016733Y007606D01*
X016853Y007606D02*
X016993Y007606D01*
X017113Y007606D02*
X017253Y007606D01*
X017363Y007606D02*
X017503Y007606D01*
X017623Y007606D02*
X017763Y007606D01*
X017873Y007606D02*
X018013Y007606D01*
X018133Y007606D02*
X018273Y007606D01*
X018393Y007606D02*
X018523Y007606D01*
X018963Y007166D02*
X018963Y007036D01*
X018963Y006916D02*
X018963Y006776D01*
X018963Y006656D02*
X018963Y006516D01*
X018963Y006406D02*
X018963Y006266D01*
X018963Y006146D02*
X018963Y006006D01*
X018963Y005896D02*
X018963Y005756D01*
X018963Y005636D02*
X018963Y005496D01*
X008230Y004704D02*
X008040Y004704D01*
X008040Y004594D01*
X008230Y004594D01*
X008230Y004704D01*
X008040Y004704D02*
X008040Y004814D01*
X007480Y004814D01*
X007480Y004704D01*
X007290Y004704D01*
X007290Y004594D01*
X007480Y004594D01*
X007480Y004194D01*
X007290Y004194D01*
X007290Y004084D01*
X007480Y004084D01*
X007480Y004194D01*
X007480Y004084D02*
X007480Y003974D01*
X007640Y003974D01*
X007880Y003974D01*
X008040Y003974D01*
X008040Y004084D01*
X008230Y004084D01*
X008230Y004194D01*
X008040Y004194D01*
X008040Y004334D01*
X008230Y004334D01*
X008230Y004454D01*
X008040Y004454D01*
X008040Y004594D01*
X008040Y004454D02*
X008040Y004334D01*
X008040Y004194D02*
X008040Y004084D01*
X007880Y003974D02*
X007878Y003995D01*
X007873Y004015D01*
X007864Y004034D01*
X007852Y004051D01*
X007837Y004066D01*
X007820Y004078D01*
X007801Y004087D01*
X007781Y004092D01*
X007760Y004094D01*
X007739Y004092D01*
X007719Y004087D01*
X007700Y004078D01*
X007683Y004066D01*
X007668Y004051D01*
X007656Y004034D01*
X007647Y004015D01*
X007642Y003995D01*
X007640Y003974D01*
X007480Y004594D02*
X007480Y004704D01*
D22*
X006854Y005192D03*
X006854Y005487D03*
X006854Y005861D03*
X006854Y006156D03*
X007524Y006452D03*
X007524Y006747D03*
X008390Y007515D03*
X008390Y007810D03*
X009000Y005999D03*
X009374Y005920D03*
X009768Y005920D03*
X009768Y005625D03*
X009374Y005625D03*
X009000Y005704D03*
X009177Y004837D03*
X009177Y004542D03*
X009571Y004542D03*
X009571Y004837D03*
X014374Y004424D03*
X014374Y004129D03*
X014768Y004129D03*
X015162Y004129D03*
X015162Y004424D03*
X014768Y004424D03*
X014768Y006058D03*
X014768Y006353D03*
X015437Y007278D03*
X015437Y007574D03*
X015437Y007948D03*
X015437Y008243D03*
X019650Y006747D03*
X019650Y006452D03*
X020949Y006609D03*
X020949Y006904D03*
X020949Y007554D03*
X020949Y007849D03*
X019925Y007889D03*
X019925Y007593D03*
D23*
X019847Y007741D03*
X020004Y007741D03*
X020870Y007702D03*
X021028Y007702D03*
X021028Y006757D03*
X020870Y006757D03*
X019728Y006599D03*
X019571Y006599D03*
X015516Y007426D03*
X015358Y007426D03*
X015358Y008095D03*
X015516Y008095D03*
X014847Y006206D03*
X014689Y006206D03*
X014689Y004276D03*
X014847Y004276D03*
X015083Y004276D03*
X015240Y004276D03*
X014453Y004276D03*
X014295Y004276D03*
X009847Y005772D03*
X009689Y005772D03*
X009453Y005772D03*
X009295Y005772D03*
X009079Y005851D03*
X008921Y005851D03*
X007603Y006599D03*
X007445Y006599D03*
X006933Y006009D03*
X006776Y006009D03*
X006776Y005339D03*
X006933Y005339D03*
X009099Y004690D03*
X009256Y004690D03*
X009492Y004690D03*
X009650Y004690D03*
X008469Y007662D03*
X008311Y007662D03*
D24*
X011520Y005497D03*
X012189Y005497D03*
D25*
X011854Y005704D03*
X011854Y005290D03*
D26*
X010900Y005497D03*
X010604Y005497D03*
X009650Y005270D03*
X009354Y005270D03*
X008823Y004877D03*
X008528Y004877D03*
X008528Y004483D03*
X008823Y004483D03*
X008685Y005270D03*
X008390Y005270D03*
X008351Y005664D03*
X008646Y005664D03*
X008646Y006058D03*
X008351Y006058D03*
X007140Y006560D03*
X006845Y006560D03*
X008439Y008410D03*
X008734Y008410D03*
X010959Y007347D03*
X011254Y007347D03*
X011254Y006954D03*
X010959Y006954D03*
X012849Y005339D03*
X013144Y005339D03*
X013715Y005339D03*
X014010Y005339D03*
X014778Y007032D03*
X015073Y007032D03*
X015073Y007426D03*
X014778Y007426D03*
X014778Y007820D03*
X015073Y007820D03*
X015073Y008213D03*
X014778Y008213D03*
X017573Y008253D03*
X017868Y008253D03*
X018242Y008253D03*
X018538Y008253D03*
X020368Y006245D03*
X020664Y006245D03*
X019640Y006048D03*
X019345Y006048D03*
X019384Y004985D03*
X019679Y004985D03*
X019935Y004631D03*
X020230Y004631D03*
X017750Y004237D03*
X017455Y004237D03*
X018478Y000851D03*
X018774Y000851D03*
X019778Y000851D03*
X020073Y000851D03*
D27*
X019925Y000772D03*
X019925Y000930D03*
X018626Y000930D03*
X018626Y000772D03*
X017603Y004158D03*
X017603Y004316D03*
X019532Y004906D03*
X019532Y005064D03*
X020083Y004709D03*
X020083Y004552D03*
X019492Y005969D03*
X019492Y006127D03*
X020516Y006166D03*
X020516Y006324D03*
X018390Y008174D03*
X018390Y008331D03*
X017721Y008331D03*
X017721Y008174D03*
X014925Y008135D03*
X014925Y008292D03*
X014925Y007898D03*
X014925Y007741D03*
X014925Y007505D03*
X014925Y007347D03*
X014925Y007111D03*
X014925Y006954D03*
X013862Y005418D03*
X013862Y005261D03*
X012996Y005261D03*
X012996Y005418D03*
X010752Y005418D03*
X010752Y005576D03*
X009502Y005349D03*
X009502Y005192D03*
X008675Y004956D03*
X008675Y004798D03*
X008675Y004562D03*
X008675Y004404D03*
X008538Y005192D03*
X008538Y005349D03*
X008498Y005585D03*
X008498Y005743D03*
X008498Y005979D03*
X008498Y006137D03*
X006992Y006481D03*
X006992Y006639D03*
X008587Y008331D03*
X008587Y008489D03*
X011106Y007426D03*
X011106Y007269D03*
X011106Y007032D03*
X011106Y006875D03*
D28*
X014571Y005477D03*
X014571Y004808D03*
D29*
X014364Y005143D03*
X014778Y005143D03*
D30*
X011205Y006481D03*
X010693Y006481D03*
D31*
X010949Y006343D03*
X010949Y006619D03*
D32*
X006933Y004729D03*
X006933Y004217D03*
D33*
X006795Y004473D03*
X007071Y004473D03*
D34*
X007653Y005398D02*
X007655Y005408D01*
X007660Y005417D01*
X007669Y005423D01*
X007678Y005426D01*
X007689Y005425D01*
X007698Y005420D01*
X007705Y005413D01*
X007709Y005403D01*
X007709Y005393D01*
X007705Y005383D01*
X007698Y005376D01*
X007689Y005371D01*
X007678Y005370D01*
X007669Y005373D01*
X007660Y005379D01*
X007655Y005388D01*
X007653Y005398D01*
D35*
X015929Y002690D03*
X016929Y002690D03*
X017929Y002690D03*
X018929Y002690D03*
X019929Y002690D03*
X020929Y002690D03*
X020929Y001690D03*
X019929Y001690D03*
X018929Y001690D03*
X017929Y001690D03*
X016929Y001690D03*
X015929Y001690D03*
D36*
X024780Y009822D03*
M02*
