%
M48
M72
T01C0.0118
T02C0.0120
T03C0.0236
T04C0.0315
T05C0.0400
%
T01
X7760Y4119
X7406Y4355
X7760Y4591
X7681Y5024
X8075Y4985
X9020Y5398
X10162Y5497
X11303Y6009
X10949Y6402
X10280Y6402
X10673Y6835
X11658Y6973
X12130Y7111
X11087Y7682
X10969Y7977
X11421Y8292
X12563Y8292
X9492Y8410
X9138Y8410
X8547Y8095
X8232Y8095
X7681Y7780
X7760Y7465
X7051Y7505
X7091Y6954
X8272Y6796
X8862Y6481
X8311Y7111
X7209Y6206
X7563Y6127
X6185Y4867
X6185Y4355
X10319Y4709
X10595Y4434
X12091Y4434
X12760Y4631
X13232Y4631
X12484Y5064
X12130Y5024
X13429Y5339
X13390Y5772
X12799Y5772
X13429Y6127
X14059Y5772
X15162Y6048
X15831Y5812
X15201Y5457
X15004Y4788
X15870Y4709
X16303Y4709
X15949Y4237
X15477Y4237
X17209Y4237
X17406Y4552
X17721Y4513
X18075Y4473
X18429Y4473
X18784Y4828
X19059Y4670
X19610Y4670
X19059Y4985
X20004Y5418
X20555Y4985
X20595Y4670
X20988Y4355
X21225Y4670
X22248Y4946
X22563Y4946
X22721Y5300
X23075Y5379
X23705Y5300
X24571Y4946
X24965Y4946
X25043Y5457
X22051Y5812
X20595Y6560
X20083Y6481
X19965Y6166
X19315Y6402
X18193Y6206
X17563Y6206
X16933Y6206
X15870Y6560
X15201Y6678
X14768Y6678
X15713Y6835
X16933Y6835
X17563Y6835
X18193Y6835
X19354Y7347
X19768Y7347
X19158Y7623
X18882Y7465
X18232Y7938
X17878Y7938
X17406Y7938
X17091Y7938
X16776Y7957
X16461Y7957
X16284Y8233
X15988Y8095
X17209Y8371
X18862Y8410
X20437Y8371
X21028Y8371
X21540Y7583
X22012Y7583
X22445Y7505
X22130Y7229
X21618Y7269
X22248Y6875
X22996Y7505
X23508Y7505
X24099Y7505
X24453Y7347
X20870Y7229
X20201Y6993
X18193Y5576
X17563Y5576
X16933Y5576
X12563Y6284
X7366Y8292
X6185Y8213
X6185Y7702
X19414Y3174
X20201Y2190
X19453Y1363
X19217Y1048
X19453Y812
X18705Y1206
X18036Y1127
X17445Y891
T02
X9788Y6934
X9276Y6934
X9276Y7446
X9788Y7446
T03
X15667Y3686
X16167Y3686
X16667Y3686
X17167Y3686
X17667Y3686
X18167Y3686
X18667Y3686
X19167Y3686
X19667Y3686
X20167Y3686
X21553Y5333
X21553Y5833
X21553Y6333
T04
X6185Y7190
X6185Y5379
T05
X15929Y2690
X16929Y2690
X17929Y2690
X18929Y2690
X19929Y2690
X20929Y2690
X20929Y1690
X19929Y1690
X18929Y1690
X17929Y1690
X16929Y1690
X15929Y1690
M30
