G75*
%MOIN*%
%OFA0B0*%
%FSLAX24Y24*%
%IPPOS*%
%LPD*%
%AMOC8*
5,1,8,0,0,1.08239X$1,22.5*
%
%ADD10C,0.0050*%
%ADD11C,0.0010*%
%ADD12C,0.0240*%
%ADD13C,0.0039*%
%ADD14C,0.0020*%
%ADD15C,0.0080*%
%ADD16C,0.0256*%
%ADD17C,0.0059*%
%ADD18C,0.0060*%
%ADD19C,0.0030*%
D10*
X015410Y003561D02*
X015410Y003811D01*
X015535Y003936D01*
X020285Y003936D01*
X020410Y003811D01*
X020410Y003561D01*
X020285Y003436D01*
X015535Y003436D01*
X015410Y003561D01*
X021570Y005221D02*
X021572Y005246D01*
X021578Y005270D01*
X021587Y005293D01*
X021600Y005314D01*
X021617Y005333D01*
X021636Y005350D01*
X021657Y005363D01*
X021680Y005372D01*
X021704Y005378D01*
X021729Y005380D01*
X021754Y005378D01*
X021778Y005372D01*
X021801Y005363D01*
X021822Y005350D01*
X021841Y005333D01*
X021858Y005314D01*
X021871Y005293D01*
X021880Y005270D01*
X021886Y005246D01*
X021888Y005221D01*
X021886Y005196D01*
X021880Y005172D01*
X021871Y005149D01*
X021858Y005128D01*
X021841Y005109D01*
X021822Y005092D01*
X021801Y005079D01*
X021778Y005070D01*
X021754Y005064D01*
X021729Y005062D01*
X021704Y005064D01*
X021680Y005070D01*
X021657Y005079D01*
X021636Y005092D01*
X021617Y005109D01*
X021600Y005128D01*
X021587Y005149D01*
X021578Y005172D01*
X021572Y005196D01*
X021570Y005221D01*
X014485Y006245D02*
X014485Y008135D01*
X014028Y007387D02*
X014030Y007410D01*
X014036Y007433D01*
X014045Y007455D01*
X014058Y007474D01*
X014074Y007491D01*
X014092Y007506D01*
X014113Y007517D01*
X014135Y007525D01*
X014158Y007529D01*
X014182Y007529D01*
X014205Y007525D01*
X014227Y007517D01*
X014248Y007506D01*
X014266Y007491D01*
X014282Y007474D01*
X014295Y007455D01*
X014304Y007433D01*
X014310Y007410D01*
X014312Y007387D01*
X014310Y007364D01*
X014304Y007341D01*
X014295Y007319D01*
X014282Y007300D01*
X014266Y007283D01*
X014248Y007268D01*
X014227Y007257D01*
X014205Y007249D01*
X014182Y007245D01*
X014158Y007245D01*
X014135Y007249D01*
X014113Y007257D01*
X014092Y007268D01*
X014074Y007283D01*
X014058Y007300D01*
X014045Y007319D01*
X014036Y007341D01*
X014030Y007364D01*
X014028Y007387D01*
X011493Y008135D02*
X011493Y006245D01*
X010312Y006402D02*
X010312Y006639D01*
X010312Y006402D02*
X010076Y006402D01*
X008993Y006402D02*
X008737Y006658D01*
X008137Y006993D02*
X008137Y008568D01*
X006660Y008568D01*
X006660Y006993D01*
X008137Y006993D01*
X008737Y007741D02*
X008737Y007977D01*
X008973Y007977D01*
X010076Y007977D02*
X010312Y007977D01*
X010312Y007741D01*
D11*
X010553Y008848D02*
X010599Y008848D01*
X010626Y008848D02*
X010672Y008848D01*
X010649Y008848D02*
X010649Y008917D01*
X010626Y008894D01*
X010553Y008917D02*
X010553Y008848D01*
X010553Y009006D02*
X010599Y009006D01*
X010626Y009017D02*
X010637Y009006D01*
X010660Y009006D01*
X010672Y009017D01*
X010672Y009040D01*
X010660Y009052D01*
X010649Y009052D01*
X010626Y009040D01*
X010626Y009075D01*
X010672Y009075D01*
X010553Y009075D02*
X010553Y009006D01*
X010750Y008906D02*
X010750Y008860D01*
X010762Y008848D01*
X010784Y008848D01*
X010796Y008860D01*
X010823Y008848D02*
X010868Y008848D01*
X010846Y008848D02*
X010846Y008917D01*
X010823Y008894D01*
X010796Y008906D02*
X010784Y008917D01*
X010762Y008917D01*
X010750Y008906D01*
X010895Y008894D02*
X010918Y008917D01*
X010918Y008848D01*
X010895Y008848D02*
X010941Y008848D01*
X010986Y008860D02*
X010998Y008848D01*
X011021Y008848D01*
X011032Y008860D01*
X011059Y008848D02*
X011105Y008848D01*
X011082Y008848D02*
X011082Y008917D01*
X011059Y008894D01*
X011032Y008906D02*
X011021Y008917D01*
X010998Y008917D01*
X010986Y008906D01*
X010986Y008860D01*
X011131Y008860D02*
X011131Y008848D01*
X011131Y008860D02*
X011177Y008906D01*
X011177Y008917D01*
X011131Y008917D01*
X011139Y009006D02*
X011150Y009017D01*
X011139Y009006D02*
X011116Y009006D01*
X011104Y009017D01*
X011104Y009063D01*
X011116Y009075D01*
X011139Y009075D01*
X011150Y009063D01*
X011177Y009052D02*
X011200Y009075D01*
X011200Y009006D01*
X011177Y009006D02*
X011223Y009006D01*
X011249Y009017D02*
X011261Y009006D01*
X011284Y009006D01*
X011295Y009017D01*
X011295Y009040D01*
X011284Y009052D01*
X011272Y009052D01*
X011249Y009040D01*
X011249Y009075D01*
X011295Y009075D01*
X011284Y009163D02*
X011295Y009175D01*
X011295Y009186D01*
X011284Y009198D01*
X011249Y009198D01*
X011249Y009175D01*
X011261Y009163D01*
X011284Y009163D01*
X011249Y009198D02*
X011272Y009221D01*
X011295Y009232D01*
X011200Y009232D02*
X011200Y009163D01*
X011177Y009163D02*
X011223Y009163D01*
X011177Y009209D02*
X011200Y009232D01*
X011150Y009221D02*
X011139Y009232D01*
X011116Y009232D01*
X011104Y009221D01*
X011104Y009175D01*
X011116Y009163D01*
X011139Y009163D01*
X011150Y009175D01*
X011852Y008906D02*
X011864Y008917D01*
X011887Y008917D01*
X011898Y008906D01*
X011925Y008894D02*
X011948Y008917D01*
X011948Y008848D01*
X011925Y008848D02*
X011971Y008848D01*
X011997Y008848D02*
X012043Y008894D01*
X012043Y008906D01*
X012032Y008917D01*
X012009Y008917D01*
X011997Y008906D01*
X011997Y008848D02*
X012043Y008848D01*
X011898Y008860D02*
X011887Y008848D01*
X011864Y008848D01*
X011852Y008860D01*
X011852Y008906D01*
X012758Y008917D02*
X012781Y008917D01*
X012769Y008917D02*
X012769Y008848D01*
X012758Y008848D02*
X012781Y008848D01*
X012806Y008860D02*
X012818Y008848D01*
X012841Y008848D01*
X012852Y008860D01*
X012879Y008860D02*
X012890Y008848D01*
X012913Y008848D01*
X012925Y008860D01*
X012925Y008883D01*
X012913Y008894D01*
X012902Y008894D01*
X012879Y008883D01*
X012879Y008917D01*
X012925Y008917D01*
X012994Y008917D02*
X013029Y008917D01*
X013040Y008906D01*
X013040Y008883D01*
X013029Y008871D01*
X012994Y008871D01*
X012994Y008848D02*
X012994Y008917D01*
X013017Y008871D02*
X013040Y008848D01*
X013067Y008848D02*
X013113Y008848D01*
X013090Y008848D02*
X013090Y008917D01*
X013067Y008894D01*
X013139Y008894D02*
X013139Y008906D01*
X013151Y008917D01*
X013174Y008917D01*
X013185Y008906D01*
X013185Y008894D01*
X013174Y008883D01*
X013151Y008883D01*
X013139Y008894D01*
X013151Y008883D02*
X013139Y008871D01*
X013139Y008860D01*
X013151Y008848D01*
X013174Y008848D01*
X013185Y008860D01*
X013185Y008871D01*
X013174Y008883D01*
X013185Y009006D02*
X013139Y009075D01*
X013113Y009063D02*
X013101Y009075D01*
X013078Y009075D01*
X013067Y009063D01*
X013067Y009017D01*
X013078Y009006D01*
X013101Y009006D01*
X013113Y009017D01*
X013139Y009006D02*
X013185Y009075D01*
X013212Y009063D02*
X013212Y009017D01*
X013223Y009006D01*
X013246Y009006D01*
X013258Y009017D01*
X013258Y009063D01*
X013246Y009075D01*
X013223Y009075D01*
X013212Y009063D01*
X013040Y009075D02*
X013040Y009029D01*
X013017Y009006D01*
X012994Y009029D01*
X012994Y009075D01*
X012841Y008917D02*
X012818Y008917D01*
X012806Y008906D01*
X012806Y008860D01*
X012852Y008906D02*
X012841Y008917D01*
X013860Y008917D02*
X013860Y008848D01*
X013860Y008871D02*
X013895Y008871D01*
X013906Y008883D01*
X013906Y008906D01*
X013895Y008917D01*
X013860Y008917D01*
X013883Y008871D02*
X013906Y008848D01*
X013933Y008848D02*
X013979Y008848D01*
X013956Y008848D02*
X013956Y008917D01*
X013933Y008894D01*
X014005Y008917D02*
X014051Y008917D01*
X014051Y008906D01*
X014005Y008860D01*
X014005Y008848D01*
X014412Y008848D02*
X014412Y008917D01*
X014446Y008917D01*
X014457Y008906D01*
X014457Y008883D01*
X014446Y008871D01*
X014412Y008871D01*
X014434Y008871D02*
X014457Y008848D01*
X014484Y008848D02*
X014530Y008848D01*
X014507Y008848D02*
X014507Y008917D01*
X014484Y008894D01*
X014580Y009006D02*
X014603Y009006D01*
X014615Y009017D01*
X014641Y009006D02*
X014687Y009006D01*
X014664Y009006D02*
X014664Y009075D01*
X014641Y009052D01*
X014615Y009063D02*
X014603Y009075D01*
X014580Y009075D01*
X014569Y009063D01*
X014569Y009017D01*
X014580Y009006D01*
X014714Y009017D02*
X014725Y009006D01*
X014748Y009006D01*
X014760Y009017D01*
X014760Y009029D01*
X014748Y009040D01*
X014737Y009040D01*
X014748Y009040D02*
X014760Y009052D01*
X014760Y009063D01*
X014748Y009075D01*
X014725Y009075D01*
X014714Y009063D01*
X014777Y009163D02*
X014800Y009163D01*
X014812Y009175D01*
X014838Y009163D02*
X014884Y009209D01*
X014884Y009221D01*
X014873Y009232D01*
X014850Y009232D01*
X014838Y009221D01*
X014812Y009221D02*
X014800Y009232D01*
X014777Y009232D01*
X014766Y009221D01*
X014766Y009175D01*
X014777Y009163D01*
X014838Y009163D02*
X014884Y009163D01*
X014911Y009163D02*
X014957Y009163D01*
X014934Y009163D02*
X014934Y009232D01*
X014911Y009209D01*
X014923Y009321D02*
X014923Y009390D01*
X014958Y009390D01*
X014969Y009378D01*
X014969Y009355D01*
X014958Y009344D01*
X014923Y009344D01*
X014946Y009344D02*
X014969Y009321D01*
X014996Y009321D02*
X015042Y009321D01*
X015019Y009321D02*
X015019Y009390D01*
X014996Y009367D01*
X015068Y009378D02*
X015080Y009390D01*
X015103Y009390D01*
X015114Y009378D01*
X015114Y009367D01*
X015068Y009321D01*
X015114Y009321D01*
X015103Y009478D02*
X015114Y009490D01*
X015114Y009536D01*
X015103Y009547D01*
X015080Y009547D01*
X015068Y009536D01*
X015068Y009524D01*
X015080Y009513D01*
X015114Y009513D01*
X015103Y009478D02*
X015080Y009478D01*
X015068Y009490D01*
X015042Y009478D02*
X014996Y009478D01*
X015019Y009478D02*
X015019Y009547D01*
X014996Y009524D01*
X014969Y009536D02*
X014958Y009547D01*
X014935Y009547D01*
X014923Y009536D01*
X014923Y009490D01*
X014935Y009478D01*
X014958Y009478D01*
X014969Y009490D01*
X014969Y009636D02*
X014946Y009659D01*
X014958Y009659D02*
X014923Y009659D01*
X014923Y009636D02*
X014923Y009705D01*
X014958Y009705D01*
X014969Y009693D01*
X014969Y009670D01*
X014958Y009659D01*
X014996Y009682D02*
X015019Y009705D01*
X015019Y009636D01*
X014996Y009636D02*
X015042Y009636D01*
X015068Y009636D02*
X015114Y009636D01*
X015091Y009636D02*
X015091Y009705D01*
X015068Y009682D01*
X015080Y009793D02*
X015103Y009793D01*
X015114Y009805D01*
X015114Y009816D01*
X015103Y009828D01*
X015068Y009828D01*
X015068Y009805D01*
X015080Y009793D01*
X015068Y009828D02*
X015091Y009851D01*
X015114Y009862D01*
X015019Y009862D02*
X015019Y009793D01*
X014996Y009793D02*
X015042Y009793D01*
X014996Y009839D02*
X015019Y009862D01*
X014969Y009851D02*
X014969Y009828D01*
X014958Y009816D01*
X014923Y009816D01*
X014923Y009793D02*
X014923Y009862D01*
X014958Y009862D01*
X014969Y009851D01*
X014946Y009816D02*
X014969Y009793D01*
X015435Y009035D02*
X015470Y009035D01*
X015481Y009024D01*
X015481Y009001D01*
X015470Y008989D01*
X015435Y008989D01*
X015435Y008966D02*
X015435Y009035D01*
X015458Y008989D02*
X015481Y008966D01*
X015508Y008966D02*
X015553Y008966D01*
X015531Y008966D02*
X015531Y009035D01*
X015508Y009012D01*
X015580Y009024D02*
X015580Y008978D01*
X015626Y009024D01*
X015626Y008978D01*
X015615Y008966D01*
X015592Y008966D01*
X015580Y008978D01*
X015580Y009024D02*
X015592Y009035D01*
X015615Y009035D01*
X015626Y009024D01*
X015339Y008917D02*
X015305Y008883D01*
X015350Y008883D01*
X015339Y008917D02*
X015339Y008848D01*
X015278Y008848D02*
X015232Y008848D01*
X015255Y008848D02*
X015255Y008917D01*
X015232Y008894D01*
X015205Y008906D02*
X015194Y008917D01*
X015171Y008917D01*
X015160Y008906D01*
X015160Y008860D01*
X015171Y008848D01*
X015194Y008848D01*
X015205Y008860D01*
X015435Y008866D02*
X015435Y008820D01*
X015447Y008809D01*
X015470Y008809D01*
X015481Y008820D01*
X015508Y008809D02*
X015553Y008809D01*
X015531Y008809D02*
X015531Y008878D01*
X015508Y008855D01*
X015481Y008866D02*
X015470Y008878D01*
X015447Y008878D01*
X015435Y008866D01*
X015580Y008855D02*
X015580Y008866D01*
X015592Y008878D01*
X015615Y008878D01*
X015626Y008866D01*
X015626Y008855D01*
X015615Y008843D01*
X015592Y008843D01*
X015580Y008855D01*
X015592Y008843D02*
X015580Y008832D01*
X015580Y008820D01*
X015592Y008809D01*
X015615Y008809D01*
X015626Y008820D01*
X015626Y008832D01*
X015615Y008843D01*
X014884Y008848D02*
X014838Y008848D01*
X014884Y008894D01*
X014884Y008906D01*
X014873Y008917D01*
X014850Y008917D01*
X014838Y008906D01*
X014812Y008906D02*
X014812Y008883D01*
X014800Y008871D01*
X014766Y008871D01*
X014766Y008848D02*
X014766Y008917D01*
X014800Y008917D01*
X014812Y008906D01*
X014789Y008871D02*
X014812Y008848D01*
X017600Y008860D02*
X017612Y008848D01*
X017635Y008848D01*
X017646Y008860D01*
X017673Y008848D02*
X017719Y008894D01*
X017719Y008906D01*
X017707Y008917D01*
X017684Y008917D01*
X017673Y008906D01*
X017646Y008906D02*
X017635Y008917D01*
X017612Y008917D01*
X017600Y008906D01*
X017600Y008860D01*
X017673Y008848D02*
X017719Y008848D01*
X017745Y008860D02*
X017791Y008906D01*
X017791Y008860D01*
X017780Y008848D01*
X017757Y008848D01*
X017745Y008860D01*
X017745Y008906D01*
X017757Y008917D01*
X017780Y008917D01*
X017791Y008906D01*
X017803Y009006D02*
X017791Y009017D01*
X017803Y009006D02*
X017825Y009006D01*
X017837Y009017D01*
X017837Y009029D01*
X017825Y009040D01*
X017814Y009040D01*
X017825Y009040D02*
X017837Y009052D01*
X017837Y009063D01*
X017825Y009075D01*
X017803Y009075D01*
X017791Y009063D01*
X017764Y009063D02*
X017764Y009040D01*
X017753Y009029D01*
X017719Y009029D01*
X017742Y009029D02*
X017764Y009006D01*
X017719Y009006D02*
X017719Y009075D01*
X017753Y009075D01*
X017764Y009063D01*
X017774Y009155D02*
X017774Y009224D01*
X017739Y009190D01*
X017785Y009190D01*
X017713Y009213D02*
X017701Y009224D01*
X017678Y009224D01*
X017667Y009213D01*
X017667Y009167D01*
X017678Y009155D01*
X017701Y009155D01*
X017713Y009167D01*
X017641Y009155D02*
X017618Y009155D01*
X017630Y009155D02*
X017630Y009224D01*
X017641Y009224D02*
X017618Y009224D01*
X018388Y008917D02*
X018422Y008917D01*
X018434Y008906D01*
X018434Y008883D01*
X018422Y008871D01*
X018388Y008871D01*
X018388Y008848D02*
X018388Y008917D01*
X018411Y008871D02*
X018434Y008848D01*
X018460Y008883D02*
X018506Y008883D01*
X018495Y008917D02*
X018460Y008883D01*
X018495Y008917D02*
X018495Y008848D01*
X019513Y009163D02*
X019513Y009232D01*
X019490Y009232D02*
X019536Y009232D01*
X019563Y009232D02*
X019597Y009232D01*
X019609Y009221D01*
X019609Y009198D01*
X019597Y009186D01*
X019563Y009186D01*
X019563Y009163D02*
X019563Y009232D01*
X019635Y009209D02*
X019658Y009232D01*
X019658Y009163D01*
X019635Y009163D02*
X019681Y009163D01*
X019687Y009075D02*
X019733Y009075D01*
X019710Y009075D02*
X019710Y009006D01*
X019760Y009006D02*
X019760Y009075D01*
X019794Y009075D01*
X019805Y009063D01*
X019805Y009040D01*
X019794Y009029D01*
X019760Y009029D01*
X019832Y009006D02*
X019878Y009052D01*
X019878Y009063D01*
X019866Y009075D01*
X019844Y009075D01*
X019832Y009063D01*
X019832Y009006D02*
X019878Y009006D01*
X019720Y008917D02*
X019675Y008917D01*
X019675Y008883D01*
X019698Y008894D01*
X019709Y008894D01*
X019720Y008883D01*
X019720Y008860D01*
X019709Y008848D01*
X019686Y008848D01*
X019675Y008860D01*
X019648Y008848D02*
X019602Y008848D01*
X019625Y008848D02*
X019625Y008917D01*
X019602Y008894D01*
X019575Y008883D02*
X019564Y008871D01*
X019530Y008871D01*
X019553Y008871D02*
X019575Y008848D01*
X019575Y008883D02*
X019575Y008906D01*
X019564Y008917D01*
X019530Y008917D01*
X019530Y008848D01*
X020081Y009006D02*
X020081Y009075D01*
X020115Y009075D01*
X020127Y009063D01*
X020127Y009040D01*
X020115Y009029D01*
X020081Y009029D01*
X020104Y009029D02*
X020127Y009006D01*
X020153Y009006D02*
X020153Y009017D01*
X020199Y009063D01*
X020199Y009075D01*
X020153Y009075D01*
X020514Y009075D02*
X020514Y009006D01*
X020514Y009029D02*
X020548Y009029D01*
X020560Y009040D01*
X020560Y009063D01*
X020548Y009075D01*
X020514Y009075D01*
X020537Y009029D02*
X020560Y009006D01*
X020586Y009017D02*
X020598Y009006D01*
X020621Y009006D01*
X020632Y009017D01*
X020632Y009029D01*
X020621Y009040D01*
X020586Y009040D01*
X020586Y009017D01*
X020586Y009040D02*
X020609Y009063D01*
X020632Y009075D01*
X020626Y009163D02*
X020672Y009163D01*
X020698Y009163D02*
X020733Y009163D01*
X020744Y009175D01*
X020744Y009221D01*
X020733Y009232D01*
X020698Y009232D01*
X020698Y009163D01*
X020649Y009198D02*
X020626Y009198D01*
X020626Y009232D02*
X020626Y009163D01*
X020599Y009163D02*
X020553Y009163D01*
X020553Y009232D01*
X020626Y009232D02*
X020672Y009232D01*
X020771Y009221D02*
X020782Y009232D01*
X020805Y009232D01*
X020817Y009221D01*
X020817Y009209D01*
X020771Y009163D01*
X020817Y009163D01*
X020947Y009075D02*
X020981Y009075D01*
X020993Y009063D01*
X020993Y009040D01*
X020981Y009029D01*
X020947Y009029D01*
X020970Y009029D02*
X020993Y009006D01*
X021019Y009017D02*
X021031Y009006D01*
X021054Y009006D01*
X021065Y009017D01*
X021065Y009040D01*
X021054Y009052D01*
X021042Y009052D01*
X021019Y009040D01*
X021019Y009075D01*
X021065Y009075D01*
X020947Y009075D02*
X020947Y009006D01*
X020958Y008917D02*
X020947Y008906D01*
X020947Y008860D01*
X020958Y008848D01*
X020981Y008848D01*
X020993Y008860D01*
X021019Y008848D02*
X021065Y008894D01*
X021065Y008906D01*
X021054Y008917D01*
X021031Y008917D01*
X021019Y008906D01*
X020993Y008906D02*
X020981Y008917D01*
X020958Y008917D01*
X021019Y008848D02*
X021065Y008848D01*
X021092Y008860D02*
X021103Y008848D01*
X021126Y008848D01*
X021138Y008860D01*
X021138Y008883D01*
X021126Y008894D01*
X021115Y008894D01*
X021092Y008883D01*
X021092Y008917D01*
X021138Y008917D01*
X020593Y008906D02*
X020581Y008917D01*
X020558Y008917D01*
X020547Y008906D01*
X020520Y008906D02*
X020520Y008860D01*
X020509Y008848D01*
X020486Y008848D01*
X020474Y008860D01*
X020474Y008906D01*
X020486Y008917D01*
X020509Y008917D01*
X020520Y008906D01*
X020497Y008871D02*
X020520Y008848D01*
X020547Y008848D02*
X020593Y008894D01*
X020593Y008906D01*
X020593Y008848D02*
X020547Y008848D01*
X019681Y009321D02*
X019635Y009321D01*
X019681Y009367D01*
X019681Y009378D01*
X019670Y009390D01*
X019647Y009390D01*
X019635Y009378D01*
X019609Y009378D02*
X019597Y009390D01*
X019574Y009390D01*
X019563Y009378D01*
X019536Y009378D02*
X019525Y009390D01*
X019502Y009390D01*
X019490Y009378D01*
X019490Y009332D01*
X019502Y009321D01*
X019525Y009321D01*
X019536Y009332D01*
X019563Y009321D02*
X019609Y009367D01*
X019609Y009378D01*
X019609Y009321D02*
X019563Y009321D01*
X019659Y009478D02*
X019682Y009478D01*
X019694Y009490D01*
X019720Y009490D02*
X019732Y009478D01*
X019755Y009478D01*
X019766Y009490D01*
X019766Y009501D01*
X019755Y009513D01*
X019720Y009513D01*
X019720Y009490D01*
X019720Y009513D02*
X019743Y009536D01*
X019766Y009547D01*
X019694Y009536D02*
X019682Y009547D01*
X019659Y009547D01*
X019648Y009536D01*
X019648Y009490D01*
X019659Y009478D01*
X009957Y008906D02*
X009911Y008860D01*
X009922Y008848D01*
X009945Y008848D01*
X009957Y008860D01*
X009957Y008906D01*
X009945Y008917D01*
X009922Y008917D01*
X009911Y008906D01*
X009911Y008860D01*
X009884Y008848D02*
X009838Y008848D01*
X009861Y008848D02*
X009861Y008917D01*
X009838Y008894D01*
X009812Y008906D02*
X009800Y008917D01*
X009777Y008917D01*
X009766Y008906D01*
X009766Y008860D01*
X009777Y008848D01*
X009800Y008848D01*
X009812Y008860D01*
X009597Y009006D02*
X009597Y009075D01*
X009563Y009040D01*
X009609Y009040D01*
X009536Y009006D02*
X009490Y009006D01*
X009490Y009075D01*
X009530Y009321D02*
X009553Y009321D01*
X009541Y009321D02*
X009541Y009390D01*
X009530Y009390D02*
X009553Y009390D01*
X009578Y009378D02*
X009578Y009332D01*
X009589Y009321D01*
X009612Y009321D01*
X009624Y009332D01*
X009650Y009321D02*
X009696Y009367D01*
X009696Y009378D01*
X009685Y009390D01*
X009662Y009390D01*
X009650Y009378D01*
X009624Y009378D02*
X009612Y009390D01*
X009589Y009390D01*
X009578Y009378D01*
X009650Y009321D02*
X009696Y009321D01*
X008782Y009063D02*
X008770Y009075D01*
X008747Y009075D01*
X008736Y009063D01*
X008736Y009052D01*
X008747Y009040D01*
X008782Y009040D01*
X008782Y009017D02*
X008782Y009063D01*
X008782Y009017D02*
X008770Y009006D01*
X008747Y009006D01*
X008736Y009017D01*
X008709Y009017D02*
X008698Y009006D01*
X008675Y009006D01*
X008663Y009017D01*
X008663Y009063D01*
X008675Y009075D01*
X008698Y009075D01*
X008709Y009063D01*
X008613Y009163D02*
X008590Y009163D01*
X008578Y009175D01*
X008552Y009163D02*
X008506Y009163D01*
X008506Y009232D01*
X008578Y009221D02*
X008590Y009232D01*
X008613Y009232D01*
X008624Y009221D01*
X008624Y009209D01*
X008613Y009198D01*
X008624Y009186D01*
X008624Y009175D01*
X008613Y009163D01*
X008613Y009198D02*
X008601Y009198D01*
X008596Y009321D02*
X008619Y009321D01*
X008631Y009332D01*
X008657Y009321D02*
X008703Y009367D01*
X008703Y009378D01*
X008692Y009390D01*
X008669Y009390D01*
X008657Y009378D01*
X008631Y009378D02*
X008619Y009390D01*
X008596Y009390D01*
X008585Y009378D01*
X008585Y009332D01*
X008596Y009321D01*
X008657Y009321D02*
X008703Y009321D01*
X008443Y008917D02*
X008454Y008906D01*
X008454Y008894D01*
X008443Y008883D01*
X008454Y008871D01*
X008454Y008860D01*
X008443Y008848D01*
X008420Y008848D01*
X008409Y008860D01*
X008382Y008860D02*
X008382Y008906D01*
X008370Y008917D01*
X008336Y008917D01*
X008336Y008848D01*
X008370Y008848D01*
X008382Y008860D01*
X008409Y008906D02*
X008420Y008917D01*
X008443Y008917D01*
X008443Y008883D02*
X008431Y008883D01*
X008309Y008917D02*
X008264Y008917D01*
X008264Y008848D01*
X008309Y008848D01*
X008286Y008883D02*
X008264Y008883D01*
X008237Y008848D02*
X008191Y008848D01*
X008191Y008917D01*
X007925Y009006D02*
X007879Y009006D01*
X007902Y009006D02*
X007902Y009075D01*
X007879Y009052D01*
X007852Y009063D02*
X007841Y009075D01*
X007818Y009075D01*
X007806Y009063D01*
X007806Y009017D01*
X007818Y009006D01*
X007841Y009006D01*
X007852Y009017D01*
X007781Y009006D02*
X007758Y009006D01*
X007769Y009006D02*
X007769Y009075D01*
X007758Y009075D02*
X007781Y009075D01*
X007713Y009063D02*
X007713Y009052D01*
X007701Y009040D01*
X007713Y009029D01*
X007713Y009017D01*
X007701Y009006D01*
X007678Y009006D01*
X007667Y009017D01*
X007640Y009006D02*
X007594Y009006D01*
X007617Y009006D02*
X007617Y009075D01*
X007594Y009052D01*
X007568Y009063D02*
X007568Y009040D01*
X007556Y009029D01*
X007522Y009029D01*
X007545Y009029D02*
X007568Y009006D01*
X007522Y009006D02*
X007522Y009075D01*
X007556Y009075D01*
X007568Y009063D01*
X007667Y009063D02*
X007678Y009075D01*
X007701Y009075D01*
X007713Y009063D01*
X007701Y009040D02*
X007690Y009040D01*
X007524Y009163D02*
X007524Y009175D01*
X007570Y009221D01*
X007570Y009232D01*
X007524Y009232D01*
X007498Y009221D02*
X007486Y009232D01*
X007463Y009232D01*
X007452Y009221D01*
X007452Y009175D01*
X007463Y009163D01*
X007486Y009163D01*
X007498Y009175D01*
X007427Y009163D02*
X007404Y009163D01*
X007415Y009163D02*
X007415Y009232D01*
X007404Y009232D02*
X007427Y009232D01*
X007089Y009332D02*
X007077Y009321D01*
X007055Y009321D01*
X007043Y009332D01*
X007043Y009355D02*
X007066Y009367D01*
X007077Y009367D01*
X007089Y009355D01*
X007089Y009332D01*
X007043Y009355D02*
X007043Y009390D01*
X007089Y009390D01*
X007016Y009378D02*
X007005Y009390D01*
X006982Y009390D01*
X006971Y009378D01*
X006971Y009332D01*
X006982Y009321D01*
X007005Y009321D01*
X007016Y009332D01*
X006959Y009232D02*
X006936Y009232D01*
X006925Y009221D01*
X006959Y009232D02*
X006971Y009221D01*
X006971Y009209D01*
X006925Y009163D01*
X006971Y009163D01*
X006898Y009163D02*
X006852Y009163D01*
X006852Y009232D01*
X006864Y009075D02*
X006852Y009063D01*
X006852Y009017D01*
X006864Y009006D01*
X006887Y009006D01*
X006898Y009017D01*
X006925Y009017D02*
X006925Y009006D01*
X006925Y009017D02*
X006971Y009063D01*
X006971Y009075D01*
X006925Y009075D01*
X006898Y009063D02*
X006887Y009075D01*
X006864Y009075D01*
X006943Y008917D02*
X006931Y008906D01*
X006931Y008860D01*
X006943Y008848D01*
X006966Y008848D01*
X006977Y008860D01*
X007004Y008848D02*
X007050Y008848D01*
X007027Y008848D02*
X007027Y008917D01*
X007004Y008894D01*
X006977Y008906D02*
X006966Y008917D01*
X006943Y008917D01*
X018411Y000374D02*
X018434Y000374D01*
X018422Y000374D02*
X018422Y000316D01*
X018411Y000305D01*
X018399Y000305D01*
X018388Y000316D01*
X018460Y000305D02*
X018460Y000374D01*
X018495Y000374D01*
X018506Y000362D01*
X018506Y000339D01*
X018495Y000328D01*
X018460Y000328D01*
X018533Y000339D02*
X018556Y000351D01*
X018567Y000351D01*
X018579Y000339D01*
X018579Y000316D01*
X018567Y000305D01*
X018544Y000305D01*
X018533Y000316D01*
X018533Y000339D02*
X018533Y000374D01*
X018579Y000374D01*
X018624Y000374D02*
X018658Y000374D01*
X018670Y000362D01*
X018670Y000339D01*
X018658Y000328D01*
X018624Y000328D01*
X018624Y000305D02*
X018624Y000374D01*
X018647Y000328D02*
X018670Y000305D01*
X018697Y000316D02*
X018697Y000328D01*
X018708Y000339D01*
X018731Y000339D01*
X018742Y000328D01*
X018742Y000316D01*
X018731Y000305D01*
X018708Y000305D01*
X018697Y000316D01*
X018708Y000339D02*
X018697Y000351D01*
X018697Y000362D01*
X018708Y000374D01*
X018731Y000374D01*
X018742Y000362D01*
X018742Y000351D01*
X018731Y000339D01*
X019923Y000328D02*
X019958Y000328D01*
X019969Y000339D01*
X019969Y000362D01*
X019958Y000374D01*
X019923Y000374D01*
X019923Y000305D01*
X019946Y000328D02*
X019969Y000305D01*
X019996Y000316D02*
X020007Y000305D01*
X020030Y000305D01*
X020042Y000316D01*
X020042Y000362D01*
X020030Y000374D01*
X020007Y000374D01*
X019996Y000362D01*
X019996Y000351D01*
X020007Y000339D01*
X020042Y000339D01*
D12*
X007645Y007485D02*
X007647Y007498D01*
X007652Y007510D01*
X007661Y007521D01*
X007671Y007529D01*
X007684Y007533D01*
X007697Y007534D01*
X007710Y007531D01*
X007722Y007525D01*
X007732Y007516D01*
X007739Y007505D01*
X007743Y007492D01*
X007743Y007478D01*
X007739Y007465D01*
X007732Y007454D01*
X007722Y007445D01*
X007710Y007439D01*
X007697Y007436D01*
X007684Y007437D01*
X007671Y007441D01*
X007661Y007449D01*
X007652Y007460D01*
X007647Y007472D01*
X007645Y007485D01*
X007647Y007498D01*
X007652Y007510D01*
X007661Y007521D01*
X007671Y007529D01*
X007684Y007533D01*
X007697Y007534D01*
X007710Y007531D01*
X007722Y007525D01*
X007732Y007516D01*
X007739Y007505D01*
X007743Y007492D01*
X007743Y007478D01*
X007739Y007465D01*
X007732Y007454D01*
X007722Y007445D01*
X007710Y007439D01*
X007697Y007436D01*
X007684Y007437D01*
X007671Y007441D01*
X007661Y007449D01*
X007652Y007460D01*
X007647Y007472D01*
X007645Y007485D01*
D13*
X021257Y008174D02*
X021257Y004355D01*
X021355Y004355D01*
X025174Y004355D02*
X025233Y004355D01*
X025233Y008174D01*
X025174Y008174D01*
X021355Y008174D02*
X021257Y008174D01*
D14*
X022743Y006436D02*
X022817Y006362D01*
X022890Y006436D01*
X022890Y006216D01*
X022964Y006216D02*
X022964Y006362D01*
X023038Y006436D01*
X023111Y006362D01*
X023111Y006216D01*
X023185Y006216D02*
X023332Y006436D01*
X023406Y006326D02*
X023553Y006326D01*
X023627Y006326D02*
X023701Y006399D01*
X023774Y006436D01*
X023737Y006326D02*
X023627Y006326D01*
X023627Y006252D01*
X023664Y006216D01*
X023737Y006216D01*
X023774Y006252D01*
X023774Y006289D01*
X023737Y006326D01*
X023332Y006216D02*
X023185Y006436D01*
X023111Y006326D02*
X022964Y006326D01*
X022743Y006216D02*
X022743Y006436D01*
X022716Y005240D02*
X022569Y005093D01*
X022495Y005130D02*
X022495Y005204D01*
X022458Y005240D01*
X022385Y005240D01*
X022348Y005204D01*
X022348Y005130D01*
X022385Y005093D01*
X022458Y005093D01*
X022495Y005130D01*
X022569Y005240D02*
X022716Y005093D01*
X022274Y005093D02*
X022201Y005093D01*
X022238Y005093D02*
X022238Y005314D01*
X022201Y005314D01*
X022127Y005204D02*
X022090Y005240D01*
X021980Y005240D01*
X021980Y005314D02*
X021980Y005093D01*
X022090Y005093D01*
X022127Y005130D01*
X022127Y005204D01*
X021906Y005240D02*
X021906Y005093D01*
X021796Y005093D01*
X021759Y005130D01*
X021759Y005240D01*
D15*
X020745Y005103D02*
X020745Y004867D01*
X020430Y004867D01*
X020745Y005733D02*
X020745Y005969D01*
X020430Y005969D01*
X020462Y007174D02*
X020538Y007290D01*
X020548Y007296D02*
X020640Y007174D01*
X020729Y007296D02*
X020548Y007296D01*
X020367Y007296D01*
X013599Y005064D02*
X011907Y005064D01*
X011907Y003961D01*
X013599Y003961D01*
X013599Y005064D01*
X008241Y006395D02*
X008125Y006471D01*
X008119Y006481D02*
X008241Y006573D01*
X008119Y006662D02*
X008119Y006481D01*
X008119Y006300D01*
D16*
X012113Y004769D03*
D17*
X005568Y003942D02*
X004977Y003942D01*
X004964Y003943D01*
X004951Y003948D01*
X004940Y003955D01*
X004931Y003964D01*
X004924Y003975D01*
X004919Y003988D01*
X004918Y004001D01*
X004918Y005103D01*
X004919Y005116D01*
X004924Y005129D01*
X004931Y005140D01*
X004940Y005149D01*
X004951Y005156D01*
X004964Y005161D01*
X004977Y005162D01*
X005568Y005162D01*
X005581Y005161D01*
X005594Y005156D01*
X005605Y005149D01*
X005614Y005140D01*
X005621Y005129D01*
X005626Y005116D01*
X005627Y005103D01*
X005627Y004001D01*
X005626Y003988D01*
X005621Y003975D01*
X005614Y003964D01*
X005605Y003955D01*
X005594Y003948D01*
X005581Y003943D01*
X005568Y003942D01*
X005568Y007367D02*
X004977Y007367D01*
X004964Y007368D01*
X004951Y007373D01*
X004940Y007380D01*
X004931Y007389D01*
X004924Y007400D01*
X004919Y007413D01*
X004918Y007426D01*
X004918Y008528D01*
X004919Y008541D01*
X004924Y008554D01*
X004931Y008565D01*
X004940Y008574D01*
X004951Y008581D01*
X004964Y008586D01*
X004977Y008587D01*
X005568Y008587D01*
X005581Y008586D01*
X005594Y008581D01*
X005605Y008574D01*
X005614Y008565D01*
X005621Y008554D01*
X005626Y008541D01*
X005627Y008528D01*
X005627Y007426D01*
X005626Y007413D01*
X005621Y007400D01*
X005614Y007389D01*
X005605Y007380D01*
X005594Y007373D01*
X005581Y007368D01*
X005568Y007367D01*
X024092Y008824D02*
X024092Y009414D01*
X024093Y009427D01*
X024098Y009440D01*
X024105Y009451D01*
X024114Y009460D01*
X024125Y009467D01*
X024138Y009472D01*
X024151Y009473D01*
X025253Y009473D01*
X025266Y009472D01*
X025279Y009467D01*
X025290Y009460D01*
X025299Y009451D01*
X025306Y009440D01*
X025311Y009427D01*
X025312Y009414D01*
X025312Y008824D01*
X025311Y008811D01*
X025306Y008798D01*
X025299Y008787D01*
X025290Y008778D01*
X025279Y008771D01*
X025266Y008766D01*
X025253Y008765D01*
X024151Y008765D01*
X024138Y008766D01*
X024125Y008771D01*
X024114Y008778D01*
X024105Y008787D01*
X024098Y008798D01*
X024093Y008811D01*
X024092Y008824D01*
X026319Y006800D02*
X026299Y006609D01*
X026235Y006589D01*
X026176Y006558D01*
X026027Y006679D01*
X025925Y006577D01*
X026046Y006429D01*
X026016Y006369D01*
X025995Y006305D01*
X025805Y006285D01*
X025805Y006141D01*
X025995Y006122D01*
X026016Y006058D01*
X026046Y005998D01*
X025925Y005850D01*
X026027Y005748D01*
X026176Y005869D01*
X026235Y005838D01*
X026320Y006043D01*
X026282Y006064D01*
X026250Y006094D01*
X026226Y006130D01*
X026211Y006170D01*
X026206Y006213D01*
X025805Y006213D01*
X025805Y006155D02*
X026217Y006155D01*
X026206Y006213D02*
X026211Y006257D01*
X026227Y006299D01*
X026252Y006335D01*
X026285Y006365D01*
X026324Y006385D01*
X026367Y006396D01*
X026411Y006397D01*
X026454Y006387D01*
X026493Y006367D01*
X026527Y006338D01*
X026553Y006302D01*
X026569Y006261D01*
X026575Y006217D01*
X026571Y006173D01*
X026556Y006132D01*
X026532Y006095D01*
X026500Y006065D01*
X026461Y006043D01*
X026546Y005838D01*
X026606Y005869D01*
X026754Y005748D01*
X026856Y005850D01*
X026735Y005998D01*
X026766Y006058D01*
X026786Y006122D01*
X026977Y006141D01*
X026977Y006285D01*
X026786Y006305D01*
X026766Y006369D01*
X026735Y006429D01*
X026856Y006577D01*
X026754Y006679D01*
X026606Y006558D01*
X026546Y006589D01*
X026482Y006609D01*
X026463Y006800D01*
X026319Y006800D01*
X026318Y006789D02*
X026464Y006789D01*
X026470Y006731D02*
X026312Y006731D01*
X026306Y006673D02*
X026476Y006673D01*
X026481Y006616D02*
X026300Y006616D01*
X026177Y006558D02*
X026605Y006558D01*
X026607Y006558D02*
X026841Y006558D01*
X026817Y006616D02*
X026677Y006616D01*
X026748Y006673D02*
X026760Y006673D01*
X026794Y006501D02*
X025988Y006501D01*
X026034Y006443D02*
X026747Y006443D01*
X026757Y006386D02*
X026456Y006386D01*
X026534Y006328D02*
X026779Y006328D01*
X026977Y006271D02*
X026565Y006271D01*
X026575Y006213D02*
X026977Y006213D01*
X026977Y006155D02*
X026565Y006155D01*
X026534Y006098D02*
X026779Y006098D01*
X026757Y006040D02*
X026462Y006040D01*
X026486Y005983D02*
X026748Y005983D01*
X026795Y005925D02*
X026510Y005925D01*
X026534Y005868D02*
X026603Y005868D01*
X026608Y005868D02*
X026842Y005868D01*
X026816Y005810D02*
X026678Y005810D01*
X026749Y005753D02*
X026759Y005753D01*
X026271Y005925D02*
X025987Y005925D01*
X025940Y005868D02*
X026174Y005868D01*
X026178Y005868D02*
X026248Y005868D01*
X026295Y005983D02*
X026034Y005983D01*
X026025Y006040D02*
X026319Y006040D01*
X026247Y006098D02*
X026003Y006098D01*
X026003Y006328D02*
X026247Y006328D01*
X026217Y006271D02*
X025805Y006271D01*
X026024Y006386D02*
X026325Y006386D01*
X026175Y006558D02*
X025941Y006558D01*
X025964Y006616D02*
X026104Y006616D01*
X026034Y006673D02*
X026022Y006673D01*
X025965Y005810D02*
X026103Y005810D01*
X026033Y005753D02*
X026023Y005753D01*
D18*
X021422Y002940D02*
X021172Y003190D01*
X020672Y003190D01*
X020422Y002940D01*
X020422Y001440D01*
X020172Y001190D01*
X019672Y001190D01*
X019422Y001440D01*
X019422Y002940D01*
X019172Y003190D01*
X018672Y003190D01*
X018422Y002940D01*
X018422Y001440D01*
X018172Y001190D01*
X017672Y001190D01*
X017422Y001440D01*
X017422Y002940D01*
X017172Y003190D01*
X016672Y003190D01*
X016422Y002940D01*
X016172Y003190D01*
X015672Y003190D01*
X015422Y002940D01*
X015422Y001440D01*
X015672Y001190D01*
X016172Y001190D01*
X016422Y001440D01*
X016422Y002940D01*
X017422Y002940D02*
X017672Y003190D01*
X018172Y003190D01*
X018422Y002940D01*
X019422Y002940D02*
X019672Y003190D01*
X020172Y003190D01*
X020422Y002940D01*
X021422Y002940D02*
X021422Y001440D01*
X021172Y001190D01*
X020672Y001190D01*
X020422Y001440D01*
X019422Y001440D02*
X019172Y001190D01*
X018672Y001190D01*
X018422Y001440D01*
X017422Y001440D02*
X017172Y001190D01*
X016672Y001190D01*
X016422Y001440D01*
X017936Y004166D02*
X017936Y004566D01*
X018656Y004806D02*
X018956Y004806D01*
X018956Y005106D01*
X018756Y005106D02*
X018656Y005006D01*
X016456Y004806D02*
X016156Y004806D01*
X016156Y005106D01*
X015916Y006346D02*
X015516Y006346D01*
X016156Y007306D02*
X016156Y007606D01*
X016456Y007606D01*
X018186Y007846D02*
X018186Y008246D01*
X018656Y007606D02*
X018956Y007606D01*
X018956Y007306D01*
X010666Y006206D02*
X010430Y006206D01*
X010430Y005733D02*
X010666Y005733D01*
X007843Y004814D02*
X007663Y004814D01*
X007473Y004454D02*
X007473Y004334D01*
X007663Y003974D02*
X007843Y003974D01*
X007803Y004085D02*
X007784Y004092D01*
X007763Y004096D01*
X007743Y004096D01*
X007722Y004092D01*
X007703Y004085D01*
D19*
X019218Y004879D02*
X019531Y005192D01*
X019531Y005035D02*
X019218Y005035D01*
X019218Y005192D02*
X019531Y004879D01*
X019374Y004879D02*
X019374Y005192D01*
M02*
