G75*
%MOIN*%
%OFA0B0*%
%FSLAX24Y24*%
%IPPOS*%
%LPD*%
%AMOC8*
5,1,8,0,0,1.08239X$1,22.5*
%
%ADD10R,0.0700X0.0700*%
%ADD11R,0.0450X0.0450*%
%ADD12R,0.0280X0.0700*%
%ADD13R,0.0350X0.0560*%
%ADD14R,0.0098X0.0276*%
%ADD15R,0.0276X0.0098*%
%ADD16R,0.1024X0.1024*%
%ADD17R,0.0197X0.0236*%
%ADD18R,0.0236X0.0197*%
%ADD19R,0.0315X0.0709*%
%ADD20R,0.0276X0.0709*%
%ADD21R,0.0315X0.0315*%
%ADD22R,0.0472X0.0138*%
%ADD23R,0.0300X0.1000*%
%ADD24R,0.0350X0.0100*%
%ADD25R,0.0150X0.0175*%
%ADD26R,0.0141X0.0141*%
%ADD27R,0.0212X0.0212*%
%ADD28R,0.0315X0.0472*%
%ADD29R,0.0420X0.0140*%
%ADD30R,0.0140X0.0420*%
%ADD31R,0.1850X0.1850*%
%ADD32R,0.0236X0.0157*%
%ADD33R,0.0276X0.0512*%
%ADD34R,0.0157X0.0236*%
%ADD35R,0.0512X0.0276*%
%ADD36R,0.0197X0.0354*%
%ADD37R,0.0354X0.0197*%
%ADD38R,0.0315X0.0157*%
%ADD39R,0.0354X0.0315*%
%ADD40R,0.0709X0.0354*%
%ADD41R,0.0787X0.0394*%
D10*
X011996Y006363D03*
X013996Y006363D03*
X013996Y008017D03*
X011996Y008017D03*
D11*
X012996Y008167D03*
X012996Y006213D03*
D12*
X012996Y006740D03*
X012996Y007640D03*
D13*
X012496Y007590D03*
X013496Y007590D03*
X013496Y006790D03*
X012496Y006790D03*
D14*
X009925Y006402D03*
X009728Y006402D03*
X009532Y006402D03*
X009335Y006402D03*
X009138Y006402D03*
X009138Y007977D03*
X009335Y007977D03*
X009532Y007977D03*
X009728Y007977D03*
X009925Y007977D03*
D15*
X010319Y007583D03*
X010319Y007387D03*
X010319Y007190D03*
X010319Y006993D03*
X010319Y006796D03*
X008744Y006796D03*
X008744Y006993D03*
X008744Y007190D03*
X008744Y007387D03*
X008744Y007583D03*
D16*
X009532Y007190D03*
D17*
X007977Y007190D03*
X006835Y007190D03*
X006835Y007780D03*
X007977Y007780D03*
X007977Y008371D03*
X006835Y008371D03*
D18*
X007406Y007190D03*
D19*
X021973Y008135D03*
X022406Y008135D03*
X022839Y008135D03*
X023272Y008135D03*
X023705Y008135D03*
X024138Y008135D03*
X024571Y008135D03*
X024571Y004394D03*
X024138Y004394D03*
X023705Y004394D03*
X023272Y004394D03*
X022839Y004394D03*
X022406Y004394D03*
X021973Y004394D03*
D20*
X021559Y004394D03*
X024984Y004394D03*
X024984Y008135D03*
X021559Y008135D03*
D21*
X020555Y007524D03*
X020555Y006934D03*
X008488Y006481D03*
X007898Y006481D03*
D22*
X011608Y004896D03*
X011608Y004641D03*
X011608Y004385D03*
X011608Y004129D03*
X013912Y004129D03*
X013912Y004385D03*
X013912Y004641D03*
X013912Y004896D03*
D23*
X011055Y004631D03*
X010055Y004631D03*
D24*
X010180Y005181D03*
X010930Y005181D03*
X010930Y004081D03*
X010180Y004081D03*
D25*
X010280Y004218D03*
X010830Y004218D03*
X010830Y005043D03*
X010280Y005043D03*
D26*
G36*
X010103Y005131D02*
X010005Y005033D01*
X009907Y005131D01*
X010005Y005229D01*
X010103Y005131D01*
G37*
G36*
X011008Y005131D02*
X011106Y005229D01*
X011204Y005131D01*
X011106Y005033D01*
X011008Y005131D01*
G37*
G36*
X011008Y004130D02*
X011106Y004228D01*
X011204Y004130D01*
X011106Y004032D01*
X011008Y004130D01*
G37*
G36*
X010103Y004130D02*
X010005Y004032D01*
X009907Y004130D01*
X010005Y004228D01*
X010103Y004130D01*
G37*
D27*
G36*
X010354Y004307D02*
X010205Y004158D01*
X010056Y004307D01*
X010205Y004456D01*
X010354Y004307D01*
G37*
G36*
X010756Y004307D02*
X010905Y004456D01*
X011054Y004307D01*
X010905Y004158D01*
X010756Y004307D01*
G37*
G36*
X010756Y004955D02*
X010905Y005104D01*
X011054Y004955D01*
X010905Y004806D01*
X010756Y004955D01*
G37*
G36*
X010354Y004955D02*
X010205Y004806D01*
X010056Y004955D01*
X010205Y005104D01*
X010354Y004955D01*
G37*
D28*
X010201Y005969D03*
X010910Y005969D03*
D29*
X016253Y006076D03*
X016253Y005826D03*
X016253Y005566D03*
X016253Y005306D03*
X016253Y006336D03*
X016253Y006586D03*
X016253Y006846D03*
X016253Y007106D03*
X018873Y007106D03*
X018873Y006846D03*
X018873Y006586D03*
X018873Y006336D03*
X018873Y006076D03*
X018873Y005826D03*
X018873Y005566D03*
X018873Y005306D03*
D30*
X018463Y004896D03*
X018203Y004896D03*
X017943Y004896D03*
X017693Y004896D03*
X017433Y004896D03*
X017183Y004896D03*
X016923Y004896D03*
X016663Y004896D03*
X016663Y007516D03*
X016923Y007516D03*
X017183Y007516D03*
X017433Y007516D03*
X017693Y007516D03*
X017943Y007516D03*
X018203Y007516D03*
X018463Y007516D03*
D31*
X017563Y006206D03*
D32*
X019650Y006422D03*
X019650Y006776D03*
X020949Y006934D03*
X020949Y006580D03*
X020949Y007524D03*
X020949Y007879D03*
X015437Y007918D03*
X015437Y007603D03*
X015437Y007249D03*
X014768Y006383D03*
X014768Y006028D03*
X014768Y004454D03*
X015162Y004454D03*
X015162Y004099D03*
X014768Y004099D03*
X014374Y004099D03*
X014374Y004454D03*
X009768Y005595D03*
X009768Y005950D03*
X009374Y005950D03*
X009000Y006028D03*
X009000Y005674D03*
X009374Y005595D03*
X009177Y004867D03*
X009571Y004867D03*
X009571Y004513D03*
X009177Y004513D03*
X006854Y005162D03*
X006854Y005517D03*
X006854Y005831D03*
X006854Y006186D03*
X007524Y006422D03*
X007524Y006776D03*
X015437Y008272D03*
D33*
X012189Y005497D03*
X011520Y005497D03*
D34*
X010929Y005497D03*
X010575Y005497D03*
X009679Y005270D03*
X009325Y005270D03*
X008715Y005270D03*
X008360Y005270D03*
X008321Y005664D03*
X008675Y005664D03*
X008675Y006058D03*
X008321Y006058D03*
X007169Y006560D03*
X006815Y006560D03*
X008498Y004877D03*
X008853Y004877D03*
X008853Y004483D03*
X008498Y004483D03*
X012819Y005339D03*
X013173Y005339D03*
X013685Y005339D03*
X014040Y005339D03*
X014748Y007032D03*
X015103Y007032D03*
X015103Y007426D03*
X014748Y007426D03*
X014748Y007820D03*
X015103Y007820D03*
X015103Y008213D03*
X014748Y008213D03*
X017543Y008253D03*
X017898Y008253D03*
X018213Y008253D03*
X018567Y008253D03*
X020339Y006245D03*
X020693Y006245D03*
X019669Y006048D03*
X019315Y006048D03*
X019354Y004985D03*
X019709Y004985D03*
X019906Y004631D03*
X020260Y004631D03*
X017780Y004237D03*
X017425Y004237D03*
X011284Y006954D03*
X010929Y006954D03*
X010929Y007347D03*
X011284Y007347D03*
X008764Y008410D03*
X008410Y008410D03*
X018449Y000851D03*
X018803Y000851D03*
X019748Y000851D03*
X020103Y000851D03*
D35*
X014571Y004808D03*
X014571Y005477D03*
D36*
X011244Y006481D03*
X010654Y006481D03*
D37*
X006933Y004178D03*
X006933Y004769D03*
D38*
X007406Y004654D03*
X008114Y004654D03*
X008114Y004394D03*
X008114Y004134D03*
X007406Y004134D03*
X007248Y005398D03*
X007248Y005654D03*
X007248Y005910D03*
X007957Y005910D03*
X007957Y005654D03*
X007957Y005398D03*
D39*
X020083Y005044D03*
X020910Y005418D03*
X020083Y005792D03*
D40*
X009374Y004178D03*
D41*
X024768Y009089D03*
X024768Y011885D03*
M02*
